<svg width="562" height="148" viewBox="0 0 562 148" fill="none" xmlns="http://www.w3.org/2000/svg">
<path d="M90.84 93L69.912 60.648L82.488 53.064L108.504 93H90.84ZM47.16 93V25.8H62.616V93H47.16ZM58.104 65.928V52.968H81.528V65.928H58.104ZM83.928 61.128L69.624 59.4L91.416 25.8H107.832L83.928 61.128ZM140 93.768C134.495 93.768 129.599 92.616 125.311 90.312C121.087 88.008 117.727 84.872 115.231 80.904C112.799 76.872 111.583 72.296 111.583 67.176C111.583 61.992 112.799 57.416 115.231 53.448C117.727 49.416 121.087 46.28 125.311 44.04C129.599 41.736 134.495 40.584 140 40.584C145.44 40.584 150.304 41.736 154.592 44.04C158.879 46.28 162.24 49.384 164.672 53.352C167.104 57.32 168.32 61.928 168.32 67.176C168.32 72.296 167.104 76.872 164.672 80.904C162.24 84.872 158.879 88.008 154.592 90.312C150.304 92.616 145.44 93.768 140 93.768ZM140 81.48C142.496 81.48 144.736 80.904 146.719 79.752C148.704 78.6 150.272 76.968 151.423 74.856C152.575 72.68 153.151 70.12 153.151 67.176C153.151 64.168 152.575 61.608 151.423 59.496C150.272 57.384 148.704 55.752 146.719 54.6C144.736 53.448 142.496 52.872 140 52.872C137.503 52.872 135.263 53.448 133.279 54.6C131.295 55.752 129.695 57.384 128.479 59.496C127.327 61.608 126.751 64.168 126.751 67.176C126.751 70.12 127.327 72.68 128.479 74.856C129.695 76.968 131.295 78.6 133.279 79.752C135.263 80.904 137.503 81.48 140 81.48ZM180.54 93V41.352H195.42V61.512H217.884V41.352H232.86V93H217.884V73.704H195.42V93H180.54ZM260.156 93V50.184L263.516 53.64H242.684V41.352H292.508V53.64H271.676L275.036 50.184V93H260.156ZM333.323 93V82.92L332.363 80.712V62.664C332.363 59.464 331.371 56.968 329.387 55.176C327.467 53.384 324.491 52.488 320.459 52.488C317.707 52.488 314.987 52.936 312.299 53.832C309.675 54.664 307.435 55.816 305.579 57.288L300.203 46.824C303.019 44.84 306.411 43.304 310.379 42.216C314.347 41.128 318.379 40.584 322.475 40.584C330.347 40.584 336.459 42.44 340.811 46.152C345.163 49.864 347.339 55.656 347.339 63.528V93H333.323ZM317.579 93.768C313.547 93.768 310.091 93.096 307.211 91.752C304.331 90.344 302.123 88.456 300.587 86.088C299.051 83.72 298.283 81.064 298.283 78.12C298.283 75.048 299.019 72.36 300.491 70.056C302.027 67.752 304.427 65.96 307.691 64.68C310.955 63.336 315.211 62.664 320.459 62.664H334.187V71.4H322.091C318.571 71.4 316.139 71.976 314.795 73.128C313.515 74.28 312.875 75.72 312.875 77.448C312.875 79.368 313.611 80.904 315.083 82.056C316.619 83.144 318.699 83.688 321.323 83.688C323.819 83.688 326.059 83.112 328.043 81.96C330.027 80.744 331.467 78.984 332.363 76.68L334.667 83.592C333.579 86.92 331.595 89.448 328.715 91.176C325.835 92.904 322.123 93.768 317.579 93.768ZM398.845 93L381.565 68.52L393.757 61.32L416.509 93H398.845ZM362.269 93V41.352H377.245V93H362.269ZM372.829 73.416V61.416H390.877V73.416H372.829ZM395.197 68.904L381.181 67.368L399.325 41.352H415.261L395.197 68.904ZM436.354 93V50.184L439.714 53.64H418.882V41.352H468.706V53.64H447.874L451.234 50.184V93H436.354ZM531.793 93V41.352H546.673V93H531.793ZM505.777 57.864C512.561 57.928 517.649 59.464 521.041 62.472C524.497 65.416 526.225 69.608 526.225 75.048C526.225 80.744 524.273 85.192 520.369 88.392C516.465 91.528 510.929 93.096 503.761 93.096L478.609 93V41.352H493.489V57.864H505.777ZM502.417 82.44C505.297 82.504 507.505 81.896 509.041 80.616C510.577 79.336 511.345 77.416 511.345 74.856C511.345 72.296 510.577 70.472 509.041 69.384C507.505 68.232 505.297 67.624 502.417 67.56L493.489 67.464V82.44H502.417Z" fill="white"/>
<path d="M547 6L550.818 17.1816L562 21L550.818 24.8184L547 36L543.182 24.8184L532 21L543.182 17.1816L547 6Z" fill="url(#paint0_radial_7_1027)"/>
<path d="M15 116L11.1816 104.818L0 101L11.1816 97.1816L15 86L18.8184 97.1816L30 101L18.8184 104.818L15 116Z" fill="url(#paint1_radial_7_1027)"/>
<g opacity="0.5">
<path d="M51 148L48.9635 142.036L43 140L48.9635 137.964L51 132L53.0365 137.964L59 140L53.0365 142.036L51 148Z" fill="url(#paint2_radial_7_1027)"/>
</g>
<defs>
<radialGradient id="paint0_radial_7_1027" cx="0" cy="0" r="1" gradientUnits="userSpaceOnUse" gradientTransform="translate(547 21) rotate(90) scale(15)">
<stop stop-color="#2EECC5"/>
<stop offset="1" stop-color="#02896D"/>
</radialGradient>
<radialGradient id="paint1_radial_7_1027" cx="0" cy="0" r="1" gradientUnits="userSpaceOnUse" gradientTransform="translate(15 101) rotate(-90) scale(15)">
<stop stop-color="#2EECC5"/>
<stop offset="1" stop-color="#0F826A"/>
</radialGradient>
<radialGradient id="paint2_radial_7_1027" cx="0" cy="0" r="1" gradientUnits="userSpaceOnUse" gradientTransform="translate(51 140) rotate(-90) scale(8)">
<stop stop-color="#2EECC5"/>
<stop offset="1" stop-color="#05B691"/>
</radialGradient>
</defs>
</svg>
