<svg width="50" height="37" viewBox="0 0 50 37" fill="none" xmlns="http://www.w3.org/2000/svg">
<path d="M38.0753 16.4692C41.7089 16.4692 44.6545 13.4463 44.6545 9.71728C44.6545 5.98828 41.7089 2.96533 38.0753 2.96533C34.4417 2.96533 31.4961 5.98828 31.4961 9.71728C31.4961 13.4463 34.4417 16.4692 38.0753 16.4692Z" fill="black"/>
<path d="M15.014 21.5918C6.722 21.5918 0 28.4903 0 37.0001H30.0281C30.0281 28.4903 23.3061 21.5918 15.014 21.5918Z" fill="black"/>
<path d="M38.0751 21.0586C34.9766 21.0586 32.1558 22.2729 30.0361 24.2616C32.1546 26.8832 33.5647 29.9779 34.1669 33.2965H49.9999C49.9999 26.5376 44.6608 21.0586 38.0751 21.0586Z" fill="black"/>
<path d="M15.0142 17.0024C19.5891 17.0024 23.2979 13.1963 23.2979 8.50121C23.2979 3.80612 19.5891 0 15.0142 0C10.4392 0 6.73047 3.80612 6.73047 8.50121C6.73047 13.1963 10.4392 17.0024 15.0142 17.0024Z" fill="black"/>
</svg>
