<svg width="49" height="49" viewBox="0 0 49 49" fill="none" xmlns="http://www.w3.org/2000/svg">
<path d="M11.9554 13.9643C11.4809 13.7088 10.907 13.7215 10.4443 13.9979C9.98158 14.2743 9.69824 14.7735 9.69824 15.3125V34.7084C9.69824 35.5541 10.3838 36.2396 11.2295 36.2396C12.0752 36.2396 12.7607 35.5541 12.7607 34.7084V17.8761L23.7743 23.8065C24.2276 24.0507 24.7731 24.0507 25.2263 23.8065L36.2399 17.8761V34.7084C36.2399 35.5541 36.9255 36.2396 37.7712 36.2396C38.6168 36.2396 39.3024 35.5541 39.3024 34.7084V15.3125C39.3024 14.7735 39.019 14.2743 38.5564 13.9979C38.0937 13.7215 37.5198 13.7088 37.0451 13.9643L24.5003 20.7193L11.9554 13.9643Z" fill="black"/>
<path fill-rule="evenodd" clip-rule="evenodd" d="M35.3426 7.5985C28.1288 6.9535 20.8717 6.9535 13.6577 7.5985L10.5598 7.87549C7.23677 8.17262 4.55183 10.7113 4.0692 14.0125C3.05245 20.9671 3.05245 28.0325 4.0692 34.987C4.55183 38.2882 7.23677 40.8268 10.5598 41.1241L13.6577 41.4009C20.8717 42.0461 28.1288 42.0461 35.3426 41.4009L38.4404 41.1241C41.7637 40.8268 44.4484 38.2882 44.9311 34.987C45.9478 28.0325 45.9478 20.9671 44.9311 14.0125C44.4484 10.7113 41.7637 8.17262 38.4404 7.87549L35.3426 7.5985ZM13.9305 10.6488C20.963 10.0201 28.0373 10.0201 35.0698 10.6488L38.1679 10.9258C40.0791 11.0967 41.6232 12.5568 41.9009 14.4555C42.8747 21.1162 42.8747 27.8833 41.9009 34.544C41.6232 36.4428 40.0791 37.9028 38.1679 38.0736L35.0698 38.3507C28.0373 38.9795 20.963 38.9795 13.9305 38.3507L10.8325 38.0736C8.9213 37.9028 7.37707 36.4428 7.09949 34.544C6.12569 27.8833 6.12569 21.1162 7.09949 14.4555C7.37707 12.5568 8.9213 11.0967 10.8325 10.9258L13.9305 10.6488Z" fill="black"/>
</svg>
