<svg width="359" height="86" viewBox="0 0 359 86" fill="none" xmlns="http://www.w3.org/2000/svg">
<path d="M0 0H359V86H0V0Z" fill="#85B6FF" fill-opacity="0.1"/>
<g opacity="0.4">
<path d="M30.9762 60.6114L32.3774 56H33.1854L31.311 61.7488C31.2577 61.91 31.1982 62.0664 31.1327 62.218C31.0672 62.3665 30.9871 62.4992 30.8925 62.6161C30.7979 62.733 30.6802 62.8262 30.5395 62.8957C30.4012 62.9652 30.2289 63 30.0227 63C29.9645 63 29.8953 62.9953 29.8152 62.9858C29.7352 62.9795 29.683 62.9716 29.6587 62.9621L29.6806 62.2322C29.7073 62.2385 29.7594 62.2449 29.8371 62.2512C29.9147 62.2543 29.9717 62.2559 30.0081 62.2559C30.1464 62.2559 30.2556 62.2196 30.3357 62.1469C30.4157 62.0742 30.48 61.9826 30.5286 61.872C30.5795 61.7583 30.6256 61.643 30.6669 61.5261L30.9762 60.6114ZM29.7861 56L31.2601 60.2986L31.4348 61.1469L30.8452 61.2038L29 56H29.7861Z" fill="white"/>
<path d="M36.803 57.7725V62.9005H36.1297V57.7725H36.803ZM36.5737 60.128V60.8483C36.4378 60.9147 36.2995 60.9747 36.1588 61.0284C36.0205 61.079 35.8737 61.1201 35.7184 61.1517C35.5655 61.1801 35.3993 61.1943 35.2198 61.1943C34.9092 61.1943 34.6399 61.1248 34.4118 60.9858C34.1838 60.8436 34.0079 60.6303 33.8841 60.346C33.7604 60.0585 33.6985 59.6967 33.6985 59.2607V57.763H34.3718V59.2607C34.3718 59.545 34.4046 59.7757 34.4701 59.9526C34.5356 60.1295 34.6314 60.2607 34.7576 60.346C34.8838 60.4281 35.0378 60.4692 35.2198 60.4692C35.3945 60.4692 35.5583 60.455 35.7111 60.4265C35.8664 60.3949 36.0144 60.3539 36.1551 60.3033C36.2983 60.2528 36.4378 60.1943 36.5737 60.128Z" fill="white"/>
<path d="M39.5216 62.9953C39.2474 62.9953 38.9987 62.9352 38.7755 62.8152C38.5547 62.6919 38.3643 62.5197 38.2041 62.2986C38.0464 62.0774 37.9251 61.8152 37.8402 61.5118C37.7553 61.2085 37.7128 60.8768 37.7128 60.5166V60.3175C37.7128 59.9005 37.7601 59.5292 37.8547 59.2038C37.9494 58.8752 38.078 58.5972 38.2405 58.3697C38.4031 58.1422 38.5875 57.97 38.7937 57.8531C39 57.7362 39.2135 57.6777 39.4343 57.6777C39.7157 57.6777 39.9583 57.7409 40.1621 57.8673C40.3684 57.9937 40.537 58.1706 40.668 58.3981C40.7991 58.6224 40.8961 58.8878 40.9592 59.1943C41.0223 59.4976 41.0538 59.8294 41.0538 60.1896V60.5829H38.1131V59.8673H40.3805V59.8009C40.3708 59.5735 40.3344 59.3523 40.2713 59.1374C40.2107 58.9226 40.1136 58.7457 39.9802 58.6066C39.8467 58.4676 39.6648 58.3981 39.4343 58.3981C39.2814 58.3981 39.1407 58.4408 39.0121 58.5261C38.8835 58.6082 38.7731 58.7314 38.6809 58.8957C38.5887 59.06 38.5171 59.2607 38.4662 59.4976C38.4152 59.7346 38.3897 60.0079 38.3897 60.3175V60.5166C38.3897 60.7599 38.4152 60.9889 38.4662 61.2038C38.5196 61.4155 38.596 61.6019 38.6955 61.763C38.7974 61.9242 38.9199 62.0506 39.063 62.1422C39.2086 62.2338 39.3736 62.2796 39.558 62.2796C39.7958 62.2796 39.9972 62.2164 40.1621 62.09C40.3271 61.9637 40.4715 61.7946 40.5952 61.5829L41.0029 62.0047C40.9179 62.1722 40.81 62.3318 40.6789 62.4834C40.5479 62.6351 40.3866 62.7583 40.1949 62.8531C40.0057 62.9479 39.7812 62.9953 39.5216 62.9953Z" fill="white"/>
<path d="M44.5113 59.9953V60.7062H42.4295V59.9953H44.5113ZM42.5715 57.7725V62.9005H41.8982V57.7725H42.5715ZM45.0572 57.7725V62.9005H44.3803V57.7725H45.0572Z" fill="white"/>
<path d="M46.8696 61.5118L48.6857 57.7725H49.3626V62.9005H48.6857V59.1611L46.8696 62.9005H46.2V57.7725H46.8696V61.5118Z" fill="white"/>
<path d="M51.1751 57.7725V62.9005H50.5018V57.7725H51.1751ZM53.7591 57.7725L51.8921 60.7109H50.9494L50.8475 59.9431H51.6191L52.9402 57.7725H53.7591ZM53.0348 62.9005L51.5863 60.5782L52.0194 59.9431L53.8901 62.9005H53.0348Z" fill="white"/>
<path d="M54.2177 60.3934V60.2844C54.2177 59.9147 54.2589 59.5719 54.3414 59.2559C54.4239 58.9368 54.5428 58.6603 54.6981 58.4265C54.8533 58.1896 55.0414 58.0063 55.2622 57.8768C55.483 57.7441 55.7304 57.6777 56.0046 57.6777C56.2812 57.6777 56.5299 57.7441 56.7507 57.8768C56.9739 58.0063 57.1632 58.1896 57.3185 58.4265C57.4762 58.6603 57.5963 58.9368 57.6788 59.2559C57.7612 59.5719 57.8025 59.9147 57.8025 60.2844V60.3934C57.8025 60.763 57.7612 61.1058 57.6788 61.4218C57.5963 61.7378 57.4762 62.0142 57.3185 62.2512C57.1632 62.485 56.9751 62.6682 56.7543 62.8009C56.536 62.9305 56.2885 62.9953 56.0119 62.9953C55.7353 62.9953 55.4866 62.9305 55.2658 62.8009C55.045 62.6682 54.8558 62.485 54.6981 62.2512C54.5428 62.0142 54.4239 61.7378 54.3414 61.4218C54.2589 61.1058 54.2177 60.763 54.2177 60.3934ZM54.8909 60.2844V60.3934C54.8909 60.6493 54.914 60.891 54.9601 61.1185C55.0062 61.3428 55.0753 61.5419 55.1675 61.7156C55.2622 61.8894 55.3798 62.0269 55.5206 62.128C55.6613 62.2259 55.8251 62.2749 56.0119 62.2749C56.1963 62.2749 56.3576 62.2259 56.4959 62.128C56.6367 62.0269 56.7531 61.8894 56.8453 61.7156C56.9375 61.5419 57.0067 61.3428 57.0528 61.1185C57.1013 60.891 57.1256 60.6493 57.1256 60.3934V60.2844C57.1256 60.0316 57.1013 59.793 57.0528 59.5687C57.0067 59.3412 56.9363 59.1406 56.8417 58.9668C56.7495 58.7899 56.633 58.6509 56.4923 58.5498C56.354 58.4487 56.1914 58.3981 56.0046 58.3981C55.8202 58.3981 55.6577 58.4487 55.5169 58.5498C55.3786 58.6509 55.2622 58.7899 55.1675 58.9668C55.0753 59.1406 55.0062 59.3412 54.9601 59.5687C54.914 59.793 54.8909 60.0316 54.8909 60.2844Z" fill="white"/>
<path d="M60.4957 60.6445H59.2037L59.1964 59.9431H60.2518C60.4605 59.9431 60.634 59.9163 60.7723 59.8626C60.913 59.8088 61.0185 59.7283 61.0889 59.6209C61.1593 59.5134 61.1944 59.3807 61.1944 59.2227C61.1944 59.0995 61.1738 58.9921 61.1326 58.9005C61.0938 58.8057 61.0343 58.7283 60.9542 58.6682C60.8742 58.6051 60.7747 58.5592 60.6558 58.5308C60.5394 58.4992 60.4023 58.4834 60.2446 58.4834H59.382V62.9005H58.7087V57.7725H60.2446C60.4945 57.7725 60.7189 57.8009 60.9179 57.8578C61.1192 57.9147 61.2903 58.0016 61.431 58.1185C61.5742 58.2322 61.6833 58.3776 61.7586 58.5545C61.8338 58.7314 61.8714 58.94 61.8714 59.1801C61.8714 59.3349 61.8471 59.4818 61.7986 59.6209C61.7501 59.7599 61.6785 59.8831 61.5839 59.9905C61.4892 60.0979 61.3728 60.1864 61.2345 60.2559C61.0962 60.3223 60.9373 60.3649 60.7577 60.3839L60.4957 60.6445ZM60.4957 62.9005H58.9598L59.2947 62.1896H60.4957C60.6825 62.1896 60.8378 62.1596 60.9615 62.0995C61.0853 62.0363 61.1775 61.9479 61.2381 61.8341C61.3012 61.7172 61.3327 61.5782 61.3327 61.4171C61.3327 61.2559 61.3012 61.1185 61.2381 61.0047C61.1775 60.8878 61.0853 60.7994 60.9615 60.7393C60.8378 60.6761 60.6825 60.6445 60.4957 60.6445H59.473L59.4803 59.9431H60.7577L61.0016 60.2085C61.2175 60.2306 61.4007 60.3002 61.5511 60.4171C61.7015 60.534 61.8156 60.6825 61.8932 60.8626C61.9709 61.0395 62.0097 61.2322 62.0097 61.4408C62.0097 61.6809 61.9745 61.8926 61.9041 62.0758C61.8362 62.2591 61.7367 62.4123 61.6057 62.5355C61.4747 62.6556 61.3158 62.7472 61.1289 62.8104C60.9421 62.8705 60.731 62.9005 60.4957 62.9005Z" fill="white"/>
<path d="M66.6099 60.6445H65.3179L65.3107 59.9431H66.3661C66.5747 59.9431 66.7482 59.9163 66.8865 59.8626C67.0273 59.8088 67.1328 59.7283 67.2032 59.6209C67.2735 59.5134 67.3087 59.3807 67.3087 59.2227C67.3087 59.0995 67.2881 58.9921 67.2468 58.9005C67.208 58.8057 67.1486 58.7283 67.0685 58.6682C66.9884 58.6051 66.889 58.5592 66.7701 58.5308C66.6536 58.4992 66.5165 58.4834 66.3588 58.4834H65.4963V62.9005H64.823V57.7725H66.3588C66.6087 57.7725 66.8331 57.8009 67.0321 57.8578C67.2335 57.9147 67.4045 58.0016 67.5453 58.1185C67.6884 58.2322 67.7976 58.3776 67.8728 58.5545C67.948 58.7314 67.9856 58.94 67.9856 59.1801C67.9856 59.3349 67.9614 59.4818 67.9128 59.6209C67.8643 59.7599 67.7927 59.8831 67.6981 59.9905C67.6035 60.0979 67.487 60.1864 67.3487 60.2559C67.2104 60.3223 67.0515 60.3649 66.872 60.3839L66.6099 60.6445ZM66.6099 62.9005H65.0741L65.4089 62.1896H66.6099C66.7968 62.1896 66.952 62.1596 67.0758 62.0995C67.1995 62.0363 67.2917 61.9479 67.3524 61.8341C67.4155 61.7172 67.447 61.5782 67.447 61.4171C67.447 61.2559 67.4155 61.1185 67.3524 61.0047C67.2917 60.8878 67.1995 60.7994 67.0758 60.7393C66.952 60.6761 66.7968 60.6445 66.6099 60.6445H65.5872L65.5945 59.9431H66.872L67.1158 60.2085C67.3318 60.2306 67.5149 60.3002 67.6654 60.4171C67.8158 60.534 67.9298 60.6825 68.0075 60.8626C68.0851 61.0395 68.1239 61.2322 68.1239 61.4408C68.1239 61.6809 68.0888 61.8926 68.0184 62.0758C67.9505 62.2591 67.851 62.4123 67.72 62.5355C67.5889 62.6556 67.43 62.7472 67.2432 62.8104C67.0564 62.8705 66.8453 62.9005 66.6099 62.9005Z" fill="white"/>
<path d="M70.6024 62.2749C70.7625 62.2749 70.9105 62.2322 71.0464 62.1469C71.1823 62.0616 71.2939 61.9447 71.3812 61.7962C71.4686 61.6445 71.5183 61.4724 71.5304 61.2796H72.171C72.1589 61.5829 72.08 61.8657 71.9344 62.128C71.7913 62.387 71.6032 62.5972 71.3703 62.7583C71.1374 62.9163 70.8814 62.9953 70.6024 62.9953C70.3064 62.9953 70.048 62.9273 69.8272 62.7915C69.6088 62.6556 69.4269 62.4692 69.2813 62.2322C69.1381 61.9953 69.0302 61.7235 68.9574 61.4171C68.887 61.1074 68.8518 60.7804 68.8518 60.436V60.237C68.8518 59.8926 68.887 59.5671 68.9574 59.2607C69.0302 58.951 69.1381 58.6777 69.2813 58.4408C69.4269 58.2038 69.6088 58.0174 69.8272 57.8815C70.048 57.7457 70.3064 57.6777 70.6024 57.6777C70.9105 57.6777 71.1798 57.7599 71.4103 57.9242C71.6408 58.0853 71.8216 58.3065 71.9526 58.5877C72.0861 58.8657 72.1589 59.1817 72.171 59.5355H71.5304C71.5183 59.3239 71.4722 59.1327 71.3921 58.9621C71.3145 58.7915 71.2078 58.6556 71.0719 58.5545C70.9384 58.4502 70.7819 58.3981 70.6024 58.3981C70.3962 58.3981 70.2227 58.4518 70.082 58.5592C69.9437 58.6635 69.8333 58.8057 69.7508 58.9858C69.6707 59.1627 69.6125 59.3602 69.5761 59.5782C69.5421 59.793 69.5251 60.0126 69.5251 60.237V60.436C69.5251 60.6603 69.5421 60.8815 69.5761 61.0995C69.61 61.3175 69.6671 61.515 69.7471 61.6919C69.8296 61.8689 69.94 62.0111 70.0783 62.1185C70.219 62.2227 70.3937 62.2749 70.6024 62.2749Z" fill="white"/>
<path d="M74.5621 62.9953C74.2879 62.9953 74.0392 62.9352 73.816 62.8152C73.5952 62.6919 73.4048 62.5197 73.2446 62.2986C73.0869 62.0774 72.9656 61.8152 72.8807 61.5118C72.7958 61.2085 72.7533 60.8768 72.7533 60.5166V60.3175C72.7533 59.9005 72.8006 59.5292 72.8952 59.2038C72.9899 58.8752 73.1185 58.5972 73.281 58.3697C73.4436 58.1422 73.628 57.97 73.8342 57.8531C74.0404 57.7362 74.254 57.6777 74.4748 57.6777C74.7562 57.6777 74.9988 57.7409 75.2026 57.8673C75.4089 57.9937 75.5775 58.1706 75.7085 58.3981C75.8395 58.6224 75.9366 58.8878 75.9997 59.1943C76.0628 59.4976 76.0943 59.8294 76.0943 60.1896V60.5829H73.1536V59.8673H75.421V59.8009C75.4113 59.5735 75.3749 59.3523 75.3118 59.1374C75.2512 58.9226 75.1541 58.7457 75.0207 58.6066C74.8872 58.4676 74.7052 58.3981 74.4748 58.3981C74.3219 58.3981 74.1812 58.4408 74.0526 58.5261C73.924 58.6082 73.8136 58.7314 73.7214 58.8957C73.6292 59.06 73.5576 59.2607 73.5067 59.4976C73.4557 59.7346 73.4302 60.0079 73.4302 60.3175V60.5166C73.4302 60.7599 73.4557 60.9889 73.5067 61.2038C73.56 61.4155 73.6365 61.6019 73.7359 61.763C73.8378 61.9242 73.9604 62.0506 74.1035 62.1422C74.2491 62.2338 74.4141 62.2796 74.5985 62.2796C74.8363 62.2796 75.0377 62.2164 75.2026 62.09C75.3676 61.9637 75.512 61.7946 75.6357 61.5829L76.0433 62.0047C75.9584 62.1722 75.8505 62.3318 75.7194 62.4834C75.5884 62.6351 75.4271 62.7583 75.2354 62.8531C75.0461 62.9479 74.8217 62.9953 74.5621 62.9953Z" fill="white"/>
<path d="M79.4244 57.7725V58.4976H77.6047V62.9005H76.9314V57.7725H79.4244Z" fill="white"/>
<path d="M79.7592 60.3934V60.2844C79.7592 59.9147 79.8005 59.5719 79.883 59.2559C79.9654 58.9368 80.0843 58.6603 80.2396 58.4265C80.3949 58.1896 80.5829 58.0063 80.8037 57.8768C81.0245 57.7441 81.272 57.6777 81.5462 57.6777C81.8228 57.6777 82.0715 57.7441 82.2923 57.8768C82.5155 58.0063 82.7047 58.1896 82.86 58.4265C83.0177 58.6603 83.1378 58.9368 83.2203 59.2559C83.3028 59.5719 83.3441 59.9147 83.3441 60.2844V60.3934C83.3441 60.763 83.3028 61.1058 83.2203 61.4218C83.1378 61.7378 83.0177 62.0142 82.86 62.2512C82.7047 62.485 82.5167 62.6682 82.2959 62.8009C82.0775 62.9305 81.8301 62.9953 81.5535 62.9953C81.2769 62.9953 81.0282 62.9305 80.8074 62.8009C80.5866 62.6682 80.3973 62.485 80.2396 62.2512C80.0843 62.0142 79.9654 61.7378 79.883 61.4218C79.8005 61.1058 79.7592 60.763 79.7592 60.3934ZM80.4325 60.2844V60.3934C80.4325 60.6493 80.4556 60.891 80.5017 61.1185C80.5478 61.3428 80.6169 61.5419 80.7091 61.7156C80.8037 61.8894 80.9214 62.0269 81.0621 62.128C81.2029 62.2259 81.3666 62.2749 81.5535 62.2749C81.7379 62.2749 81.8992 62.2259 82.0375 62.128C82.1782 62.0269 82.2947 61.8894 82.3869 61.7156C82.4791 61.5419 82.5482 61.3428 82.5943 61.1185C82.6429 60.891 82.6671 60.6493 82.6671 60.3934V60.2844C82.6671 60.0316 82.6429 59.793 82.5943 59.5687C82.5482 59.3412 82.4779 59.1406 82.3832 58.9668C82.291 58.7899 82.1746 58.6509 82.0339 58.5498C81.8956 58.4487 81.733 58.3981 81.5462 58.3981C81.3618 58.3981 81.1992 58.4487 81.0585 58.5498C80.9202 58.6509 80.8037 58.7899 80.7091 58.9668C80.6169 59.1406 80.5478 59.3412 80.5017 59.5687C80.4556 59.793 80.4325 60.0316 80.4325 60.2844Z" fill="white"/>
<path d="M84.1593 62.436C84.1593 62.2875 84.1945 62.1627 84.2648 62.0616C84.3376 61.9573 84.442 61.9052 84.5778 61.9052C84.7137 61.9052 84.8168 61.9573 84.8872 62.0616C84.96 62.1627 84.9964 62.2875 84.9964 62.436C84.9964 62.5814 84.96 62.7046 84.8872 62.8057C84.8168 62.9068 84.7137 62.9573 84.5778 62.9573C84.442 62.9573 84.3376 62.9068 84.2648 62.8057C84.1945 62.7046 84.1593 62.5814 84.1593 62.436ZM84.1629 58.2512C84.1629 58.1027 84.1981 57.9779 84.2685 57.8768C84.3413 57.7725 84.4456 57.7204 84.5815 57.7204C84.7173 57.7204 84.8205 57.7725 84.8908 57.8768C84.9636 57.9779 85 58.1027 85 58.2512C85 58.3965 84.9636 58.5197 84.8908 58.6209C84.8205 58.722 84.7173 58.7725 84.5815 58.7725C84.4456 58.7725 84.3413 58.722 84.2685 58.6209C84.1981 58.5197 84.1629 58.3965 84.1629 58.2512Z" fill="white"/>
</g>
<g opacity="0.4">
<path d="M30.0454 72.14L31.4957 67H32.332L30.392 73.4078C30.3368 73.5874 30.2752 73.7618 30.2074 73.9308C30.1396 74.0963 30.0567 74.2442 29.9588 74.3745C29.8609 74.5048 29.7391 74.6087 29.5934 74.6862C29.4503 74.7637 29.272 74.8024 29.0585 74.8024C28.9982 74.8024 28.9267 74.7971 28.8438 74.7866C28.7609 74.7795 28.7069 74.7707 28.6818 74.7602L28.7044 73.9466C28.732 73.9537 28.786 73.9607 28.8664 73.9678C28.9468 73.9713 29.0058 73.9731 29.0434 73.9731C29.1866 73.9731 29.2996 73.9326 29.3825 73.8516C29.4653 73.7706 29.5319 73.6684 29.5821 73.5452C29.6349 73.4184 29.6826 73.2898 29.7253 73.1595L30.0454 72.14ZM28.8137 67L30.3393 71.7913L30.5201 72.7369L29.9098 72.8003L28 67H28.8137Z" fill="white"/>
<path d="M34.4678 73.9942C34.6336 73.9942 34.7868 73.9466 34.9274 73.8516C35.068 73.7565 35.1836 73.6262 35.274 73.4606C35.3644 73.2916 35.4159 73.0997 35.4284 72.8848H36.0914C36.0788 73.2229 35.9972 73.5381 35.8465 73.8304C35.6984 74.1192 35.5037 74.3534 35.2627 74.533C35.0216 74.7091 34.7566 74.7971 34.4678 74.7971C34.1615 74.7971 33.894 74.7214 33.6655 74.57C33.4395 74.4186 33.2511 74.2108 33.1004 73.9466C32.9523 73.6825 32.8405 73.3796 32.7652 73.038C32.6924 72.6929 32.6559 72.3284 32.6559 71.9445V71.7227C32.6559 71.3388 32.6924 70.9761 32.7652 70.6344C32.8405 70.2893 32.9523 69.9847 33.1004 69.7205C33.2511 69.4564 33.4395 69.2486 33.6655 69.0972C33.894 68.9458 34.1615 68.87 34.4678 68.87C34.7868 68.87 35.0655 68.9616 35.3041 69.1447C35.5427 69.3244 35.7298 69.5709 35.8654 69.8843C36.0035 70.1942 36.0788 70.5464 36.0914 70.9408H35.4284C35.4159 70.7049 35.3681 70.4918 35.2853 70.3016C35.2049 70.1115 35.0944 69.96 34.9538 69.8473C34.8157 69.7311 34.6537 69.673 34.4678 69.673C34.2544 69.673 34.0748 69.7329 33.9292 69.8526C33.786 69.9688 33.6718 70.1273 33.5864 70.3281C33.5035 70.5253 33.4432 70.7454 33.4056 70.9884C33.3704 71.2279 33.3528 71.4726 33.3528 71.7227V71.9445C33.3528 72.1946 33.3704 72.4411 33.4056 72.6841C33.4407 72.9271 33.4997 73.1472 33.5826 73.3444C33.668 73.5416 33.7823 73.7001 33.9254 73.8199C34.0711 73.9361 34.2519 73.9942 34.4678 73.9942Z" fill="white"/>
<path d="M39.5909 68.9757V69.7839H37.5304V68.9757H39.5909ZM37.6321 68.9757V74.6915H36.9352V68.9757H37.6321ZM40.2087 68.9757V74.6915H39.508V68.9757H40.2087Z" fill="white"/>
<path d="M43.0188 74.7971C42.735 74.7971 42.4776 74.7302 42.2466 74.5964C42.018 74.4591 41.8209 74.2671 41.6552 74.0206C41.4919 73.7741 41.3664 73.4818 41.2785 73.1437C41.1906 72.8056 41.1466 72.4358 41.1466 72.0343V71.8125C41.1466 71.3476 41.1956 70.9338 41.2935 70.5711C41.3915 70.2048 41.5246 69.8949 41.6928 69.6413C41.8611 69.3877 42.0519 69.1958 42.2654 69.0655C42.4789 68.9352 42.6999 68.87 42.9284 68.87C43.2197 68.87 43.4708 68.9405 43.6818 69.0814C43.8952 69.2222 44.0698 69.4194 44.2054 69.673C44.341 69.923 44.4414 70.2189 44.5067 70.5605C44.572 70.8986 44.6047 71.2684 44.6047 71.6698V72.1083H41.561V71.3106H43.9078V71.2367C43.8977 70.9831 43.8601 70.7366 43.7948 70.4971C43.732 70.2576 43.6315 70.0604 43.4934 69.9054C43.3553 69.7505 43.167 69.673 42.9284 69.673C42.7702 69.673 42.6245 69.7205 42.4914 69.8156C42.3583 69.9072 42.2441 70.0445 42.1486 70.2277C42.0532 70.4108 41.9791 70.6344 41.9264 70.8986C41.8736 71.1627 41.8473 71.4673 41.8473 71.8125V72.0343C41.8473 72.3055 41.8736 72.5608 41.9264 72.8003C41.9816 73.0363 42.0607 73.2441 42.1637 73.4237C42.2692 73.6033 42.396 73.7441 42.5442 73.8463C42.6948 73.9484 42.8656 73.9995 43.0565 73.9995C43.3026 73.9995 43.511 73.929 43.6818 73.7882C43.8525 73.6473 44.002 73.4589 44.13 73.2229L44.5519 73.6931C44.464 73.8797 44.3523 74.0576 44.2167 74.2266C44.0811 74.3957 43.9141 74.533 43.7157 74.6387C43.5198 74.7443 43.2875 74.7971 43.0188 74.7971Z" fill="white"/>
<path d="M45.4786 68.9757H46.1755V73.8885H47.6672V68.9757H48.3678V73.8885H49.8558V68.9757H50.5527V74.6915H45.4786V68.9757Z" fill="white"/>
<path d="M54.4289 71.4532V72.2456H52.2742V71.4532H54.4289ZM52.4211 68.9757V74.6915H51.7242V68.9757H52.4211ZM54.9939 68.9757V74.6915H54.2932V68.9757H54.9939Z" fill="white"/>
<path d="M55.9319 71.897V71.7755C55.9319 71.3634 55.9746 70.9813 56.0599 70.6292C56.1453 70.2735 56.2684 69.9653 56.4291 69.7047C56.5898 69.4406 56.7845 69.2363 57.013 69.0919C57.2415 68.944 57.4977 68.87 57.7814 68.87C58.0677 68.87 58.3251 68.944 58.5537 69.0919C58.7847 69.2363 58.9806 69.4406 59.1413 69.7047C59.3045 69.9653 59.4288 70.2735 59.5142 70.6292C59.5996 70.9813 59.6423 71.3634 59.6423 71.7755V71.897C59.6423 72.309 59.5996 72.6911 59.5142 73.0433C59.4288 73.3955 59.3045 73.7036 59.1413 73.9678C58.9806 74.2284 58.786 74.4326 58.5574 74.5806C58.3314 74.725 58.0753 74.7971 57.789 74.7971C57.5027 74.7971 57.2453 74.725 57.0167 74.5806C56.7882 74.4326 56.5923 74.2284 56.4291 73.9678C56.2684 73.7036 56.1453 73.3955 56.0599 73.0433C55.9746 72.6911 55.9319 72.309 55.9319 71.897ZM56.6288 71.7755V71.897C56.6288 72.1823 56.6526 72.4517 56.7003 72.7052C56.748 72.9553 56.8196 73.1771 56.915 73.3708C57.013 73.5645 57.1348 73.7177 57.2804 73.8304C57.4261 73.9396 57.5956 73.9942 57.789 73.9942C57.9798 73.9942 58.1468 73.9396 58.29 73.8304C58.4356 73.7177 58.5562 73.5645 58.6516 73.3708C58.747 73.1771 58.8186 72.9553 58.8663 72.7052C58.9165 72.4517 58.9417 72.1823 58.9417 71.897V71.7755C58.9417 71.4937 58.9165 71.2279 58.8663 70.9778C58.8186 70.7242 58.7458 70.5006 58.6478 70.3069C58.5524 70.1097 58.4319 69.9547 58.2862 69.842C58.1431 69.7294 57.9748 69.673 57.7814 69.673C57.5906 69.673 57.4223 69.7294 57.2767 69.842C57.1335 69.9547 57.013 70.1097 56.915 70.3069C56.8196 70.5006 56.748 70.7242 56.7003 70.9778C56.6526 71.2279 56.6288 71.4937 56.6288 71.7755Z" fill="white"/>
<path d="M63.9517 71.9604H63.2021V71.3582H63.8952C64.0885 71.3582 64.2417 71.3247 64.3547 71.2578C64.4678 71.1874 64.5481 71.0905 64.5958 70.9672C64.6435 70.844 64.6674 70.6996 64.6674 70.5341C64.6674 70.3862 64.6398 70.2471 64.5845 70.1167C64.5318 69.9829 64.4464 69.8755 64.3284 69.7945C64.2103 69.71 64.0521 69.6677 63.8537 69.6677C63.693 69.6677 63.5474 69.7082 63.4168 69.7892C63.2862 69.8667 63.182 69.9741 63.1041 70.1115C63.0288 70.2453 62.9911 70.3967 62.9911 70.5658H62.2942C62.2942 70.2171 62.3645 69.9178 62.5052 69.6677C62.6483 69.4142 62.8379 69.2187 63.074 69.0814C63.3126 68.944 63.5725 68.8753 63.8537 68.8753C64.0898 68.8753 64.3008 68.9123 64.4866 68.9863C64.6749 69.0567 64.8344 69.1624 64.965 69.3032C65.0956 69.4406 65.1948 69.6131 65.2626 69.8209C65.3329 70.0252 65.3681 70.2629 65.3681 70.5341C65.3681 70.7278 65.3354 70.9109 65.2701 71.0835C65.2048 71.256 65.1106 71.4092 64.9876 71.5431C64.8645 71.6734 64.7151 71.7755 64.5393 71.8494C64.366 71.9234 64.1702 71.9604 63.9517 71.9604ZM63.2021 71.5906H63.9517C64.1953 71.5906 64.41 71.6241 64.5958 71.691C64.7817 71.7544 64.9374 71.8494 65.0629 71.9762C65.1885 72.103 65.2827 72.2597 65.3455 72.4464C65.4107 72.6295 65.4434 72.8408 65.4434 73.0803C65.4434 73.3479 65.4045 73.5892 65.3266 73.804C65.2513 74.0153 65.1433 74.1949 65.0027 74.3428C64.862 74.4908 64.6938 74.6035 64.4979 74.6809C64.3045 74.7584 64.0898 74.7971 63.8537 74.7971C63.5901 74.7971 63.3339 74.7338 63.0853 74.607C62.8367 74.4802 62.632 74.2847 62.4713 74.0206C62.3106 73.7529 62.2302 73.4131 62.2302 73.0011H62.9271C62.9271 73.1736 62.966 73.3374 63.0439 73.4923C63.1217 73.6473 63.2297 73.7723 63.3678 73.8674C63.5084 73.9625 63.6704 74.01 63.8537 74.01C64.0496 74.01 64.2129 73.9678 64.3434 73.8833C64.474 73.7987 64.572 73.686 64.6373 73.5452C64.7051 73.4043 64.739 73.2511 64.739 73.0856C64.739 72.8708 64.7088 72.6982 64.6486 72.5679C64.5883 72.4376 64.4954 72.3425 64.3698 72.2826C64.2468 72.2192 64.0885 72.1875 63.8952 72.1875H63.2021V71.5906Z" fill="white"/>
<path d="M68.7508 73.7142V70.7718C68.7508 70.5464 68.7181 70.3509 68.6528 70.1854C68.59 70.0164 68.4946 69.8861 68.3665 69.7945C68.2385 69.7029 68.0803 69.6572 67.8919 69.6572C67.7161 69.6572 67.5617 69.6994 67.4286 69.7839C67.298 69.8685 67.195 69.9794 67.1197 70.1167C67.0469 70.2541 67.0104 70.402 67.0104 70.5605H66.3136C66.3136 70.3562 66.3512 70.1537 66.4266 69.953C66.5019 69.7522 66.6099 69.5709 66.7505 69.4089C66.8937 69.2434 67.0644 69.113 67.2628 69.018C67.4637 68.9194 67.6872 68.87 67.9333 68.87C68.2297 68.87 68.4908 68.9405 68.7169 69.0814C68.9454 69.2222 69.1237 69.4353 69.2518 69.7205C69.3824 70.0023 69.4477 70.3562 69.4477 70.7824V73.4448C69.4477 73.635 69.459 73.8375 69.4816 74.0523C69.5067 74.2671 69.5431 74.452 69.5908 74.607V74.6915H68.8638C68.8286 74.5788 68.801 74.4291 68.7809 74.2425C68.7608 74.0523 68.7508 73.8762 68.7508 73.7142ZM68.8713 71.2261L68.8788 71.9128H68.1744C67.976 71.9128 67.799 71.9357 67.6433 71.9815C67.4876 72.0238 67.357 72.0889 67.2515 72.177C67.146 72.265 67.0657 72.3759 67.0104 72.5098C66.9552 72.6401 66.9276 72.7933 66.9276 72.9694C66.9276 73.149 66.9564 73.3127 67.0142 73.4606C67.072 73.6086 67.1586 73.7265 67.2741 73.8146C67.3922 73.8991 67.5366 73.9414 67.7073 73.9414C67.9208 73.9414 68.1091 73.878 68.2724 73.7512C68.4356 73.6244 68.5649 73.4694 68.6604 73.2863C68.7583 73.1032 68.811 72.9253 68.8186 72.7528L69.1162 73.2229C69.0986 73.3708 69.0509 73.5346 68.973 73.7142C68.8952 73.8938 68.7909 74.0664 68.6604 74.2319C68.5323 74.3939 68.3791 74.5295 68.2008 74.6387C68.025 74.7443 67.8266 74.7971 67.6056 74.7971C67.3294 74.7971 67.087 74.7214 66.8786 74.57C66.6727 74.4186 66.5119 74.2161 66.3964 73.9625C66.2834 73.7054 66.2269 73.4184 66.2269 73.1014C66.2269 72.795 66.2696 72.5256 66.355 72.2932C66.4404 72.0572 66.5634 71.8618 66.7242 71.7068C66.8849 71.5483 67.0782 71.4286 67.3043 71.3476C67.5303 71.2666 67.7827 71.2261 68.0614 71.2261H68.8713Z" fill="white"/>
<path d="M71.301 68.9757V74.6915H70.6041V68.9757H71.301ZM73.9755 68.9757L72.0431 72.2509H71.0674L70.962 71.3951H71.7606L73.128 68.9757H73.9755ZM73.2259 74.6915L71.7267 72.103L72.1749 71.3951L74.1111 74.6915H73.2259Z" fill="white"/>
<path d="M74.4501 71.897V71.7755C74.4501 71.3634 74.4928 70.9813 74.5782 70.6292C74.6636 70.2735 74.7867 69.9653 74.9474 69.7047C75.1081 69.4406 75.3027 69.2363 75.5313 69.0919C75.7598 68.944 76.0159 68.87 76.2997 68.87C76.586 68.87 76.8434 68.944 77.0719 69.0919C77.303 69.2363 77.4989 69.4406 77.6596 69.7047C77.8228 69.9653 77.9471 70.2735 78.0325 70.6292C78.1179 70.9813 78.1606 71.3634 78.1606 71.7755V71.897C78.1606 72.309 78.1179 72.6911 78.0325 73.0433C77.9471 73.3955 77.8228 73.7036 77.6596 73.9678C77.4989 74.2284 77.3042 74.4326 77.0757 74.5806C76.8497 74.725 76.5935 74.7971 76.3073 74.7971C76.021 74.7971 75.7636 74.725 75.535 74.5806C75.3065 74.4326 75.1106 74.2284 74.9474 73.9678C74.7867 73.7036 74.6636 73.3955 74.5782 73.0433C74.4928 72.6911 74.4501 72.309 74.4501 71.897ZM75.147 71.7755V71.897C75.147 72.1823 75.1709 72.4517 75.2186 72.7052C75.2663 72.9553 75.3379 73.1771 75.4333 73.3708C75.5313 73.5645 75.6531 73.7177 75.7987 73.8304C75.9444 73.9396 76.1139 73.9942 76.3073 73.9942C76.4981 73.9942 76.6651 73.9396 76.8083 73.8304C76.9539 73.7177 77.0745 73.5645 77.1699 73.3708C77.2653 73.1771 77.3369 72.9553 77.3846 72.7052C77.4348 72.4517 77.4599 72.1823 77.4599 71.897V71.7755C77.4599 71.4937 77.4348 71.2279 77.3846 70.9778C77.3369 70.7242 77.2641 70.5006 77.1661 70.3069C77.0707 70.1097 76.9501 69.9547 76.8045 69.842C76.6613 69.7294 76.4931 69.673 76.2997 69.673C76.1089 69.673 75.9406 69.7294 75.7949 69.842C75.6518 69.9547 75.5313 70.1097 75.4333 70.3069C75.3379 70.5006 75.2663 70.7242 75.2186 70.9778C75.1709 71.2279 75.147 71.4937 75.147 71.7755Z" fill="white"/>
<path d="M81.7995 71.4532V72.2456H79.6448V71.4532H81.7995ZM79.7917 68.9757V74.6915H79.0948V68.9757H79.7917ZM82.3645 68.9757V74.6915H81.6638V68.9757H82.3645Z" fill="white"/>
<path d="M86.5609 68.9757V74.6915H85.864V68.9757H86.5609ZM86.3235 71.6012V72.4041C86.1829 72.4781 86.0398 72.545 85.8941 72.6049C85.751 72.6612 85.599 72.707 85.4383 72.7422C85.2801 72.7739 85.1081 72.7898 84.9222 72.7898C84.6008 72.7898 84.322 72.7123 84.086 72.5573C83.8499 72.3988 83.6679 72.1611 83.5398 71.8442C83.4117 71.5237 83.3477 71.1204 83.3477 70.6344V68.9651H84.0445V70.6344C84.0445 70.9514 84.0784 71.2085 84.1463 71.4057C84.2141 71.6029 84.3133 71.7491 84.4438 71.8442C84.5744 71.9357 84.7339 71.9815 84.9222 71.9815C85.1031 71.9815 85.2726 71.9657 85.4308 71.934C85.5915 71.8987 85.7447 71.853 85.8903 71.7966C86.0385 71.7403 86.1829 71.6751 86.3235 71.6012Z" fill="white"/>
<path d="M88.4368 73.1437L90.3165 68.9757H91.0172V74.6915H90.3165V70.5235L88.4368 74.6915H87.7437V68.9757H88.4368V73.1437Z" fill="white"/>
<path d="M94.8594 68.9757V69.7839H92.8893V68.9757H94.8594ZM95.4734 68.9757V74.6915H94.7766V68.9757H95.4734ZM92.7198 68.9757H93.4205L93.315 71.7332C93.2974 72.1594 93.2685 72.5362 93.2283 72.8637C93.1907 73.1877 93.1379 73.4659 93.0701 73.6984C93.0048 73.9308 92.922 74.121 92.8215 74.2689C92.7236 74.4133 92.6055 74.5207 92.4674 74.5911C92.3293 74.658 92.1698 74.6915 91.989 74.6915H91.7705V73.8304L91.9212 73.8146C92.0292 73.804 92.1209 73.7688 92.1962 73.7089C92.2741 73.6491 92.3394 73.561 92.3921 73.4448C92.4448 73.3251 92.4875 73.1719 92.5202 72.9852C92.5553 72.7986 92.5817 72.5767 92.5993 72.3196C92.6194 72.0625 92.6344 71.7632 92.6445 71.4216L92.7198 68.9757Z" fill="white"/>
<path d="M97.3494 73.1437L99.2291 68.9757H99.9297V74.6915H99.2291V70.5235L97.3494 74.6915H96.6563V68.9757H97.3494V73.1437Z" fill="white"/>
<path d="M103.719 68.9757V74.6915H103.022V68.9757H103.719ZM106.394 68.9757L104.461 72.2509H103.486L103.38 71.3951H104.179L105.546 68.9757H106.394ZM105.644 74.6915L104.145 72.103L104.593 71.3951L106.529 74.6915H105.644Z" fill="white"/>
<path d="M108.281 74.0998L109.415 68.9757H110.161L108.526 75.5737C108.488 75.7146 108.438 75.866 108.375 76.028C108.315 76.1935 108.237 76.3502 108.142 76.4982C108.046 76.6461 107.931 76.7658 107.795 76.8574C107.662 76.9525 107.503 77 107.317 77C107.261 77 107.191 76.9894 107.106 76.9683C107.02 76.9472 106.96 76.9296 106.925 76.9155L106.921 76.1231C106.941 76.1266 106.973 76.1301 107.015 76.1336C107.061 76.1407 107.092 76.1442 107.11 76.1442C107.268 76.1442 107.402 76.1143 107.513 76.0544C107.623 75.9981 107.716 75.9012 107.791 75.7639C107.869 75.63 107.936 75.4451 107.991 75.2092L108.281 74.0998ZM107.449 68.9757L108.507 73.4131L108.688 74.4432L108.187 74.8024L106.688 68.9757H107.449Z" fill="white"/>
<path d="M111.487 70.0745V76.8891H110.786V68.9757H111.426L111.487 70.0745ZM114.233 71.7861V71.897C114.233 72.3126 114.198 72.6982 114.127 73.0539C114.057 73.4061 113.954 73.7124 113.818 73.9731C113.685 74.2337 113.521 74.4362 113.325 74.5806C113.129 74.725 112.904 74.7971 112.651 74.7971C112.392 74.7971 112.164 74.7373 111.965 74.6175C111.767 74.4978 111.598 74.3235 111.46 74.0946C111.322 73.8656 111.212 73.5909 111.129 73.2705C111.048 72.95 110.993 72.589 110.963 72.1875V71.5959C110.993 71.1733 111.05 70.7947 111.133 70.4601C111.215 70.1256 111.325 69.8403 111.46 69.6043C111.598 69.3649 111.765 69.1835 111.961 69.0602C112.157 68.9334 112.383 68.87 112.639 68.87C112.896 68.87 113.123 68.9405 113.321 69.0814C113.52 69.2187 113.687 69.4159 113.822 69.673C113.958 69.9301 114.06 70.2382 114.127 70.5975C114.198 70.9532 114.233 71.3494 114.233 71.7861ZM113.532 71.897V71.7861C113.532 71.5008 113.511 71.2331 113.468 70.9831C113.425 70.7295 113.359 70.5077 113.268 70.3175C113.181 70.1238 113.068 69.9724 112.929 69.8632C112.791 69.7505 112.627 69.6941 112.436 69.6941C112.26 69.6941 112.107 69.7364 111.976 69.8209C111.848 69.9054 111.739 70.0199 111.649 70.1643C111.558 70.3052 111.484 70.4672 111.426 70.6503C111.371 70.8299 111.33 71.0166 111.302 71.2102V72.5784C111.352 72.825 111.423 73.0574 111.513 73.2758C111.603 73.4906 111.724 73.6649 111.875 73.7987C112.025 73.929 112.215 73.9942 112.444 73.9942C112.632 73.9942 112.794 73.9396 112.929 73.8304C113.068 73.7177 113.181 73.5645 113.268 73.3708C113.359 73.1771 113.425 72.9553 113.468 72.7052C113.511 72.4517 113.532 72.1823 113.532 71.897Z" fill="white"/>
<path d="M116.753 73.9942C116.919 73.9942 117.072 73.9466 117.212 73.8516C117.353 73.7565 117.469 73.6262 117.559 73.4606C117.649 73.2916 117.701 73.0997 117.713 72.8848H118.376C118.364 73.2229 118.282 73.5381 118.132 73.8304C117.983 74.1192 117.789 74.3534 117.548 74.533C117.307 74.7091 117.042 74.7971 116.753 74.7971C116.447 74.7971 116.179 74.7214 115.951 74.57C115.725 74.4186 115.536 74.2108 115.385 73.9466C115.237 73.6825 115.126 73.3796 115.05 73.038C114.977 72.6929 114.941 72.3284 114.941 71.9445V71.7227C114.941 71.3388 114.977 70.9761 115.05 70.6344C115.126 70.2893 115.237 69.9847 115.385 69.7205C115.536 69.4564 115.725 69.2486 115.951 69.0972C116.179 68.9458 116.447 68.87 116.753 68.87C117.072 68.87 117.351 68.9616 117.589 69.1447C117.828 69.3244 118.015 69.5709 118.15 69.8843C118.289 70.1942 118.364 70.5464 118.376 70.9408H117.713C117.701 70.7049 117.653 70.4918 117.57 70.3016C117.49 70.1115 117.379 69.96 117.239 69.8473C117.101 69.7311 116.939 69.673 116.753 69.673C116.539 69.673 116.36 69.7329 116.214 69.8526C116.071 69.9688 115.957 70.1273 115.871 70.3281C115.789 70.5253 115.728 70.7454 115.691 70.9884C115.655 71.2279 115.638 71.4726 115.638 71.7227V71.9445C115.638 72.1946 115.655 72.4411 115.691 72.6841C115.726 72.9271 115.785 73.1472 115.868 73.3444C115.953 73.5416 116.067 73.7001 116.21 73.8199C116.356 73.9361 116.537 73.9942 116.753 73.9942Z" fill="white"/>
<path d="M119.13 74.1738C119.13 74.0083 119.166 73.8692 119.239 73.7565C119.314 73.6403 119.422 73.5821 119.563 73.5821C119.704 73.5821 119.81 73.6403 119.883 73.7565C119.959 73.8692 119.996 74.0083 119.996 74.1738C119.996 74.3358 119.959 74.4731 119.883 74.5858C119.81 74.6985 119.704 74.7549 119.563 74.7549C119.422 74.7549 119.314 74.6985 119.239 74.5858C119.166 74.4731 119.13 74.3358 119.13 74.1738ZM119.134 69.5092C119.134 69.3437 119.17 69.2046 119.243 69.0919C119.318 68.9757 119.426 68.9176 119.567 68.9176C119.707 68.9176 119.814 68.9757 119.887 69.0919C119.962 69.2046 120 69.3437 120 69.5092C120 69.6712 119.962 69.8086 119.887 69.9213C119.814 70.034 119.707 70.0903 119.567 70.0903C119.426 70.0903 119.318 70.034 119.243 69.9213C119.17 69.8086 119.134 69.6712 119.134 69.5092Z" fill="white"/>
</g>
<path d="M170.095 61.984V63.1925H166.054L166 62.2567L168.338 57.107H169.22L168.265 59.3262L167.102 61.984H170.095ZM169.459 57.107V64.893H168.35V57.107H169.459Z" fill="white"/>
<path d="M174.47 60.3155V61.6631C174.47 62.2478 174.425 62.7522 174.335 63.1765C174.246 63.5971 174.116 63.943 173.946 64.2139C173.779 64.4813 173.58 64.6791 173.349 64.8075C173.118 64.9358 172.861 65 172.579 65C172.353 65 172.142 64.9608 171.947 64.8824C171.752 64.8004 171.576 64.6738 171.42 64.5027C171.265 64.3316 171.132 64.1159 171.019 63.8556C170.909 63.5918 170.824 63.2781 170.765 62.9144C170.706 62.5508 170.676 62.1337 170.676 61.6631V60.3155C170.676 59.7308 170.721 59.2299 170.811 58.8128C170.903 58.3922 171.033 58.0481 171.2 57.7807C171.369 57.5134 171.57 57.3173 171.801 57.1925C172.032 57.0642 172.289 57 172.571 57C172.797 57 173.007 57.041 173.199 57.123C173.394 57.2014 173.57 57.3244 173.727 57.492C173.883 57.6595 174.017 57.8752 174.127 58.139C174.238 58.3993 174.323 58.7112 174.382 59.0749C174.441 59.4349 174.47 59.8485 174.47 60.3155ZM173.357 61.8663V60.107C173.357 59.8253 173.345 59.5793 173.322 59.369C173.302 59.1586 173.27 58.9804 173.226 58.8342C173.182 58.6845 173.128 58.5633 173.064 58.4706C173 58.3779 172.927 58.3102 172.845 58.2674C172.763 58.2246 172.671 58.2032 172.571 58.2032C172.445 58.2032 172.334 58.2371 172.236 58.3048C172.141 58.3725 172.06 58.4813 171.993 58.631C171.927 58.7772 171.875 58.9733 171.839 59.2193C171.806 59.4617 171.789 59.7576 171.789 60.107V61.8663C171.789 62.148 171.8 62.3957 171.82 62.6096C171.843 62.8235 171.877 63.0071 171.92 63.1604C171.967 63.3102 172.02 63.4332 172.082 63.5294C172.146 63.6221 172.219 63.6898 172.302 63.7326C172.386 63.7754 172.479 63.7968 172.579 63.7968C172.702 63.7968 172.811 63.7629 172.906 63.6952C173.004 63.6239 173.086 63.5134 173.153 63.3636C173.222 63.2103 173.274 63.0107 173.307 62.7647C173.34 62.5187 173.357 62.2193 173.357 61.8663Z" fill="white"/>
<path d="M179 60.3155V61.6631C179 62.2478 178.955 62.7522 178.865 63.1765C178.775 63.5971 178.646 63.943 178.476 64.2139C178.309 64.4813 178.11 64.6791 177.879 64.8075C177.648 64.9358 177.391 65 177.109 65C176.883 65 176.672 64.9608 176.477 64.8824C176.282 64.8004 176.106 64.6738 175.949 64.5027C175.795 64.3316 175.662 64.1159 175.549 63.8556C175.438 63.5918 175.354 63.2781 175.295 62.9144C175.235 62.5508 175.206 62.1337 175.206 61.6631V60.3155C175.206 59.7308 175.251 59.2299 175.341 58.8128C175.433 58.3922 175.563 58.0481 175.73 57.7807C175.899 57.5134 176.1 57.3173 176.331 57.1925C176.562 57.0642 176.819 57 177.101 57C177.327 57 177.536 57.041 177.729 57.123C177.924 57.2014 178.1 57.3244 178.257 57.492C178.413 57.6595 178.547 57.8752 178.657 58.139C178.768 58.3993 178.852 58.7112 178.911 59.0749C178.97 59.4349 179 59.8485 179 60.3155ZM177.887 61.8663V60.107C177.887 59.8253 177.875 59.5793 177.852 59.369C177.832 59.1586 177.8 58.9804 177.756 58.8342C177.712 58.6845 177.658 58.5633 177.594 58.4706C177.53 58.3779 177.457 58.3102 177.375 58.2674C177.292 58.2246 177.201 58.2032 177.101 58.2032C176.975 58.2032 176.864 58.2371 176.766 58.3048C176.671 58.3725 176.59 58.4813 176.523 58.631C176.456 58.7772 176.405 58.9733 176.369 59.2193C176.336 59.4617 176.319 59.7576 176.319 60.107V61.8663C176.319 62.148 176.329 62.3957 176.35 62.6096C176.373 62.8235 176.406 63.0071 176.45 63.1604C176.496 63.3102 176.55 63.4332 176.612 63.5294C176.676 63.6221 176.749 63.6898 176.831 63.7326C176.916 63.7754 177.009 63.7968 177.109 63.7968C177.232 63.7968 177.341 63.7629 177.436 63.6952C177.534 63.6239 177.616 63.5134 177.683 63.3636C177.752 63.2103 177.803 63.0107 177.837 62.7647C177.87 62.5187 177.887 62.2193 177.887 61.8663Z" fill="white"/>
<path d="M167.272 70.3347H167.862C168.051 70.3347 168.207 70.2901 168.33 70.2011C168.452 70.1084 168.543 69.9802 168.602 69.8163C168.663 69.6489 168.693 69.4547 168.693 69.2338C168.693 69.0343 168.665 68.8579 168.609 68.7047C168.556 68.548 168.473 68.4269 168.36 68.3413C168.248 68.2523 168.106 68.2077 167.935 68.2077C167.799 68.2077 167.674 68.2452 167.559 68.32C167.444 68.3948 167.352 68.4999 167.284 68.6353C167.215 68.7707 167.18 68.9345 167.18 69.1269H166.073C166.073 68.6994 166.155 68.3271 166.318 68.01C166.484 67.6929 166.706 67.4453 166.985 67.2672C167.263 67.0891 167.57 67 167.904 67C168.282 67 168.613 67.0855 168.897 67.2565C169.18 67.424 169.401 67.6716 169.559 67.9993C169.718 68.3271 169.797 68.7332 169.797 69.2178C169.797 69.4636 169.756 69.7023 169.674 69.9339C169.593 70.1619 169.475 70.3685 169.322 70.5538C169.171 70.7355 168.987 70.8815 168.77 70.992C168.553 71.0989 168.309 71.1523 168.038 71.1523H167.272V70.3347ZM167.272 71.505V70.7088H168.038C168.342 70.7088 168.609 70.7568 168.839 70.853C169.069 70.9492 169.262 71.0882 169.418 71.2699C169.573 71.448 169.691 71.66 169.77 71.9058C169.849 72.1481 169.889 72.4171 169.889 72.7128C169.889 73.0762 169.839 73.4004 169.739 73.6854C169.64 73.9668 169.499 74.2055 169.318 74.4015C169.139 74.5974 168.93 74.747 168.69 74.8504C168.45 74.9501 168.188 75 167.904 75C167.669 75 167.438 74.9555 167.211 74.8664C166.986 74.7738 166.782 74.6366 166.598 74.4549C166.416 74.2697 166.271 74.0381 166.161 73.7602C166.054 73.4787 166 73.1456 166 72.7609H167.107C167.107 72.9604 167.143 73.1385 167.215 73.2953C167.286 73.452 167.384 73.5749 167.51 73.664C167.637 73.7531 167.779 73.7976 167.935 73.7976C168.111 73.7976 168.262 73.7531 168.387 73.664C168.515 73.5714 168.612 73.4431 168.678 73.2792C168.747 73.1118 168.782 72.9176 168.782 72.6967C168.782 72.4117 168.745 72.1837 168.67 72.0127C168.596 71.8381 168.49 71.7099 168.352 71.6279C168.215 71.546 168.051 71.505 167.862 71.505H167.272Z" fill="white"/>
<path d="M174.556 71.986V73.1937H170.536L170.483 72.2585L172.808 67.1122H173.686L172.736 69.33L171.579 71.986H174.556ZM173.923 67.1122V74.8931H172.82V67.1122H173.923Z" fill="white"/>
<path d="M178 67.0321H178.161V68.2612H178.096C177.805 68.2612 177.545 68.3218 177.318 68.4429C177.091 68.564 176.898 68.7368 176.739 68.9613C176.584 69.1821 176.464 69.4493 176.379 69.7629C176.298 70.0764 176.257 70.4273 176.257 70.8156V72.1089C176.257 72.3868 176.276 72.6326 176.314 72.8464C176.355 73.0566 176.413 73.2329 176.487 73.3754C176.563 73.5144 176.653 73.6195 176.755 73.6907C176.857 73.7584 176.972 73.7923 177.1 73.7923C177.22 73.7923 177.328 73.7566 177.425 73.6854C177.525 73.6141 177.609 73.5144 177.678 73.3861C177.75 73.2543 177.803 73.1011 177.839 72.9265C177.877 72.7484 177.897 72.5542 177.897 72.344C177.897 72.1338 177.877 71.9397 177.839 71.7615C177.803 71.5834 177.75 71.4302 177.678 71.3019C177.607 71.1701 177.52 71.0686 177.418 70.9973C177.315 70.9261 177.201 70.8904 177.073 70.8904C176.899 70.8904 176.746 70.9475 176.613 71.0615C176.483 71.1719 176.381 71.3144 176.307 71.489C176.232 71.6635 176.193 71.847 176.188 72.0394L175.854 71.7401C175.862 71.4658 175.903 71.2057 175.977 70.9599C176.054 70.7141 176.158 70.4968 176.291 70.3079C176.427 70.1156 176.589 69.9659 176.778 69.8591C176.967 69.7486 177.18 69.6934 177.418 69.6934C177.678 69.6934 177.907 69.7629 178.103 69.9018C178.303 70.0407 178.469 70.2314 178.602 70.4736C178.734 70.7159 178.834 70.9955 178.9 71.3126C178.967 71.6297 179 71.9682 179 72.328C179 72.7056 178.955 73.0566 178.866 73.3808C178.779 73.705 178.653 73.9882 178.487 74.2305C178.323 74.4727 178.126 74.6615 177.897 74.7969C177.667 74.9323 177.409 75 177.123 75C176.826 75 176.557 74.9252 176.314 74.7756C176.074 74.6224 175.867 74.4086 175.693 74.1343C175.52 73.8599 175.386 73.534 175.291 73.1563C175.199 72.7787 175.153 72.3654 175.153 71.9165V71.318C175.153 70.6909 175.218 70.1173 175.349 69.5972C175.481 69.0735 175.672 68.621 175.92 68.2398C176.167 67.855 176.466 67.5576 176.816 67.3474C177.166 67.1372 177.561 67.0321 178 67.0321Z" fill="white"/>
<g opacity="0.4">
<path d="M14.0159 18.8623H13.364V18.306H13.9895C14.2659 18.306 14.4894 18.2593 14.6603 18.1658C14.8311 18.0724 14.9554 17.9427 15.0333 17.7769C15.1112 17.6111 15.1501 17.4196 15.1501 17.2025C15.1501 16.9945 15.1074 16.8045 15.022 16.6327C14.9366 16.4578 14.8047 16.3191 14.6263 16.2166C14.448 16.1111 14.2181 16.0583 13.9368 16.0583C13.7258 16.0583 13.5349 16.1065 13.364 16.203C13.1932 16.2965 13.0576 16.4276 12.9571 16.5965C12.8566 16.7623 12.8064 16.9538 12.8064 17.1709H12.0791C12.0791 16.8905 12.1281 16.6387 12.2261 16.4156C12.3241 16.1894 12.4584 15.998 12.6293 15.8412C12.8001 15.6814 12.9973 15.5593 13.2209 15.4749C13.4469 15.3905 13.6856 15.3482 13.9368 15.3482C14.2307 15.3482 14.497 15.3889 14.7356 15.4704C14.9743 15.5487 15.179 15.6663 15.3498 15.8231C15.5206 15.9799 15.6513 16.1744 15.7417 16.4065C15.8321 16.6387 15.8773 16.9085 15.8773 17.2161C15.8773 17.4422 15.8334 17.6548 15.7455 17.8538C15.6575 18.0528 15.5319 18.2276 15.3686 18.3784C15.2054 18.5291 15.0094 18.6482 14.7808 18.7357C14.5522 18.8201 14.2973 18.8623 14.0159 18.8623ZM13.364 18.4779H14.0159C14.3249 18.4779 14.6 18.5156 14.8411 18.591C15.0823 18.6663 15.2858 18.7764 15.4515 18.9211C15.6173 19.0658 15.7429 19.2452 15.8284 19.4593C15.9163 19.6704 15.9602 19.9131 15.9602 20.1874C15.9602 20.495 15.91 20.7678 15.8095 21.006C15.7115 21.2442 15.5721 21.4462 15.3913 21.6121C15.2104 21.7779 14.9956 21.903 14.7469 21.9874C14.5007 22.0719 14.2307 22.1141 13.9368 22.1141C13.7007 22.1141 13.467 22.0779 13.2359 22.0055C13.0073 21.9302 12.8001 21.8156 12.6142 21.6618C12.4283 21.505 12.2788 21.306 12.1658 21.0648C12.0553 20.8236 12 20.5342 12 20.1965H12.7272C12.7272 20.4166 12.7775 20.6186 12.878 20.8025C12.981 20.9864 13.1229 21.1342 13.3038 21.2457C13.4846 21.3543 13.6956 21.4085 13.9368 21.4085C14.2131 21.4085 14.4467 21.3573 14.6376 21.2548C14.8311 21.1492 14.978 21.006 15.0785 20.8251C15.1815 20.6412 15.233 20.4347 15.233 20.2055C15.233 20.0035 15.2054 19.8286 15.1501 19.6809C15.0973 19.5302 15.0182 19.4065 14.9127 19.3101C14.8097 19.2136 14.6803 19.1427 14.5246 19.0975C14.3714 19.0492 14.193 19.0251 13.9895 19.0251H13.364V18.4779Z" fill="white"/>
<path d="M19.2158 21.1869V18.6678C19.2158 18.4749 19.1832 18.3075 19.1179 18.1658C19.0551 18.0211 18.9596 17.9095 18.8315 17.8312C18.7034 17.7528 18.5451 17.7136 18.3567 17.7136C18.1809 17.7136 18.0264 17.7497 17.8933 17.8221C17.7626 17.8945 17.6596 17.9894 17.5843 18.107C17.5114 18.2246 17.475 18.3513 17.475 18.4869H16.7779C16.7779 18.3121 16.8156 18.1387 16.8909 17.9668C16.9663 17.795 17.0743 17.6397 17.215 17.501C17.3582 17.3593 17.529 17.2477 17.7275 17.1663C17.9284 17.0819 18.152 17.0397 18.3982 17.0397C18.6946 17.0397 18.9558 17.1 19.1819 17.2206C19.4105 17.3412 19.5889 17.5236 19.717 17.7678C19.8476 18.009 19.9129 18.3121 19.9129 18.6769V20.9563C19.9129 21.1191 19.9242 21.2925 19.9468 21.4764C19.972 21.6603 20.0084 21.8186 20.0561 21.9513V22.0236H19.3289C19.2937 21.9271 19.2661 21.799 19.246 21.6392C19.2259 21.4764 19.2158 21.3256 19.2158 21.1869ZM19.3364 19.0568L19.344 19.6447H18.6393C18.4409 19.6447 18.2638 19.6643 18.108 19.7035C17.9523 19.7397 17.8217 19.7955 17.7162 19.8709C17.6106 19.9462 17.5303 20.0412 17.475 20.1558C17.4197 20.2673 17.3921 20.3985 17.3921 20.5492C17.3921 20.703 17.421 20.8432 17.4788 20.9698C17.5365 21.0965 17.6232 21.1975 17.7388 21.2729C17.8568 21.3452 18.0013 21.3814 18.1721 21.3814C18.3856 21.3814 18.574 21.3271 18.7373 21.2186C18.9006 21.1101 19.03 20.9774 19.1254 20.8206C19.2234 20.6638 19.2761 20.5116 19.2837 20.3638L19.5813 20.7663C19.5638 20.893 19.516 21.0332 19.4382 21.1869C19.3603 21.3407 19.256 21.4884 19.1254 21.6302C18.9973 21.7688 18.8441 21.8849 18.6657 21.9784C18.4899 22.0688 18.2914 22.1141 18.0704 22.1141C17.794 22.1141 17.5516 22.0492 17.3431 21.9196C17.1371 21.79 16.9764 21.6166 16.8608 21.3995C16.7478 21.1794 16.6912 20.9337 16.6912 20.6623C16.6912 20.4 16.7339 20.1693 16.8194 19.9704C16.9048 19.7683 17.0279 19.601 17.1886 19.4683C17.3494 19.3327 17.5428 19.2302 17.7689 19.1608C17.995 19.0915 18.2475 19.0568 18.5263 19.0568H19.3364Z" fill="white"/>
<path d="M21.7065 18.0709V23.905H21.0057V17.1302H21.6462L21.7065 18.0709ZM24.4535 19.5362V19.6312C24.4535 19.9869 24.4183 20.3171 24.3479 20.6216C24.2776 20.9231 24.1746 21.1854 24.039 21.4085C23.9058 21.6317 23.7413 21.805 23.5453 21.9286C23.3494 22.0523 23.1246 22.1141 22.8709 22.1141C22.6121 22.1141 22.3835 22.0628 22.1851 21.9603C21.9866 21.8578 21.8183 21.7085 21.6802 21.5126C21.542 21.3166 21.4315 21.0814 21.3486 20.807C21.2682 20.5327 21.2129 20.2236 21.1828 19.8799V19.3734C21.2129 19.0116 21.2694 18.6874 21.3523 18.401C21.4352 18.1146 21.5445 17.8704 21.6802 17.6683C21.8183 17.4633 21.9854 17.308 22.1813 17.2025C22.3772 17.094 22.6033 17.0397 22.8596 17.0397C23.1158 17.0397 23.3431 17.1 23.5416 17.2206C23.74 17.3382 23.9071 17.507 24.0427 17.7271C24.1784 17.9472 24.2801 18.2111 24.3479 18.5186C24.4183 18.8231 24.4535 19.1623 24.4535 19.5362ZM23.7526 19.6312V19.5362C23.7526 19.292 23.7312 19.0628 23.6885 18.8487C23.6458 18.6317 23.5793 18.4417 23.4888 18.2789C23.4009 18.1131 23.2879 17.9834 23.1497 17.8899C23.0115 17.7935 22.847 17.7452 22.6561 17.7452C22.4802 17.7452 22.327 17.7814 22.1964 17.8538C22.0683 17.9261 21.959 18.0241 21.8686 18.1477C21.7781 18.2683 21.704 18.407 21.6462 18.5638C21.591 18.7176 21.5495 18.8774 21.5219 19.0432V20.2146C21.5721 20.4256 21.6425 20.6246 21.7329 20.8116C21.8233 20.9955 21.9439 21.1447 22.0946 21.2593C22.2454 21.3709 22.435 21.4266 22.6636 21.4266C22.852 21.4266 23.0141 21.3799 23.1497 21.2864C23.2879 21.1899 23.4009 21.0588 23.4888 20.893C23.5793 20.7271 23.6458 20.5372 23.6885 20.3231C23.7312 20.106 23.7526 19.8754 23.7526 19.6312Z" fill="white"/>
<path d="M27.7467 21.1869V18.6678C27.7467 18.4749 27.7141 18.3075 27.6488 18.1658C27.586 18.0211 27.4905 17.9095 27.3624 17.8312C27.2343 17.7528 27.076 17.7136 26.8876 17.7136C26.7118 17.7136 26.5573 17.7497 26.4242 17.8221C26.2935 17.8945 26.1905 17.9894 26.1152 18.107C26.0423 18.2246 26.0059 18.3513 26.0059 18.4869H25.3088C25.3088 18.3121 25.3465 18.1387 25.4218 17.9668C25.4972 17.795 25.6052 17.6397 25.7459 17.501C25.8891 17.3593 26.0599 17.2477 26.2584 17.1663C26.4593 17.0819 26.6829 17.0397 26.9291 17.0397C27.2255 17.0397 27.4867 17.1 27.7128 17.2206C27.9414 17.3412 28.1198 17.5236 28.2479 17.7678C28.3785 18.009 28.4438 18.3121 28.4438 18.6769V20.9563C28.4438 21.1191 28.4551 21.2925 28.4777 21.4764C28.5029 21.6603 28.5393 21.8186 28.587 21.9513V22.0236H27.8598C27.8246 21.9271 27.797 21.799 27.7769 21.6392C27.7568 21.4764 27.7467 21.3256 27.7467 21.1869ZM27.8673 19.0568L27.8749 19.6447H27.1702C26.9718 19.6447 26.7947 19.6643 26.6389 19.7035C26.4832 19.7397 26.3526 19.7955 26.2471 19.8709C26.1415 19.9462 26.0612 20.0412 26.0059 20.1558C25.9506 20.2673 25.923 20.3985 25.923 20.5492C25.923 20.703 25.9519 20.8432 26.0097 20.9698C26.0674 21.0965 26.1541 21.1975 26.2697 21.2729C26.3877 21.3452 26.5322 21.3814 26.703 21.3814C26.9165 21.3814 27.1049 21.3271 27.2682 21.2186C27.4315 21.1101 27.5609 20.9774 27.6563 20.8206C27.7543 20.6638 27.807 20.5116 27.8146 20.3638L28.1122 20.7663C28.0947 20.893 28.0469 21.0332 27.9691 21.1869C27.8912 21.3407 27.7869 21.4884 27.6563 21.6302C27.5282 21.7688 27.375 21.8849 27.1966 21.9784C27.0208 22.0688 26.8223 22.1141 26.6013 22.1141C26.3249 22.1141 26.0825 22.0492 25.874 21.9196C25.668 21.79 25.5073 21.6166 25.3917 21.3995C25.2787 21.1794 25.2221 20.9337 25.2221 20.6623C25.2221 20.4 25.2648 20.1693 25.3503 19.9704C25.4357 19.7683 25.5588 19.601 25.7195 19.4683C25.8803 19.3327 26.0737 19.2302 26.2998 19.1608C26.5259 19.0915 26.7783 19.0568 27.0572 19.0568H27.8673Z" fill="white"/>
<path d="M32.1554 15H32.7281C32.7281 15.2955 32.6904 15.5307 32.6151 15.7055C32.5397 15.8774 32.4367 16.0101 32.3061 16.1035C32.178 16.197 32.0323 16.2678 31.869 16.3161C31.7082 16.3643 31.5412 16.4111 31.3679 16.4563C31.1518 16.5106 30.9509 16.5965 30.765 16.7141C30.5816 16.8286 30.4233 16.9915 30.2902 17.2025C30.1596 17.4136 30.0628 17.6879 30 18.0256C29.9398 18.3633 29.9234 18.7809 29.9511 19.2784V19.6945H29.3783V19.2784C29.3783 18.7206 29.4223 18.2337 29.5102 17.8176C29.6006 17.4015 29.7275 17.0503 29.8908 16.7638C30.0541 16.4774 30.2475 16.2497 30.4711 16.0809C30.6971 15.9121 30.9458 15.796 31.2171 15.7327C31.4131 15.6874 31.5814 15.6392 31.722 15.5879C31.8627 15.5337 31.9695 15.4613 32.0423 15.3709C32.1177 15.2804 32.1554 15.1568 32.1554 15ZM31.3302 17.4106C31.5964 17.4106 31.8338 17.4663 32.0423 17.5779C32.2508 17.6894 32.4279 17.8447 32.5736 18.0437C32.7193 18.2427 32.8299 18.4779 32.9052 18.7492C32.9831 19.0176 33.022 19.3101 33.022 19.6266V19.7261C33.022 20.0668 32.9806 20.3834 32.8977 20.6759C32.8173 20.9653 32.698 21.2186 32.5397 21.4357C32.384 21.6497 32.1931 21.8171 31.967 21.9377C31.7434 22.0583 31.4884 22.1186 31.2021 22.1186C30.9157 22.1186 30.6595 22.0583 30.4334 21.9377C30.2098 21.8171 30.0189 21.6497 29.8606 21.4357C29.7024 21.2186 29.5818 20.9653 29.4989 20.6759C29.4185 20.3834 29.3783 20.0668 29.3783 19.7261V19.6266C29.3783 19.5513 29.3896 19.4774 29.4122 19.405C29.4348 19.3327 29.4625 19.2588 29.4951 19.1834C29.5303 19.108 29.5617 19.0281 29.5893 18.9437C29.6823 18.6724 29.8091 18.4206 29.9699 18.1884C30.1332 17.9563 30.3279 17.7693 30.5539 17.6276C30.7825 17.4829 31.0413 17.4106 31.3302 17.4106ZM31.1945 18.0935C30.9383 18.0935 30.7273 18.1643 30.5615 18.306C30.3982 18.4477 30.2764 18.6362 30.196 18.8714C30.1156 19.1035 30.0754 19.3553 30.0754 19.6266V19.7261C30.0754 19.9553 30.098 20.1724 30.1432 20.3774C30.1884 20.5824 30.2563 20.7648 30.3467 20.9246C30.4397 21.0814 30.5565 21.205 30.6971 21.2955C30.8403 21.3859 31.0086 21.4312 31.2021 21.4312C31.3955 21.4312 31.5625 21.3859 31.7032 21.2955C31.8439 21.205 31.9594 21.0814 32.0499 20.9246C32.1403 20.7648 32.2081 20.5824 32.2533 20.3774C32.2986 20.1724 32.3212 19.9553 32.3212 19.7261V19.6266C32.3212 19.4216 32.2986 19.2271 32.2533 19.0432C32.2081 18.8593 32.139 18.6965 32.0461 18.5548C31.9557 18.4131 31.8389 18.3015 31.6957 18.2201C31.555 18.1357 31.3879 18.0935 31.1945 18.0935Z" fill="white"/>
<path d="M33.6287 19.6312V19.5271C33.6287 19.1744 33.6714 18.8472 33.7568 18.5457C33.8422 18.2412 33.9653 17.9774 34.1261 17.7543C34.2868 17.5281 34.4815 17.3533 34.7101 17.2296C34.9387 17.103 35.1949 17.0397 35.4788 17.0397C35.7652 17.0397 36.0227 17.103 36.2513 17.2296C36.4824 17.3533 36.6783 17.5281 36.8391 17.7543C37.0024 17.9774 37.1267 18.2412 37.2121 18.5457C37.2975 18.8472 37.3402 19.1744 37.3402 19.5271V19.6312C37.3402 19.9839 37.2975 20.3111 37.2121 20.6126C37.1267 20.9141 37.0024 21.1779 36.8391 21.404C36.6783 21.6271 36.4836 21.802 36.255 21.9286C36.0289 22.0523 35.7727 22.1141 35.4863 22.1141C35.2 22.1141 34.9425 22.0523 34.7139 21.9286C34.4853 21.802 34.2894 21.6271 34.1261 21.404C33.9653 21.1779 33.8422 20.9141 33.7568 20.6126C33.6714 20.3111 33.6287 19.9839 33.6287 19.6312ZM34.3258 19.5271V19.6312C34.3258 19.8754 34.3496 20.106 34.3974 20.3231C34.4451 20.5372 34.5167 20.7271 34.6122 20.893C34.7101 21.0588 34.832 21.1899 34.9777 21.2864C35.1234 21.3799 35.2929 21.4266 35.4863 21.4266C35.6773 21.4266 35.8443 21.3799 35.9875 21.2864C36.1332 21.1899 36.2538 21.0588 36.3492 20.893C36.4447 20.7271 36.5163 20.5372 36.564 20.3231C36.6143 20.106 36.6394 19.8754 36.6394 19.6312V19.5271C36.6394 19.2859 36.6143 19.0583 36.564 18.8442C36.5163 18.6271 36.4434 18.4357 36.3455 18.2698C36.25 18.101 36.1294 17.9683 35.9837 17.8719C35.8405 17.7754 35.6722 17.7271 35.4788 17.7271C35.2879 17.7271 35.1196 17.7754 34.9739 17.8719C34.8307 17.9683 34.7101 18.101 34.6122 18.2698C34.5167 18.4357 34.4451 18.6271 34.3974 18.8442C34.3496 19.0583 34.3258 19.2859 34.3258 19.5271Z" fill="white"/>
<path d="M39.7932 17.1302V22.0236H39.0924V17.1302H39.7932ZM41.1611 17.1302V17.8085H37.751V17.1302H41.1611Z" fill="white"/>
<path d="M44.1906 21.1869V18.6678C44.1906 18.4749 44.1579 18.3075 44.0926 18.1658C44.0298 18.0211 43.9343 17.9095 43.8062 17.8312C43.6781 17.7528 43.5199 17.7136 43.3315 17.7136C43.1556 17.7136 43.0011 17.7497 42.868 17.8221C42.7374 17.8945 42.6344 17.9894 42.559 18.107C42.4862 18.2246 42.4497 18.3513 42.4497 18.4869H41.7526C41.7526 18.3121 41.7903 18.1387 41.8657 17.9668C41.941 17.795 42.0491 17.6397 42.1897 17.501C42.3329 17.3593 42.5037 17.2477 42.7022 17.1663C42.9032 17.0819 43.1267 17.0397 43.3729 17.0397C43.6693 17.0397 43.9306 17.1 44.1567 17.2206C44.3853 17.3412 44.5636 17.5236 44.6917 17.7678C44.8224 18.009 44.8877 18.3121 44.8877 18.6769V20.9563C44.8877 21.1191 44.899 21.2925 44.9216 21.4764C44.9467 21.6603 44.9831 21.8186 45.0309 21.9513V22.0236H44.3036C44.2684 21.9271 44.2408 21.799 44.2207 21.6392C44.2006 21.4764 44.1906 21.3256 44.1906 21.1869ZM44.3112 19.0568L44.3187 19.6447H43.6141C43.4156 19.6447 43.2385 19.6643 43.0828 19.7035C42.927 19.7397 42.7964 19.7955 42.6909 19.8709C42.5854 19.9462 42.505 20.0412 42.4497 20.1558C42.3945 20.2673 42.3668 20.3985 42.3668 20.5492C42.3668 20.703 42.3957 20.8432 42.4535 20.9698C42.5113 21.0965 42.5979 21.1975 42.7135 21.2729C42.8316 21.3452 42.976 21.3814 43.1468 21.3814C43.3603 21.3814 43.5487 21.3271 43.712 21.2186C43.8753 21.1101 44.0047 20.9774 44.1001 20.8206C44.1981 20.6638 44.2509 20.5116 44.2584 20.3638L44.5561 20.7663C44.5385 20.893 44.4908 21.0332 44.4129 21.1869C44.335 21.3407 44.2308 21.4884 44.1001 21.6302C43.972 21.7688 43.8188 21.8849 43.6404 21.9784C43.4646 22.0688 43.2661 22.1141 43.0451 22.1141C42.7688 22.1141 42.5263 22.0492 42.3178 21.9196C42.1119 21.79 41.9511 21.6166 41.8355 21.3995C41.7225 21.1794 41.666 20.9337 41.666 20.6623C41.666 20.4 41.7087 20.1693 41.7941 19.9704C41.8795 19.7683 42.0026 19.601 42.1634 19.4683C42.3241 19.3327 42.5176 19.2302 42.7436 19.1608C42.9697 19.0915 43.2222 19.0568 43.501 19.0568H44.3112Z" fill="white"/>
<path d="M48.7499 19.2513V19.9296H46.5946V19.2513H48.7499ZM46.7416 17.1302V22.0236H46.0445V17.1302H46.7416ZM49.3151 17.1302V22.0236H48.6143V17.1302H49.3151Z" fill="white"/>
<path d="M50.2534 19.6312V19.5271C50.2534 19.1744 50.2961 18.8472 50.3815 18.5457C50.4669 18.2412 50.59 17.9774 50.7508 17.7543C50.9115 17.5281 51.1062 17.3533 51.3348 17.2296C51.5634 17.103 51.8197 17.0397 52.1035 17.0397C52.3899 17.0397 52.6474 17.103 52.876 17.2296C53.1071 17.3533 53.303 17.5281 53.4638 17.7543C53.6271 17.9774 53.7514 18.2412 53.8368 18.5457C53.9222 18.8472 53.9649 19.1744 53.9649 19.5271V19.6312C53.9649 19.9839 53.9222 20.3111 53.8368 20.6126C53.7514 20.9141 53.6271 21.1779 53.4638 21.404C53.303 21.6271 53.1083 21.802 52.8797 21.9286C52.6536 22.0523 52.3974 22.1141 52.111 22.1141C51.8247 22.1141 51.5672 22.0523 51.3386 21.9286C51.11 21.802 50.9141 21.6271 50.7508 21.404C50.59 21.1779 50.4669 20.9141 50.3815 20.6126C50.2961 20.3111 50.2534 19.9839 50.2534 19.6312ZM50.9505 19.5271V19.6312C50.9505 19.8754 50.9743 20.106 51.0221 20.3231C51.0698 20.5372 51.1414 20.7271 51.2369 20.893C51.3348 21.0588 51.4567 21.1899 51.6024 21.2864C51.7481 21.3799 51.9176 21.4266 52.111 21.4266C52.302 21.4266 52.469 21.3799 52.6122 21.2864C52.7579 21.1899 52.8785 21.0588 52.9739 20.893C53.0694 20.7271 53.141 20.5372 53.1887 20.3231C53.239 20.106 53.2641 19.8754 53.2641 19.6312V19.5271C53.2641 19.2859 53.239 19.0583 53.1887 18.8442C53.141 18.6271 53.0681 18.4357 52.9702 18.2698C52.8747 18.101 52.7541 17.9683 52.6084 17.8719C52.4652 17.7754 52.2969 17.7271 52.1035 17.7271C51.9126 17.7271 51.7443 17.7754 51.5986 17.8719C51.4554 17.9683 51.3348 18.101 51.2369 18.2698C51.1414 18.4357 51.0698 18.6271 51.0221 18.8442C50.9743 19.0583 50.9505 19.2859 50.9505 19.5271Z" fill="white"/>
<path d="M57.8988 21.5171L59.033 17.1302H59.7791L58.1437 22.7789C58.106 22.8995 58.0558 23.0291 57.993 23.1678C57.9327 23.3095 57.8548 23.4437 57.7594 23.5704C57.6639 23.697 57.5484 23.7995 57.4127 23.8779C57.2796 23.9593 57.1201 24 56.9342 24C56.8789 24 56.8086 23.991 56.7232 23.9729C56.6377 23.9548 56.5775 23.9397 56.5423 23.9276L56.5385 23.2492C56.5586 23.2523 56.59 23.2553 56.6327 23.2583C56.6779 23.2643 56.7093 23.2673 56.7269 23.2673C56.8852 23.2673 57.0196 23.2417 57.1301 23.1905C57.2406 23.1422 57.3336 23.0593 57.4089 22.9417C57.4868 22.8271 57.5534 22.6688 57.6087 22.4668L57.8988 21.5171ZM57.0661 17.1302L58.1249 20.9291L58.3057 21.8111L57.8046 22.1186L56.3049 17.1302H57.0661Z" fill="white"/>
<path d="M63.4831 17.1302V22.0236H62.786V17.1302H63.4831ZM63.2457 19.3779V20.0653C63.105 20.1286 62.9618 20.1859 62.8161 20.2372C62.6729 20.2854 62.521 20.3246 62.3602 20.3548C62.2019 20.3819 62.0298 20.3955 61.844 20.3955C61.5224 20.3955 61.2436 20.3291 61.0074 20.1965C60.7713 20.0608 60.5892 19.8573 60.4611 19.5859C60.333 19.3116 60.2689 18.9663 60.2689 18.5503V17.1211H60.966V18.5503C60.966 18.8216 60.9999 19.0417 61.0677 19.2106C61.1356 19.3794 61.2348 19.5045 61.3654 19.5859C61.496 19.6643 61.6556 19.7035 61.844 19.7035C62.0248 19.7035 62.1944 19.6899 62.3526 19.6628C62.5134 19.6327 62.6667 19.5935 62.8124 19.5452C62.9606 19.497 63.105 19.4412 63.2457 19.3779Z" fill="white"/>
<path d="M66.2978 22.1141C66.0139 22.1141 65.7565 22.0568 65.5254 21.9422C65.2968 21.8246 65.0996 21.6603 64.9338 21.4492C64.7705 21.2382 64.6449 20.9879 64.557 20.6985C64.469 20.409 64.4251 20.0925 64.4251 19.7487V19.5588C64.4251 19.1608 64.4741 18.8065 64.572 18.496C64.67 18.1824 64.8031 17.9171 64.9715 17.7C65.1398 17.4829 65.3307 17.3186 65.5442 17.207C65.7577 17.0955 65.9788 17.0397 66.2074 17.0397C66.4988 17.0397 66.75 17.1 66.961 17.2206C67.1745 17.3412 67.3491 17.5101 67.4848 17.7271C67.6204 17.9412 67.7209 18.1945 67.7862 18.4869C67.8515 18.7764 67.8842 19.093 67.8842 19.4367V19.8121H64.8396V19.1291H67.1871V19.0658C67.177 18.8487 67.1393 18.6377 67.074 18.4327C67.0112 18.2276 66.9107 18.0588 66.7726 17.9261C66.6344 17.7935 66.446 17.7271 66.2074 17.7271C66.0491 17.7271 65.9034 17.7678 65.7703 17.8492C65.6371 17.9276 65.5228 18.0452 65.4274 18.202C65.3319 18.3588 65.2578 18.5503 65.2051 18.7764C65.1523 19.0025 65.1259 19.2633 65.1259 19.5588V19.7487C65.1259 19.9809 65.1523 20.1995 65.2051 20.4045C65.2603 20.6065 65.3395 20.7844 65.4425 20.9382C65.548 21.092 65.6748 21.2126 65.823 21.3C65.9738 21.3874 66.1446 21.4312 66.3355 21.4312C66.5817 21.4312 66.7902 21.3709 66.961 21.2503C67.1318 21.1296 67.2813 20.9683 67.4094 20.7663L67.8314 21.1688C67.7435 21.3286 67.6317 21.4809 67.4961 21.6256C67.3604 21.7704 67.1934 21.8879 66.9949 21.9784C66.799 22.0688 66.5666 22.1141 66.2978 22.1141Z" fill="white"/>
<path d="M71.4638 19.2513V19.9296H69.3085V19.2513H71.4638ZM69.4554 17.1302V22.0236H68.7584V17.1302H69.4554ZM72.029 17.1302V22.0236H71.3282V17.1302H72.029Z" fill="white"/>
<path d="M73.9055 20.6985L75.7858 17.1302H76.4867V22.0236H75.7858V18.4553L73.9055 22.0236H73.2122V17.1302H73.9055V20.6985Z" fill="white"/>
<path d="M78.3632 17.1302V22.0236H77.6661V17.1302H78.3632ZM81.0385 17.1302L79.1055 19.9342H78.1295L78.024 19.2015H78.8229L80.1907 17.1302H81.0385ZM80.2886 22.0236L78.7889 19.8075L79.2373 19.2015L81.1741 22.0236H80.2886Z" fill="white"/>
<path d="M84.1848 21.1869V18.6678C84.1848 18.4749 84.1522 18.3075 84.0868 18.1658C84.024 18.0211 83.9286 17.9095 83.8005 17.8312C83.6724 17.7528 83.5141 17.7136 83.3257 17.7136C83.1499 17.7136 82.9954 17.7497 82.8622 17.8221C82.7316 17.8945 82.6286 17.9894 82.5532 18.107C82.4804 18.2246 82.444 18.3513 82.444 18.4869H81.7469C81.7469 18.3121 81.7846 18.1387 81.8599 17.9668C81.9353 17.795 82.0433 17.6397 82.184 17.501C82.3272 17.3593 82.498 17.2477 82.6964 17.1663C82.8974 17.0819 83.121 17.0397 83.3671 17.0397C83.6636 17.0397 83.9248 17.1 84.1509 17.2206C84.3795 17.3412 84.5579 17.5236 84.686 17.7678C84.8166 18.009 84.8819 18.3121 84.8819 18.6769V20.9563C84.8819 21.1191 84.8932 21.2925 84.9158 21.4764C84.9409 21.6603 84.9774 21.8186 85.0251 21.9513V22.0236H84.2979C84.2627 21.9271 84.2351 21.799 84.215 21.6392C84.1949 21.4764 84.1848 21.3256 84.1848 21.1869ZM84.3054 19.0568L84.3129 19.6447H83.6083C83.4098 19.6447 83.2327 19.6643 83.077 19.7035C82.9213 19.7397 82.7906 19.7955 82.6851 19.8709C82.5796 19.9462 82.4992 20.0412 82.444 20.1558C82.3887 20.2673 82.3611 20.3985 82.3611 20.5492C82.3611 20.703 82.39 20.8432 82.4477 20.9698C82.5055 21.0965 82.5922 21.1975 82.7077 21.2729C82.8258 21.3452 82.9702 21.3814 83.1411 21.3814C83.3546 21.3814 83.543 21.3271 83.7063 21.2186C83.8696 21.1101 83.9989 20.9774 84.0944 20.8206C84.1923 20.6638 84.2451 20.5116 84.2526 20.3638L84.5503 20.7663C84.5327 20.893 84.485 21.0332 84.4071 21.1869C84.3293 21.3407 84.225 21.4884 84.0944 21.6302C83.9663 21.7688 83.813 21.8849 83.6347 21.9784C83.4588 22.0688 83.2604 22.1141 83.0393 22.1141C82.763 22.1141 82.5206 22.0492 82.3121 21.9196C82.1061 21.79 81.9453 21.6166 81.8298 21.3995C81.7167 21.1794 81.6602 20.9337 81.6602 20.6623C81.6602 20.4 81.7029 20.1693 81.7883 19.9704C81.8737 19.7683 81.9968 19.601 82.1576 19.4683C82.3184 19.3327 82.5118 19.2302 82.7379 19.1608C82.964 19.0915 83.2164 19.0568 83.4953 19.0568H84.3054Z" fill="white"/>
<path d="M88.3221 20.9111L89.7088 17.1302H90.3795L88.5633 22.0236H88.081L86.2723 17.1302H86.943L88.3221 20.9111ZM86.7396 17.1302V22.0236H86.0425V17.1302H86.7396ZM89.8821 22.0236V17.1302H90.583V22.0236H89.8821Z" fill="white"/>
<path d="M92.4595 20.6985L94.3397 17.1302H95.0406V22.0236H94.3397V18.4553L92.4595 22.0236H91.7662V17.1302H92.4595V20.6985Z" fill="white"/>
<path d="M96.1296 21.5804C96.1296 21.4387 96.166 21.3196 96.2389 21.2231C96.3142 21.1236 96.4222 21.0739 96.5629 21.0739C96.7036 21.0739 96.8103 21.1236 96.8832 21.2231C96.9586 21.3196 96.9962 21.4387 96.9962 21.5804C96.9962 21.7191 96.9586 21.8367 96.8832 21.9332C96.8103 22.0296 96.7036 22.0779 96.5629 22.0779C96.4222 22.0779 96.3142 22.0296 96.2389 21.9332C96.166 21.8367 96.1296 21.7191 96.1296 21.5804ZM96.1333 17.5869C96.1333 17.4452 96.1698 17.3261 96.2426 17.2296C96.318 17.1302 96.426 17.0804 96.5667 17.0804C96.7073 17.0804 96.8141 17.1302 96.887 17.2296C96.9623 17.3261 97 17.4452 97 17.5869C97 17.7256 96.9623 17.8432 96.887 17.9397C96.8141 18.0362 96.7073 18.0844 96.5667 18.0844C96.426 18.0844 96.318 18.0362 96.2426 17.9397C96.1698 17.8432 96.1333 17.7256 96.1333 17.5869Z" fill="white"/>
</g>
<path opacity="0.4" d="M15 45.3797V46.5668C15 47.205 14.9652 47.7433 14.8957 48.1818C14.8261 48.6203 14.7261 48.9733 14.5957 49.2406C14.4652 49.508 14.3076 49.7023 14.1228 49.8235C13.9402 49.9412 13.7337 50 13.5033 50C13.3207 50 13.1522 49.9626 12.9978 49.8877C12.8435 49.8128 12.7043 49.6934 12.5804 49.5294C12.4587 49.3619 12.3543 49.1444 12.2674 48.877C12.1804 48.6096 12.1141 48.2852 12.0685 47.9037C12.0228 47.5223 12 47.0766 12 46.5668V45.3797C12 44.7415 12.0348 44.2068 12.1043 43.7754C12.1761 43.344 12.2772 42.9982 12.4076 42.738C12.538 42.4742 12.6946 42.2852 12.8772 42.1711C13.062 42.057 13.2685 42 13.4967 42C13.6815 42 13.8511 42.0374 14.0054 42.1123C14.162 42.1836 14.3011 42.2995 14.4228 42.4599C14.5446 42.6168 14.6478 42.8271 14.7326 43.0909C14.8196 43.3512 14.8859 43.6702 14.9315 44.0481C14.9772 44.426 15 44.8699 15 45.3797ZM14.3935 46.7273V45.2139C14.3935 44.8645 14.3804 44.5579 14.3543 44.2941C14.3304 44.0267 14.2946 43.7986 14.2467 43.6096C14.1989 43.4207 14.138 43.2674 14.0641 43.1497C13.9924 43.0321 13.9087 42.9465 13.813 42.893C13.7196 42.836 13.6141 42.8075 13.4967 42.8075C13.3533 42.8075 13.2261 42.852 13.1152 42.9412C13.0043 43.0267 12.9109 43.164 12.8348 43.3529C12.7609 43.5419 12.7043 43.7897 12.6652 44.0963C12.6261 44.4029 12.6065 44.7754 12.6065 45.2139V46.7273C12.6065 47.0766 12.6185 47.385 12.6424 47.6524C12.6685 47.9198 12.7065 48.1515 12.7565 48.3476C12.8065 48.5401 12.8674 48.6988 12.9391 48.8235C13.0109 48.9483 13.0935 49.041 13.187 49.1016C13.2826 49.1586 13.388 49.1872 13.5033 49.1872C13.6511 49.1872 13.7804 49.1408 13.8913 49.0481C14.0022 48.9554 14.0946 48.8111 14.1685 48.615C14.2446 48.4153 14.3011 48.1604 14.338 47.8503C14.375 47.5365 14.3935 47.1622 14.3935 46.7273Z" fill="white"/>
<g opacity="0.4">
<path d="M294.002 42.0642V49.893H293.338V43.2995L292 44.0267V43.1337L293.898 42.0642H294.002Z" fill="white"/>
<path d="M301.054 45.3797V46.5668C301.054 47.205 301.015 47.7433 300.939 48.1818C300.862 48.6203 300.752 48.9733 300.609 49.2406C300.465 49.508 300.292 49.7023 300.089 49.8235C299.888 49.9412 299.661 50 299.407 50C299.206 50 299.021 49.9626 298.851 49.8877C298.681 49.8128 298.528 49.6934 298.392 49.5294C298.258 49.3619 298.143 49.1444 298.048 48.877C297.952 48.6096 297.879 48.2852 297.829 47.9037C297.779 47.5223 297.754 47.0766 297.754 46.5668V45.3797C297.754 44.7415 297.792 44.2068 297.868 43.7754C297.947 43.344 298.058 42.9982 298.202 42.738C298.345 42.4742 298.518 42.2852 298.718 42.1711C298.922 42.057 299.149 42 299.4 42C299.603 42 299.79 42.0374 299.96 42.1123C300.132 42.1836 300.285 42.2995 300.419 42.4599C300.553 42.6168 300.666 42.8271 300.759 43.0909C300.855 43.3512 300.928 43.6702 300.978 44.0481C301.028 44.426 301.054 44.8699 301.054 45.3797ZM300.386 46.7273V45.2139C300.386 44.8645 300.372 44.5579 300.343 44.2941C300.317 44.0267 300.278 43.7986 300.225 43.6096C300.172 43.4207 300.105 43.2674 300.024 43.1497C299.945 43.0321 299.853 42.9465 299.748 42.893C299.645 42.836 299.529 42.8075 299.4 42.8075C299.242 42.8075 299.102 42.852 298.98 42.9412C298.858 43.0267 298.756 43.164 298.672 43.3529C298.591 43.5419 298.528 43.7897 298.485 44.0963C298.442 44.4029 298.421 44.7754 298.421 45.2139V46.7273C298.421 47.0766 298.434 47.385 298.46 47.6524C298.489 47.9198 298.531 48.1515 298.586 48.3476C298.641 48.5401 298.708 48.6988 298.787 48.8235C298.866 48.9483 298.956 49.041 299.059 49.1016C299.164 49.1586 299.28 49.1872 299.407 49.1872C299.57 49.1872 299.712 49.1408 299.834 49.0481C299.956 48.9554 300.058 48.8111 300.139 48.615C300.223 48.4153 300.285 48.1604 300.325 47.8503C300.366 47.5365 300.386 47.1622 300.386 46.7273Z" fill="white"/>
<path d="M305.186 45.3797V46.5668C305.186 47.205 305.148 47.7433 305.071 48.1818C304.994 48.6203 304.884 48.9733 304.741 49.2406C304.598 49.508 304.424 49.7023 304.221 49.8235C304.02 49.9412 303.793 50 303.539 50C303.339 50 303.153 49.9626 302.983 49.8877C302.814 49.8128 302.661 49.6934 302.524 49.5294C302.39 49.3619 302.276 49.1444 302.18 48.877C302.084 48.6096 302.011 48.2852 301.961 47.9037C301.911 47.5223 301.886 47.0766 301.886 46.5668V45.3797C301.886 44.7415 301.924 44.2068 302.001 43.7754C302.079 43.344 302.191 42.9982 302.334 42.738C302.478 42.4742 302.65 42.2852 302.851 42.1711C303.054 42.057 303.281 42 303.532 42C303.735 42 303.922 42.0374 304.092 42.1123C304.264 42.1836 304.417 42.2995 304.551 42.4599C304.685 42.6168 304.798 42.8271 304.892 43.0909C304.987 43.3512 305.06 43.6702 305.11 44.0481C305.161 44.426 305.186 44.8699 305.186 45.3797ZM304.519 46.7273V45.2139C304.519 44.8645 304.504 44.5579 304.476 44.2941C304.449 44.0267 304.41 43.7986 304.357 43.6096C304.305 43.4207 304.238 43.2674 304.156 43.1497C304.077 43.0321 303.985 42.9465 303.88 42.893C303.777 42.836 303.661 42.8075 303.532 42.8075C303.374 42.8075 303.234 42.852 303.113 42.9412C302.991 43.0267 302.888 43.164 302.804 43.3529C302.723 43.5419 302.661 43.7897 302.618 44.0963C302.574 44.4029 302.553 44.7754 302.553 45.2139V46.7273C302.553 47.0766 302.566 47.385 302.592 47.6524C302.621 47.9198 302.663 48.1515 302.718 48.3476C302.773 48.5401 302.84 48.6988 302.919 48.8235C302.998 48.9483 303.089 49.041 303.191 49.1016C303.297 49.1586 303.413 49.1872 303.539 49.1872C303.702 49.1872 303.844 49.1408 303.966 49.0481C304.088 48.9554 304.19 48.8111 304.271 48.615C304.355 48.4153 304.417 48.1604 304.458 47.8503C304.498 47.5365 304.519 47.1622 304.519 46.7273Z" fill="white"/>
<path d="M309.318 45.3797V46.5668C309.318 47.205 309.28 47.7433 309.203 48.1818C309.127 48.6203 309.017 48.9733 308.873 49.2406C308.73 49.508 308.556 49.7023 308.353 49.8235C308.152 49.9412 307.925 50 307.672 50C307.471 50 307.285 49.9626 307.116 49.8877C306.946 49.8128 306.793 49.6934 306.656 49.5294C306.523 49.3619 306.408 49.1444 306.312 48.877C306.216 48.6096 306.144 48.2852 306.093 47.9037C306.043 47.5223 306.018 47.0766 306.018 46.5668V45.3797C306.018 44.7415 306.056 44.2068 306.133 43.7754C306.212 43.344 306.323 42.9982 306.466 42.738C306.61 42.4742 306.782 42.2852 306.983 42.1711C307.186 42.057 307.413 42 307.664 42C307.868 42 308.054 42.0374 308.224 42.1123C308.396 42.1836 308.549 42.2995 308.683 42.4599C308.817 42.6168 308.931 42.8271 309.024 43.0909C309.12 43.3512 309.192 43.6702 309.243 44.0481C309.293 44.426 309.318 44.8699 309.318 45.3797ZM308.651 46.7273V45.2139C308.651 44.8645 308.636 44.5579 308.608 44.2941C308.581 44.0267 308.542 43.7986 308.489 43.6096C308.437 43.4207 308.37 43.2674 308.289 43.1497C308.21 43.0321 308.118 42.9465 308.012 42.893C307.91 42.836 307.794 42.8075 307.664 42.8075C307.507 42.8075 307.367 42.852 307.245 42.9412C307.123 43.0267 307.02 43.164 306.936 43.3529C306.855 43.5419 306.793 43.7897 306.75 44.0963C306.707 44.4029 306.685 44.7754 306.685 45.2139V46.7273C306.685 47.0766 306.698 47.385 306.725 47.6524C306.753 47.9198 306.795 48.1515 306.85 48.3476C306.905 48.5401 306.972 48.6988 307.051 48.8235C307.13 48.9483 307.221 49.041 307.324 49.1016C307.429 49.1586 307.545 49.1872 307.672 49.1872C307.834 49.1872 307.976 49.1408 308.098 49.0481C308.22 48.9554 308.322 48.8111 308.403 48.615C308.487 48.4153 308.549 48.1604 308.59 47.8503C308.631 47.5365 308.651 47.1622 308.651 46.7273Z" fill="white"/>
<path d="M315.272 45.3797V46.5668C315.272 47.205 315.234 47.7433 315.158 48.1818C315.081 48.6203 314.971 48.9733 314.828 49.2406C314.684 49.508 314.511 49.7023 314.308 49.8235C314.107 49.9412 313.879 50 313.626 50C313.425 50 313.24 49.9626 313.07 49.8877C312.9 49.8128 312.747 49.6934 312.611 49.5294C312.477 49.3619 312.362 49.1444 312.267 48.877C312.171 48.6096 312.098 48.2852 312.048 47.9037C311.998 47.5223 311.972 47.0766 311.972 46.5668V45.3797C311.972 44.7415 312.011 44.2068 312.087 43.7754C312.166 43.344 312.277 42.9982 312.421 42.738C312.564 42.4742 312.736 42.2852 312.937 42.1711C313.141 42.057 313.368 42 313.619 42C313.822 42 314.009 42.0374 314.178 42.1123C314.351 42.1836 314.504 42.2995 314.638 42.4599C314.771 42.6168 314.885 42.8271 314.978 43.0909C315.074 43.3512 315.147 43.6702 315.197 44.0481C315.247 44.426 315.272 44.8699 315.272 45.3797ZM314.605 46.7273V45.2139C314.605 44.8645 314.591 44.5579 314.562 44.2941C314.536 44.0267 314.496 43.7986 314.444 43.6096C314.391 43.4207 314.324 43.2674 314.243 43.1497C314.164 43.0321 314.072 42.9465 313.967 42.893C313.864 42.836 313.748 42.8075 313.619 42.8075C313.461 42.8075 313.321 42.852 313.199 42.9412C313.077 43.0267 312.974 43.164 312.891 43.3529C312.809 43.5419 312.747 43.7897 312.704 44.0963C312.661 44.4029 312.64 44.7754 312.64 45.2139V46.7273C312.64 47.0766 312.653 47.385 312.679 47.6524C312.708 47.9198 312.75 48.1515 312.805 48.3476C312.86 48.5401 312.927 48.6988 313.005 48.8235C313.084 48.9483 313.175 49.041 313.278 49.1016C313.383 49.1586 313.499 49.1872 313.626 49.1872C313.789 49.1872 313.931 49.1408 314.053 49.0481C314.175 48.9554 314.276 48.8111 314.358 48.615C314.441 48.4153 314.504 48.1604 314.544 47.8503C314.585 47.5365 314.605 47.1622 314.605 46.7273Z" fill="white"/>
<path d="M319.405 45.3797V46.5668C319.405 47.205 319.366 47.7433 319.29 48.1818C319.213 48.6203 319.103 48.9733 318.96 49.2406C318.816 49.508 318.643 49.7023 318.44 49.8235C318.239 49.9412 318.012 50 317.758 50C317.557 50 317.372 49.9626 317.202 49.8877C317.032 49.8128 316.879 49.6934 316.743 49.5294C316.609 49.3619 316.494 49.1444 316.399 48.877C316.303 48.6096 316.23 48.2852 316.18 47.9037C316.13 47.5223 316.105 47.0766 316.105 46.5668V45.3797C316.105 44.7415 316.143 44.2068 316.219 43.7754C316.298 43.344 316.41 42.9982 316.553 42.738C316.696 42.4742 316.869 42.2852 317.07 42.1711C317.273 42.057 317.5 42 317.751 42C317.954 42 318.141 42.0374 318.311 42.1123C318.483 42.1836 318.636 42.2995 318.77 42.4599C318.904 42.6168 319.017 42.8271 319.111 43.0909C319.206 43.3512 319.279 43.6702 319.329 44.0481C319.38 44.426 319.405 44.8699 319.405 45.3797ZM318.737 46.7273V45.2139C318.737 44.8645 318.723 44.5579 318.694 44.2941C318.668 44.0267 318.629 43.7986 318.576 43.6096C318.523 43.4207 318.457 43.2674 318.375 43.1497C318.296 43.0321 318.204 42.9465 318.099 42.893C317.996 42.836 317.88 42.8075 317.751 42.8075C317.593 42.8075 317.453 42.852 317.331 42.9412C317.209 43.0267 317.107 43.164 317.023 43.3529C316.942 43.5419 316.879 43.7897 316.836 44.0963C316.793 44.4029 316.772 44.7754 316.772 45.2139V46.7273C316.772 47.0766 316.785 47.385 316.811 47.6524C316.84 47.9198 316.882 48.1515 316.937 48.3476C316.992 48.5401 317.059 48.6988 317.138 48.8235C317.217 48.9483 317.307 49.041 317.41 49.1016C317.516 49.1586 317.631 49.1872 317.758 49.1872C317.921 49.1872 318.063 49.1408 318.185 49.0481C318.307 48.9554 318.409 48.8111 318.49 48.615C318.574 48.4153 318.636 48.1604 318.677 47.8503C318.717 47.5365 318.737 47.1622 318.737 46.7273Z" fill="white"/>
<path d="M323.537 45.3797V46.5668C323.537 47.205 323.499 47.7433 323.422 48.1818C323.346 48.6203 323.236 48.9733 323.092 49.2406C322.949 49.508 322.775 49.7023 322.572 49.8235C322.371 49.9412 322.144 50 321.89 50C321.69 50 321.504 49.9626 321.334 49.8877C321.165 49.8128 321.012 49.6934 320.875 49.5294C320.741 49.3619 320.627 49.1444 320.531 48.877C320.435 48.6096 320.362 48.2852 320.312 47.9037C320.262 47.5223 320.237 47.0766 320.237 46.5668V45.3797C320.237 44.7415 320.275 44.2068 320.352 43.7754C320.431 43.344 320.542 42.9982 320.685 42.738C320.829 42.4742 321.001 42.2852 321.202 42.1711C321.405 42.057 321.632 42 321.883 42C322.087 42 322.273 42.0374 322.443 42.1123C322.615 42.1836 322.768 42.2995 322.902 42.4599C323.036 42.6168 323.149 42.8271 323.243 43.0909C323.338 43.3512 323.411 43.6702 323.462 44.0481C323.512 44.426 323.537 44.8699 323.537 45.3797ZM322.87 46.7273V45.2139C322.87 44.8645 322.855 44.5579 322.827 44.2941C322.8 44.0267 322.761 43.7986 322.708 43.6096C322.656 43.4207 322.589 43.2674 322.507 43.1497C322.429 43.0321 322.336 42.9465 322.231 42.893C322.128 42.836 322.012 42.8075 321.883 42.8075C321.725 42.8075 321.586 42.852 321.464 42.9412C321.342 43.0267 321.239 43.164 321.155 43.3529C321.074 43.5419 321.012 43.7897 320.969 44.0963C320.926 44.4029 320.904 44.7754 320.904 45.2139V46.7273C320.904 47.0766 320.917 47.385 320.943 47.6524C320.972 47.9198 321.014 48.1515 321.069 48.3476C321.124 48.5401 321.191 48.6988 321.27 48.8235C321.349 48.9483 321.44 49.041 321.543 49.1016C321.648 49.1586 321.764 49.1872 321.89 49.1872C322.053 49.1872 322.195 49.1408 322.317 49.0481C322.439 48.9554 322.541 48.8111 322.622 48.615C322.706 48.4153 322.768 48.1604 322.809 47.8503C322.849 47.5365 322.87 47.1622 322.87 46.7273Z" fill="white"/>
<path d="M329.491 45.3797V46.5668C329.491 47.205 329.453 47.7433 329.377 48.1818C329.3 48.6203 329.19 48.9733 329.047 49.2406C328.903 49.508 328.73 49.7023 328.526 49.8235C328.326 49.9412 328.098 50 327.845 50C327.644 50 327.459 49.9626 327.289 49.8877C327.119 49.8128 326.966 49.6934 326.83 49.5294C326.696 49.3619 326.581 49.1444 326.485 48.877C326.39 48.6096 326.317 48.2852 326.267 47.9037C326.216 47.5223 326.191 47.0766 326.191 46.5668V45.3797C326.191 44.7415 326.23 44.2068 326.306 43.7754C326.385 43.344 326.496 42.9982 326.64 42.738C326.783 42.4742 326.955 42.2852 327.156 42.1711C327.359 42.057 327.587 42 327.838 42C328.041 42 328.227 42.0374 328.397 42.1123C328.569 42.1836 328.722 42.2995 328.856 42.4599C328.99 42.6168 329.104 42.8271 329.197 43.0909C329.293 43.3512 329.366 43.6702 329.416 44.0481C329.466 44.426 329.491 44.8699 329.491 45.3797ZM328.824 46.7273V45.2139C328.824 44.8645 328.81 44.5579 328.781 44.2941C328.755 44.0267 328.715 43.7986 328.663 43.6096C328.61 43.4207 328.543 43.2674 328.462 43.1497C328.383 43.0321 328.291 42.9465 328.186 42.893C328.083 42.836 327.967 42.8075 327.838 42.8075C327.68 42.8075 327.54 42.852 327.418 42.9412C327.296 43.0267 327.193 43.164 327.11 43.3529C327.028 43.5419 326.966 43.7897 326.923 44.0963C326.88 44.4029 326.858 44.7754 326.858 45.2139V46.7273C326.858 47.0766 326.872 47.385 326.898 47.6524C326.927 47.9198 326.968 48.1515 327.023 48.3476C327.078 48.5401 327.145 48.6988 327.224 48.8235C327.303 48.9483 327.394 49.041 327.497 49.1016C327.602 49.1586 327.718 49.1872 327.845 49.1872C328.007 49.1872 328.15 49.1408 328.272 49.0481C328.394 48.9554 328.495 48.8111 328.577 48.615C328.66 48.4153 328.722 48.1604 328.763 47.8503C328.804 47.5365 328.824 47.1622 328.824 46.7273Z" fill="white"/>
<path d="M333.624 45.3797V46.5668C333.624 47.205 333.585 47.7433 333.509 48.1818C333.432 48.6203 333.322 48.9733 333.179 49.2406C333.035 49.508 332.862 49.7023 332.659 49.8235C332.458 49.9412 332.231 50 331.977 50C331.776 50 331.591 49.9626 331.421 49.8877C331.251 49.8128 331.098 49.6934 330.962 49.5294C330.828 49.3619 330.713 49.1444 330.618 48.877C330.522 48.6096 330.449 48.2852 330.399 47.9037C330.349 47.5223 330.323 47.0766 330.323 46.5668V45.3797C330.323 44.7415 330.362 44.2068 330.438 43.7754C330.517 43.344 330.628 42.9982 330.772 42.738C330.915 42.4742 331.088 42.2852 331.288 42.1711C331.492 42.057 331.719 42 331.97 42C332.173 42 332.36 42.0374 332.529 42.1123C332.702 42.1836 332.855 42.2995 332.989 42.4599C333.123 42.6168 333.236 42.8271 333.329 43.0909C333.425 43.3512 333.498 43.6702 333.548 44.0481C333.598 44.426 333.624 44.8699 333.624 45.3797ZM332.956 46.7273V45.2139C332.956 44.8645 332.942 44.5579 332.913 44.2941C332.887 44.0267 332.848 43.7986 332.795 43.6096C332.742 43.4207 332.675 43.2674 332.594 43.1497C332.515 43.0321 332.423 42.9465 332.318 42.893C332.215 42.836 332.099 42.8075 331.97 42.8075C331.812 42.8075 331.672 42.852 331.55 42.9412C331.428 43.0267 331.325 43.164 331.242 43.3529C331.16 43.5419 331.098 43.7897 331.055 44.0963C331.012 44.4029 330.991 44.7754 330.991 45.2139V46.7273C330.991 47.0766 331.004 47.385 331.03 47.6524C331.059 47.9198 331.101 48.1515 331.156 48.3476C331.211 48.5401 331.278 48.6988 331.357 48.8235C331.435 48.9483 331.526 49.041 331.629 49.1016C331.734 49.1586 331.85 49.1872 331.977 49.1872C332.14 49.1872 332.282 49.1408 332.404 49.0481C332.526 48.9554 332.628 48.8111 332.709 48.615C332.793 48.4153 332.855 48.1604 332.895 47.8503C332.936 47.5365 332.956 47.1622 332.956 46.7273Z" fill="white"/>
<path d="M337.756 45.3797V46.5668C337.756 47.205 337.717 47.7433 337.641 48.1818C337.564 48.6203 337.454 48.9733 337.311 49.2406C337.167 49.508 336.994 49.7023 336.791 49.8235C336.59 49.9412 336.363 50 336.109 50C335.908 50 335.723 49.9626 335.553 49.8877C335.384 49.8128 335.231 49.6934 335.094 49.5294C334.96 49.3619 334.846 49.1444 334.75 48.877C334.654 48.6096 334.581 48.2852 334.531 47.9037C334.481 47.5223 334.456 47.0766 334.456 46.5668V45.3797C334.456 44.7415 334.494 44.2068 334.57 43.7754C334.649 43.344 334.761 42.9982 334.904 42.738C335.048 42.4742 335.22 42.2852 335.421 42.1711C335.624 42.057 335.851 42 336.102 42C336.305 42 336.492 42.0374 336.662 42.1123C336.834 42.1836 336.987 42.2995 337.121 42.4599C337.255 42.6168 337.368 42.8271 337.462 43.0909C337.557 43.3512 337.63 43.6702 337.68 44.0481C337.731 44.426 337.756 44.8699 337.756 45.3797ZM337.089 46.7273V45.2139C337.089 44.8645 337.074 44.5579 337.046 44.2941C337.019 44.0267 336.98 43.7986 336.927 43.6096C336.875 43.4207 336.808 43.2674 336.726 43.1497C336.647 43.0321 336.555 42.9465 336.45 42.893C336.347 42.836 336.231 42.8075 336.102 42.8075C335.944 42.8075 335.804 42.852 335.682 42.9412C335.561 43.0267 335.458 43.164 335.374 43.3529C335.293 43.5419 335.231 43.7897 335.187 44.0963C335.144 44.4029 335.123 44.7754 335.123 45.2139V46.7273C335.123 47.0766 335.136 47.385 335.162 47.6524C335.191 47.9198 335.233 48.1515 335.288 48.3476C335.343 48.5401 335.41 48.6988 335.489 48.8235C335.568 48.9483 335.659 49.041 335.761 49.1016C335.867 49.1586 335.983 49.1872 336.109 49.1872C336.272 49.1872 336.414 49.1408 336.536 49.0481C336.658 48.9554 336.76 48.8111 336.841 48.615C336.925 48.4153 336.987 48.1604 337.028 47.8503C337.068 47.5365 337.089 47.1622 337.089 46.7273Z" fill="white"/>
<path d="M343.71 45.3797V46.5668C343.71 47.205 343.672 47.7433 343.595 48.1818C343.519 48.6203 343.409 48.9733 343.265 49.2406C343.122 49.508 342.949 49.7023 342.745 49.8235C342.544 49.9412 342.317 50 342.064 50C341.863 50 341.678 49.9626 341.508 49.8877C341.338 49.8128 341.185 49.6934 341.049 49.5294C340.915 49.3619 340.8 49.1444 340.704 48.877C340.609 48.6096 340.536 48.2852 340.485 47.9037C340.435 47.5223 340.41 47.0766 340.41 46.5668V45.3797C340.41 44.7415 340.448 44.2068 340.525 43.7754C340.604 43.344 340.715 42.9982 340.859 42.738C341.002 42.4742 341.174 42.2852 341.375 42.1711C341.578 42.057 341.805 42 342.057 42C342.26 42 342.446 42.0374 342.616 42.1123C342.788 42.1836 342.941 42.2995 343.075 42.4599C343.209 42.6168 343.323 42.8271 343.416 43.0909C343.512 43.3512 343.585 43.6702 343.635 44.0481C343.685 44.426 343.71 44.8699 343.71 45.3797ZM343.043 46.7273V45.2139C343.043 44.8645 343.029 44.5579 343 44.2941C342.974 44.0267 342.934 43.7986 342.882 43.6096C342.829 43.4207 342.762 43.2674 342.681 43.1497C342.602 43.0321 342.51 42.9465 342.405 42.893C342.302 42.836 342.186 42.8075 342.057 42.8075C341.899 42.8075 341.759 42.852 341.637 42.9412C341.515 43.0267 341.412 43.164 341.328 43.3529C341.247 43.5419 341.185 43.7897 341.142 44.0963C341.099 44.4029 341.077 44.7754 341.077 45.2139V46.7273C341.077 47.0766 341.09 47.385 341.117 47.6524C341.145 47.9198 341.187 48.1515 341.242 48.3476C341.297 48.5401 341.364 48.6988 341.443 48.8235C341.522 48.9483 341.613 49.041 341.716 49.1016C341.821 49.1586 341.937 49.1872 342.064 49.1872C342.226 49.1872 342.369 49.1408 342.491 49.0481C342.613 48.9554 342.714 48.8111 342.795 48.615C342.879 48.4153 342.941 48.1604 342.982 47.8503C343.023 47.5365 343.043 47.1622 343.043 46.7273Z" fill="white"/>
<path d="M347.842 45.3797V46.5668C347.842 47.205 347.804 47.7433 347.728 48.1818C347.651 48.6203 347.541 48.9733 347.398 49.2406C347.254 49.508 347.081 49.7023 346.877 49.8235C346.677 49.9412 346.449 50 346.196 50C345.995 50 345.81 49.9626 345.64 49.8877C345.47 49.8128 345.317 49.6934 345.181 49.5294C345.047 49.3619 344.932 49.1444 344.836 48.877C344.741 48.6096 344.668 48.2852 344.618 47.9037C344.567 47.5223 344.542 47.0766 344.542 46.5668V45.3797C344.542 44.7415 344.581 44.2068 344.657 43.7754C344.736 43.344 344.847 42.9982 344.991 42.738C345.134 42.4742 345.306 42.2852 345.507 42.1711C345.711 42.057 345.938 42 346.189 42C346.392 42 346.579 42.0374 346.748 42.1123C346.921 42.1836 347.074 42.2995 347.207 42.4599C347.341 42.6168 347.455 42.8271 347.548 43.0909C347.644 43.3512 347.717 43.6702 347.767 44.0481C347.817 44.426 347.842 44.8699 347.842 45.3797ZM347.175 46.7273V45.2139C347.175 44.8645 347.161 44.5579 347.132 44.2941C347.106 44.0267 347.066 43.7986 347.014 43.6096C346.961 43.4207 346.894 43.2674 346.813 43.1497C346.734 43.0321 346.642 42.9465 346.537 42.893C346.434 42.836 346.318 42.8075 346.189 42.8075C346.031 42.8075 345.891 42.852 345.769 42.9412C345.647 43.0267 345.544 43.164 345.461 43.3529C345.379 43.5419 345.317 43.7897 345.274 44.0963C345.231 44.4029 345.21 44.7754 345.21 45.2139V46.7273C345.21 47.0766 345.223 47.385 345.249 47.6524C345.278 47.9198 345.32 48.1515 345.375 48.3476C345.43 48.5401 345.496 48.6988 345.575 48.8235C345.654 48.9483 345.745 49.041 345.848 49.1016C345.953 49.1586 346.069 49.1872 346.196 49.1872C346.359 49.1872 346.501 49.1408 346.623 49.0481C346.745 48.9554 346.846 48.8111 346.928 48.615C347.011 48.4153 347.074 48.1604 347.114 47.8503C347.155 47.5365 347.175 47.1622 347.175 46.7273Z" fill="white"/>
<path d="M351.975 45.3797V46.5668C351.975 47.205 351.936 47.7433 351.86 48.1818C351.783 48.6203 351.673 48.9733 351.53 49.2406C351.386 49.508 351.213 49.7023 351.01 49.8235C350.809 49.9412 350.582 50 350.328 50C350.127 50 349.942 49.9626 349.772 49.8877C349.602 49.8128 349.449 49.6934 349.313 49.5294C349.179 49.3619 349.064 49.1444 348.969 48.877C348.873 48.6096 348.8 48.2852 348.75 47.9037C348.7 47.5223 348.675 47.0766 348.675 46.5668V45.3797C348.675 44.7415 348.713 44.2068 348.789 43.7754C348.868 43.344 348.979 42.9982 349.123 42.738C349.266 42.4742 349.439 42.2852 349.639 42.1711C349.843 42.057 350.07 42 350.321 42C350.524 42 350.711 42.0374 350.881 42.1123C351.053 42.1836 351.206 42.2995 351.34 42.4599C351.474 42.6168 351.587 42.8271 351.68 43.0909C351.776 43.3512 351.849 43.6702 351.899 44.0481C351.95 44.426 351.975 44.8699 351.975 45.3797ZM351.307 46.7273V45.2139C351.307 44.8645 351.293 44.5579 351.264 44.2941C351.238 44.0267 351.199 43.7986 351.146 43.6096C351.093 43.4207 351.026 43.2674 350.945 43.1497C350.866 43.0321 350.774 42.9465 350.669 42.893C350.566 42.836 350.45 42.8075 350.321 42.8075C350.163 42.8075 350.023 42.852 349.901 42.9412C349.779 43.0267 349.677 43.164 349.593 43.3529C349.512 43.5419 349.449 43.7897 349.406 44.0963C349.363 44.4029 349.342 44.7754 349.342 45.2139V46.7273C349.342 47.0766 349.355 47.385 349.381 47.6524C349.41 47.9198 349.452 48.1515 349.507 48.3476C349.562 48.5401 349.629 48.6988 349.708 48.8235C349.787 48.9483 349.877 49.041 349.98 49.1016C350.085 49.1586 350.201 49.1872 350.328 49.1872C350.491 49.1872 350.633 49.1408 350.755 49.0481C350.877 48.9554 350.979 48.8111 351.06 48.615C351.144 48.4153 351.206 48.1604 351.246 47.8503C351.287 47.5365 351.307 47.1622 351.307 46.7273Z" fill="white"/>
<path d="M355.178 46.8396H352.505V46H355.178C355.438 46 355.652 45.9376 355.82 45.8128C355.987 45.6881 356.11 45.5116 356.189 45.2834C356.271 45.0553 356.311 44.7861 356.311 44.4759C356.311 44.2228 356.273 43.9804 356.197 43.7487C356.122 43.5169 356.002 43.3262 355.834 43.1765C355.669 43.0267 355.45 42.9519 355.178 42.9519H353.937V49.893H353.248V42.107H355.178C355.572 42.107 355.905 42.2086 356.175 42.4118C356.445 42.6114 356.65 42.8895 356.788 43.246C356.929 43.5989 357 44.0053 357 44.4652C357 44.9643 356.929 45.3922 356.788 45.7487C356.65 46.1016 356.445 46.3725 356.175 46.5615C355.905 46.7469 355.572 46.8396 355.178 46.8396ZM355.135 47.5722V48.4171H352.505V47.5722H355.135Z" fill="white"/>
</g>
<path d="M114.075 19.984V21.1925H110.054L110 20.2567L112.327 15.107H113.205L112.254 17.3262L111.096 19.984H114.075ZM113.442 15.107V22.893H112.338V15.107H113.442Z" fill="white"/>
<path d="M118.43 18.3155V19.6631C118.43 20.2478 118.385 20.7522 118.295 21.1765C118.206 21.5971 118.077 21.943 117.908 22.2139C117.742 22.4813 117.544 22.6791 117.314 22.8075C117.084 22.9358 116.829 23 116.547 23C116.323 23 116.113 22.9608 115.919 22.8824C115.725 22.8004 115.549 22.6738 115.394 22.5027C115.24 22.3316 115.107 22.1159 114.995 21.8556C114.885 21.5918 114.801 21.2781 114.742 20.9144C114.683 20.5508 114.654 20.1337 114.654 19.6631V18.3155C114.654 17.7308 114.698 17.2299 114.788 16.8128C114.88 16.3922 115.009 16.0481 115.175 15.7807C115.344 15.5134 115.543 15.3173 115.773 15.1925C116.003 15.0642 116.259 15 116.54 15C116.765 15 116.973 15.041 117.165 15.123C117.359 15.2014 117.534 15.3244 117.69 15.492C117.846 15.6595 117.979 15.8752 118.088 16.139C118.198 16.3993 118.283 16.7112 118.341 17.0749C118.4 17.4349 118.43 17.8485 118.43 18.3155ZM117.322 19.8663V18.107C117.322 17.8253 117.31 17.5793 117.287 17.369C117.267 17.1586 117.235 16.9804 117.191 16.8342C117.148 16.6845 117.094 16.5633 117.03 16.4706C116.967 16.3779 116.894 16.3102 116.812 16.2674C116.73 16.2246 116.639 16.2032 116.54 16.2032C116.415 16.2032 116.303 16.2371 116.206 16.3048C116.112 16.3725 116.031 16.4813 115.965 16.631C115.898 16.7772 115.847 16.9733 115.811 17.2193C115.778 17.4617 115.762 17.7576 115.762 18.107V19.8663C115.762 20.148 115.772 20.3957 115.792 20.6096C115.815 20.8235 115.848 21.0071 115.892 21.1604C115.938 21.3102 115.992 21.4332 116.053 21.5294C116.117 21.6221 116.19 21.6898 116.271 21.7326C116.356 21.7754 116.448 21.7968 116.547 21.7968C116.67 21.7968 116.779 21.7629 116.873 21.6952C116.97 21.6239 117.052 21.5134 117.119 21.3636C117.188 21.2103 117.239 21.0107 117.272 20.7647C117.305 20.5187 117.322 20.2193 117.322 19.8663Z" fill="white"/>
<path d="M124.893 18.3155V19.6631C124.893 20.2478 124.848 20.7522 124.758 21.1765C124.669 21.5971 124.54 21.943 124.371 22.2139C124.205 22.4813 124.007 22.6791 123.777 22.8075C123.547 22.9358 123.292 23 123.01 23C122.786 23 122.576 22.9608 122.382 22.8824C122.188 22.8004 122.013 22.6738 121.857 22.5027C121.703 22.3316 121.57 22.1159 121.458 21.8556C121.348 21.5918 121.264 21.2781 121.205 20.9144C121.146 20.5508 121.117 20.1337 121.117 19.6631V18.3155C121.117 17.7308 121.162 17.2299 121.251 16.8128C121.343 16.3922 121.472 16.0481 121.638 15.7807C121.807 15.5134 122.006 15.3173 122.236 15.1925C122.466 15.0642 122.722 15 123.003 15C123.228 15 123.436 15.041 123.628 15.123C123.822 15.2014 123.997 15.3244 124.153 15.492C124.309 15.6595 124.442 15.8752 124.551 16.139C124.661 16.3993 124.746 16.7112 124.804 17.0749C124.863 17.4349 124.893 17.8485 124.893 18.3155ZM123.785 19.8663V18.107C123.785 17.8253 123.773 17.5793 123.75 17.369C123.73 17.1586 123.698 16.9804 123.654 16.8342C123.611 16.6845 123.557 16.5633 123.493 16.4706C123.43 16.3779 123.357 16.3102 123.275 16.2674C123.193 16.2246 123.102 16.2032 123.003 16.2032C122.878 16.2032 122.766 16.2371 122.669 16.3048C122.575 16.3725 122.494 16.4813 122.428 16.631C122.361 16.7772 122.31 16.9733 122.274 17.2193C122.241 17.4617 122.225 17.7576 122.225 18.107V19.8663C122.225 20.148 122.235 20.3957 122.255 20.6096C122.278 20.8235 122.312 21.0071 122.355 21.1604C122.401 21.3102 122.455 21.4332 122.516 21.5294C122.58 21.6221 122.653 21.6898 122.734 21.7326C122.819 21.7754 122.911 21.7968 123.01 21.7968C123.133 21.7968 123.242 21.7629 123.336 21.6952C123.433 21.6239 123.515 21.5134 123.582 21.3636C123.651 21.2103 123.702 21.0107 123.735 20.7647C123.768 20.5187 123.785 20.2193 123.785 19.8663Z" fill="white"/>
<path d="M129.401 18.3155V19.6631C129.401 20.2478 129.356 20.7522 129.267 21.1765C129.177 21.5971 129.048 21.943 128.879 22.2139C128.713 22.4813 128.515 22.6791 128.285 22.8075C128.055 22.9358 127.8 23 127.519 23C127.294 23 127.084 22.9608 126.89 22.8824C126.696 22.8004 126.521 22.6738 126.365 22.5027C126.211 22.3316 126.078 22.1159 125.966 21.8556C125.856 21.5918 125.772 21.2781 125.713 20.9144C125.654 20.5508 125.625 20.1337 125.625 19.6631V18.3155C125.625 17.7308 125.67 17.2299 125.759 16.8128C125.851 16.3922 125.98 16.0481 126.146 15.7807C126.315 15.5134 126.514 15.3173 126.744 15.1925C126.974 15.0642 127.23 15 127.511 15C127.736 15 127.944 15.041 128.136 15.123C128.33 15.2014 128.505 15.3244 128.661 15.492C128.817 15.6595 128.95 15.8752 129.06 16.139C129.169 16.3993 129.254 16.7112 129.313 17.0749C129.371 17.4349 129.401 17.8485 129.401 18.3155ZM128.293 19.8663V18.107C128.293 17.8253 128.281 17.5793 128.258 17.369C128.238 17.1586 128.206 16.9804 128.163 16.8342C128.119 16.6845 128.065 16.5633 128.002 16.4706C127.938 16.3779 127.865 16.3102 127.783 16.2674C127.701 16.2246 127.611 16.2032 127.511 16.2032C127.386 16.2032 127.274 16.2371 127.177 16.3048C127.083 16.3725 127.002 16.4813 126.936 16.631C126.869 16.7772 126.818 16.9733 126.783 17.2193C126.749 17.4617 126.733 17.7576 126.733 18.107V19.8663C126.733 20.148 126.743 20.3957 126.763 20.6096C126.786 20.8235 126.82 21.0071 126.863 21.1604C126.909 21.3102 126.963 21.4332 127.024 21.5294C127.088 21.6221 127.161 21.6898 127.243 21.7326C127.327 21.7754 127.419 21.7968 127.519 21.7968C127.641 21.7968 127.75 21.7629 127.844 21.6952C127.941 21.6239 128.023 21.5134 128.09 21.3636C128.159 21.2103 128.21 21.0107 128.243 20.7647C128.276 20.5187 128.293 20.2193 128.293 19.8663Z" fill="white"/>
<path d="M133.909 18.3155V19.6631C133.909 20.2478 133.864 20.7522 133.775 21.1765C133.685 21.5971 133.556 21.943 133.387 22.2139C133.221 22.4813 133.023 22.6791 132.793 22.8075C132.563 22.9358 132.308 23 132.027 23C131.802 23 131.592 22.9608 131.398 22.8824C131.204 22.8004 131.029 22.6738 130.873 22.5027C130.719 22.3316 130.587 22.1159 130.474 21.8556C130.364 21.5918 130.28 21.2781 130.221 20.9144C130.162 20.5508 130.133 20.1337 130.133 19.6631V18.3155C130.133 17.7308 130.178 17.2299 130.267 16.8128C130.359 16.3922 130.488 16.0481 130.654 15.7807C130.823 15.5134 131.022 15.3173 131.252 15.1925C131.482 15.0642 131.738 15 132.019 15C132.244 15 132.452 15.041 132.644 15.123C132.838 15.2014 133.013 15.3244 133.169 15.492C133.325 15.6595 133.458 15.8752 133.568 16.139C133.677 16.3993 133.762 16.7112 133.821 17.0749C133.879 17.4349 133.909 17.8485 133.909 18.3155ZM132.801 19.8663V18.107C132.801 17.8253 132.789 17.5793 132.766 17.369C132.746 17.1586 132.714 16.9804 132.671 16.8342C132.627 16.6845 132.573 16.5633 132.51 16.4706C132.446 16.3779 132.373 16.3102 132.291 16.2674C132.209 16.2246 132.119 16.2032 132.019 16.2032C131.894 16.2032 131.783 16.2371 131.685 16.3048C131.591 16.3725 131.51 16.4813 131.444 16.631C131.377 16.7772 131.326 16.9733 131.291 17.2193C131.257 17.4617 131.241 17.7576 131.241 18.107V19.8663C131.241 20.148 131.251 20.3957 131.271 20.6096C131.294 20.8235 131.328 21.0071 131.371 21.1604C131.417 21.3102 131.471 21.4332 131.532 21.5294C131.596 21.6221 131.669 21.6898 131.751 21.7326C131.835 21.7754 131.927 21.7968 132.027 21.7968C132.149 21.7968 132.258 21.7629 132.352 21.6952C132.45 21.6239 132.531 21.5134 132.598 21.3636C132.667 21.2103 132.718 21.0107 132.751 20.7647C132.784 20.5187 132.801 20.2193 132.801 19.8663Z" fill="white"/>
<path d="M140.372 18.3155V19.6631C140.372 20.2478 140.327 20.7522 140.238 21.1765C140.148 21.5971 140.019 21.943 139.85 22.2139C139.684 22.4813 139.486 22.6791 139.256 22.8075C139.026 22.9358 138.771 23 138.49 23C138.265 23 138.055 22.9608 137.861 22.8824C137.667 22.8004 137.492 22.6738 137.336 22.5027C137.182 22.3316 137.05 22.1159 136.937 21.8556C136.827 21.5918 136.743 21.2781 136.684 20.9144C136.625 20.5508 136.596 20.1337 136.596 19.6631V18.3155C136.596 17.7308 136.641 17.2299 136.73 16.8128C136.822 16.3922 136.951 16.0481 137.117 15.7807C137.286 15.5134 137.485 15.3173 137.715 15.1925C137.945 15.0642 138.201 15 138.482 15C138.707 15 138.915 15.041 139.107 15.123C139.301 15.2014 139.476 15.3244 139.632 15.492C139.788 15.6595 139.921 15.8752 140.031 16.139C140.141 16.3993 140.225 16.7112 140.284 17.0749C140.342 17.4349 140.372 17.8485 140.372 18.3155ZM139.264 19.8663V18.107C139.264 17.8253 139.252 17.5793 139.229 17.369C139.209 17.1586 139.177 16.9804 139.134 16.8342C139.09 16.6845 139.037 16.5633 138.973 16.4706C138.909 16.3779 138.836 16.3102 138.754 16.2674C138.672 16.2246 138.582 16.2032 138.482 16.2032C138.357 16.2032 138.246 16.2371 138.148 16.3048C138.054 16.3725 137.973 16.4813 137.907 16.631C137.841 16.7772 137.789 16.9733 137.754 17.2193C137.72 17.4617 137.704 17.7576 137.704 18.107V19.8663C137.704 20.148 137.714 20.3957 137.734 20.6096C137.757 20.8235 137.791 21.0071 137.834 21.1604C137.88 21.3102 137.934 21.4332 137.995 21.5294C138.059 21.6221 138.132 21.6898 138.214 21.7326C138.298 21.7754 138.39 21.7968 138.49 21.7968C138.612 21.7968 138.721 21.7629 138.815 21.6952C138.913 21.6239 138.994 21.5134 139.061 21.3636C139.13 21.2103 139.181 21.0107 139.214 20.7647C139.247 20.5187 139.264 20.2193 139.264 19.8663Z" fill="white"/>
<path d="M144.88 18.3155V19.6631C144.88 20.2478 144.835 20.7522 144.746 21.1765C144.656 21.5971 144.527 21.943 144.359 22.2139C144.192 22.4813 143.994 22.6791 143.764 22.8075C143.534 22.9358 143.279 23 142.998 23C142.773 23 142.563 22.9608 142.369 22.8824C142.175 22.8004 142 22.6738 141.844 22.5027C141.691 22.3316 141.558 22.1159 141.445 21.8556C141.335 21.5918 141.251 21.2781 141.192 20.9144C141.133 20.5508 141.104 20.1337 141.104 19.6631V18.3155C141.104 17.7308 141.149 17.2299 141.238 16.8128C141.33 16.3922 141.459 16.0481 141.625 15.7807C141.794 15.5134 141.993 15.3173 142.223 15.1925C142.453 15.0642 142.709 15 142.99 15C143.215 15 143.423 15.041 143.615 15.123C143.809 15.2014 143.984 15.3244 144.14 15.492C144.296 15.6595 144.429 15.8752 144.539 16.139C144.649 16.3993 144.733 16.7112 144.792 17.0749C144.85 17.4349 144.88 17.8485 144.88 18.3155ZM143.772 19.8663V18.107C143.772 17.8253 143.761 17.5793 143.738 17.369C143.717 17.1586 143.685 16.9804 143.642 16.8342C143.598 16.6845 143.545 16.5633 143.481 16.4706C143.417 16.3779 143.344 16.3102 143.262 16.2674C143.18 16.2246 143.09 16.2032 142.99 16.2032C142.865 16.2032 142.754 16.2371 142.657 16.3048C142.562 16.3725 142.481 16.4813 142.415 16.631C142.349 16.7772 142.297 16.9733 142.262 17.2193C142.228 17.4617 142.212 17.7576 142.212 18.107V19.8663C142.212 20.148 142.222 20.3957 142.243 20.6096C142.266 20.8235 142.299 21.0071 142.342 21.1604C142.388 21.3102 142.442 21.4332 142.503 21.5294C142.567 21.6221 142.64 21.6898 142.722 21.7326C142.806 21.7754 142.898 21.7968 142.998 21.7968C143.12 21.7968 143.229 21.7629 143.324 21.6952C143.421 21.6239 143.502 21.5134 143.569 21.3636C143.638 21.2103 143.689 21.0107 143.722 20.7647C143.755 20.5187 143.772 20.2193 143.772 19.8663Z" fill="white"/>
<path d="M149.388 18.3155V19.6631C149.388 20.2478 149.343 20.7522 149.254 21.1765C149.164 21.5971 149.035 21.943 148.867 22.2139C148.7 22.4813 148.502 22.6791 148.272 22.8075C148.042 22.9358 147.787 23 147.506 23C147.281 23 147.071 22.9608 146.877 22.8824C146.683 22.8004 146.508 22.6738 146.352 22.5027C146.199 22.3316 146.066 22.1159 145.953 21.8556C145.843 21.5918 145.759 21.2781 145.7 20.9144C145.641 20.5508 145.612 20.1337 145.612 19.6631V18.3155C145.612 17.7308 145.657 17.2299 145.746 16.8128C145.838 16.3922 145.967 16.0481 146.133 15.7807C146.302 15.5134 146.501 15.3173 146.731 15.1925C146.961 15.0642 147.217 15 147.498 15C147.723 15 147.931 15.041 148.123 15.123C148.317 15.2014 148.492 15.3244 148.648 15.492C148.804 15.6595 148.937 15.8752 149.047 16.139C149.157 16.3993 149.241 16.7112 149.3 17.0749C149.359 17.4349 149.388 17.8485 149.388 18.3155ZM148.28 19.8663V18.107C148.28 17.8253 148.269 17.5793 148.246 17.369C148.225 17.1586 148.193 16.9804 148.15 16.8342C148.106 16.6845 148.053 16.5633 147.989 16.4706C147.925 16.3779 147.852 16.3102 147.77 16.2674C147.688 16.2246 147.598 16.2032 147.498 16.2032C147.373 16.2032 147.262 16.2371 147.165 16.3048C147.07 16.3725 146.99 16.4813 146.923 16.631C146.857 16.7772 146.806 16.9733 146.77 17.2193C146.737 17.4617 146.72 17.7576 146.72 18.107V19.8663C146.72 20.148 146.73 20.3957 146.751 20.6096C146.774 20.8235 146.807 21.0071 146.85 21.1604C146.896 21.3102 146.95 21.4332 147.011 21.5294C147.075 21.6221 147.148 21.6898 147.23 21.7326C147.314 21.7754 147.406 21.7968 147.506 21.7968C147.628 21.7968 147.737 21.7629 147.832 21.6952C147.929 21.6239 148.01 21.5134 148.077 21.3636C148.146 21.2103 148.197 21.0107 148.23 20.7647C148.263 20.5187 148.28 20.2193 148.28 19.8663Z" fill="white"/>
<path d="M152.895 20.1176H149.959V18.8663H152.869C153.106 18.8663 153.295 18.8146 153.436 18.7112C153.579 18.6078 153.683 18.4652 153.746 18.2834C153.81 18.098 153.842 17.8877 153.842 17.6524C153.842 17.4207 153.808 17.2086 153.739 17.016C153.672 16.82 153.569 16.6631 153.428 16.5455C153.29 16.4242 153.114 16.3636 152.899 16.3636H151.883V22.893H150.733V15.107H152.895C153.335 15.107 153.711 15.2157 154.022 15.4332C154.337 15.6506 154.578 15.9501 154.747 16.3316C154.916 16.713 155 17.1497 155 17.6417C155 18.1586 154.913 18.6025 154.739 18.9733C154.568 19.344 154.325 19.6275 154.011 19.8235C153.699 20.0196 153.327 20.1176 152.895 20.1176ZM153.106 20.5561V21.8075H149.959V20.5561H153.106Z" fill="white"/>
<path d="M12 33H357V36H12V33Z" fill="white"/>
<path d="M12 33H224V36H12V33Z" fill="url(#paint0_linear_174_22)"/>
<defs>
<linearGradient id="paint0_linear_174_22" x1="37.716" y1="33" x2="42.9945" y2="64.1909" gradientUnits="userSpaceOnUse">
<stop stop-color="#69F3D7"/>
<stop offset="1" stop-color="#008065"/>
</linearGradient>
</defs>
</svg>
