<svg width="183" height="189" viewBox="0 0 183 189" fill="none" xmlns="http://www.w3.org/2000/svg">
<g clip-path="url(#clip0_7_680)">
<path fill-rule="evenodd" clip-rule="evenodd" d="M171.329 75.432C171.329 32.97 137.706 0 96.3724 0C55.0391 0 21.4157 32.97 21.4157 73.5C8.96224 79.7685 -0.000418658 91.308 -0.000418658 105V126C-0.000418658 134.354 3.38409 142.366 9.40856 148.274C15.433 154.181 23.604 157.5 32.1238 157.5H42.8319C45.6719 157.5 48.3955 156.394 50.4037 154.425C52.4118 152.455 53.54 149.785 53.54 147V84C53.54 81.2152 52.4118 78.5445 50.4037 76.5754C48.3955 74.6063 45.6719 73.5 42.8319 73.5C42.8319 59.5761 48.4728 46.2226 58.5136 36.3769C68.5543 26.5312 82.1726 21 96.3724 21C110.572 21 124.19 26.5312 134.231 36.3769C144.272 46.2226 149.913 59.5761 149.913 73.5C147.073 73.5 144.349 74.6063 142.341 76.5754C140.333 78.5445 139.205 81.2152 139.205 84V147C139.205 149.785 140.333 152.455 142.341 154.425C144.349 156.394 147.073 157.5 149.913 157.5V168H122.157C119.952 161.9 114.062 157.5 107.08 157.5H85.6643C81.4043 157.5 77.3189 159.159 74.3066 162.113C71.2944 165.067 69.6021 169.073 69.6021 173.25C69.6021 177.427 71.2944 181.433 74.3066 184.387C77.3189 187.341 81.4043 189 85.6643 189H149.913C155.593 189 161.04 186.788 165.056 182.849C169.073 178.911 171.329 173.57 171.329 168V155.579C177.579 153.425 182.995 149.424 186.831 144.126C190.666 138.829 192.732 132.496 192.745 126V105C192.733 98.5046 190.667 92.1727 186.831 86.877C182.996 81.5814 177.579 77.5826 171.329 75.432L-74.957 651Z" fill="url(#paint0_linear_7_680)"/>
</g>
<defs>
<linearGradient id="paint0_linear_7_680" x1="34.6504" y1="40.5763" x2="153.843" y2="193.825" gradientUnits="userSpaceOnUse">
<stop stop-color="#3C3C3C"/>
<stop offset="1" stop-color="#262626"/>
</linearGradient>
<clipPath id="clip0_7_680">
<rect width="183" height="189" fill="white"/>
</clipPath>
</defs>
</svg>
