<svg width="20" height="18" viewBox="0 0 20 18" fill="none" xmlns="http://www.w3.org/2000/svg">
<path fill-rule="evenodd" clip-rule="evenodd" d="M3.66461 0.388544L0.0163591 8.05015C0.00177063 8.07791 -0.00325384 8.1097 0.00206445 8.14061C0.00738273 8.17151 0.0227468 8.1998 0.0457752 8.22109L9.89397 17.6627C9.92231 17.6882 9.9591 17.7024 9.99725 17.7024C10.0354 17.7024 10.0722 17.6882 10.1005 17.6627L19.9546 8.22109C19.9774 8.19965 19.9926 8.17138 19.9979 8.14054C20.0032 8.1097 19.9983 8.07797 19.984 8.05015L16.3358 0.388544C16.3261 0.361895 16.3082 0.338986 16.2848 0.323081C16.2613 0.307176 16.2334 0.299088 16.205 0.299969H3.79404C3.76608 0.300734 3.73891 0.309479 3.71575 0.325172C3.69258 0.340865 3.67439 0.362853 3.66331 0.388544H3.66461Z" fill="#50AF95"/>
<path fill-rule="evenodd" clip-rule="evenodd" d="M11.268 8.83399C11.1974 8.83987 10.832 8.8634 10.0185 8.8634C9.37033 8.8634 8.91046 8.84575 8.7454 8.83399C6.24078 8.7222 4.37253 8.28586 4.37253 7.76716C4.37253 7.24845 6.24078 6.80656 8.7454 6.69478V8.39797C8.90883 8.40974 9.37622 8.43915 10.0244 8.43915C10.8022 8.43915 11.1912 8.40385 11.2621 8.39797V6.69478C13.7609 6.80656 15.6291 7.2429 15.6291 7.76128C15.6291 8.27965 13.7661 8.7222 11.268 8.83399ZM11.268 6.52384V4.99714H14.7571V2.66934H5.25665V4.99714H8.7454V6.52384C5.91067 6.65458 3.77734 7.21316 3.77734 7.89103C3.77734 8.56891 5.91067 9.12292 8.7454 9.25823V14.1443H11.268V9.25823C14.0969 9.12749 16.2246 8.56859 16.2246 7.89692C16.2246 7.22525 14.0969 6.65327 11.268 6.52416V6.52384Z" fill="white"/>
</svg>
