<svg width="20" height="20" viewBox="0 0 20 20" fill="none" xmlns="http://www.w3.org/2000/svg">
<path d="M10 20C15.5228 20 20 15.5228 20 10C20 4.47715 15.5228 0 10 0C4.47715 0 0 4.47715 0 10C0 15.5228 4.47715 20 10 20Z" fill="#FF007A"/>
<path d="M7.65352 3.17697C7.47539 3.14947 7.46789 3.14572 7.55164 3.13322C7.71227 3.10822 8.09227 3.1426 8.35414 3.20447C8.96477 3.3501 9.52039 3.72197 10.1141 4.3826L10.2716 4.5576L10.4966 4.52197C11.4466 4.36885 12.4135 4.49072 13.2216 4.86385C13.4441 4.96635 13.7948 5.17072 13.8385 5.22385C13.8529 5.2401 13.8785 5.34822 13.8954 5.46322C13.9554 5.86135 13.9254 6.16635 13.8041 6.39447C13.7379 6.51822 13.7341 6.55697 13.7785 6.66322C13.7996 6.70711 13.8325 6.7442 13.8736 6.77027C13.9147 6.79635 13.9623 6.81036 14.011 6.81072C14.2123 6.81072 14.4285 6.48572 14.5285 6.03385L14.5685 5.85447L14.6473 5.94385C15.0798 6.43385 15.4191 7.10197 15.4773 7.57697L15.4929 7.70134L15.4198 7.58885C15.2948 7.3951 15.1698 7.2626 15.0085 7.15572C14.7185 6.96385 14.4116 6.89885 13.5991 6.85572C12.8654 6.81697 12.4498 6.75447 12.0385 6.6201C11.3379 6.39197 10.9848 6.0876 10.1523 4.99572C9.78289 4.51072 9.55414 4.2426 9.32727 4.02697C8.81039 3.53572 8.30289 3.27822 7.65352 3.17697Z" fill="white"/>
<path d="M14.0484 4.62625C14.0671 4.30125 14.1109 4.08687 14.1996 3.89125C14.2346 3.81375 14.2677 3.75 14.2727 3.75C14.2672 3.79387 14.2556 3.83677 14.2384 3.8775C14.174 4.0675 14.1634 4.3275 14.2077 4.62937C14.264 5.01313 14.2965 5.06813 14.7015 5.4825C14.8921 5.67687 15.1134 5.92187 15.1934 6.0275L15.339 6.21875L15.1934 6.08188C15.0152 5.915 14.6052 5.58813 14.5146 5.54188C14.454 5.51063 14.4446 5.51125 14.4071 5.54813C14.3727 5.58313 14.3652 5.63437 14.3609 5.87875C14.3534 6.25875 14.3015 6.50375 14.1759 6.7475C14.1084 6.87875 14.0977 6.85125 14.159 6.70188C14.2046 6.59062 14.209 6.54187 14.209 6.17375C14.209 5.43375 14.1209 5.25625 13.6052 4.95125C13.4501 4.86122 13.2907 4.77863 13.1277 4.70375C13.0472 4.67145 12.9691 4.63343 12.894 4.59C12.9084 4.57562 13.4109 4.72187 13.6127 4.8C13.914 4.91562 13.9634 4.93062 14.0002 4.91625C14.0246 4.90688 14.0365 4.83562 14.0484 4.62625ZM8.04398 5.89187C7.68211 5.39375 7.45836 4.62937 7.50648 4.05813L7.52149 3.88125L7.60399 3.89625C7.75899 3.92437 8.02586 4.02375 8.15086 4.1C8.49336 4.30813 8.64211 4.5825 8.79273 5.28625C8.83711 5.4925 8.89524 5.72563 8.92211 5.805C8.96461 5.93187 9.12711 6.22875 9.25961 6.42188C9.35461 6.56063 9.29086 6.62625 9.08086 6.6075C8.75961 6.57812 8.32461 6.27812 8.04398 5.89187ZM13.6096 9.60125C11.9177 8.92 11.3221 8.32875 11.3221 7.33125C11.3221 7.18437 11.3271 7.06437 11.3327 7.06437C11.339 7.06437 11.4046 7.1125 11.4784 7.17188C11.8215 7.44688 12.2059 7.56438 13.269 7.71938C13.8946 7.81125 14.2471 7.885 14.5721 7.9925C15.6046 8.335 16.2434 9.03 16.3959 9.97625C16.4396 10.2513 16.414 10.7669 16.3421 11.0388C16.2859 11.2538 16.1127 11.6406 16.0671 11.6556C16.0546 11.6594 16.0421 11.6113 16.0384 11.5444C16.0209 11.1894 15.8415 10.8431 15.5396 10.5837C15.1965 10.2894 14.7365 10.0544 13.6096 9.60125ZM12.4221 9.88375C12.4021 9.76303 12.3748 9.64364 12.3402 9.52625L12.2965 9.3975L12.3771 9.4875C12.4877 9.6125 12.5759 9.77125 12.6496 9.98375C12.7065 10.1456 12.7127 10.1938 12.7121 10.4569C12.7121 10.7156 12.7052 10.7694 12.6527 10.9156C12.5797 11.1301 12.4575 11.3244 12.2959 11.4831C11.9865 11.7981 11.5896 11.9719 11.0159 12.0444C10.9159 12.0569 10.6259 12.0781 10.3702 12.0913C9.72649 12.125 9.30336 12.1938 8.92273 12.3275C8.88841 12.3429 8.85154 12.3518 8.81398 12.3538C8.79898 12.3381 9.05773 12.1838 9.27211 12.0806C9.57398 11.935 9.87399 11.8556 10.5471 11.7438C10.8796 11.6881 11.2234 11.6213 11.3102 11.5944C12.134 11.3419 12.5577 10.6906 12.4221 9.88375Z" fill="white"/>
<path d="M12.7912 11.4694C12.5662 10.9862 12.515 10.5194 12.6381 10.0844C12.6512 10.0381 12.6725 10 12.685 10C12.7273 10.0153 12.7671 10.0368 12.8031 10.0637C12.9069 10.1337 13.1144 10.2513 13.6675 10.5525C14.3581 10.9294 14.7519 11.2212 15.02 11.5537C15.2544 11.8456 15.3994 12.1781 15.4694 12.5831C15.5087 12.8125 15.4856 13.3644 15.4269 13.5956C15.2413 14.3244 14.8094 14.8969 14.1944 15.2306C14.1363 15.2642 14.0762 15.2941 14.0144 15.32C14.0056 15.32 14.0381 15.2369 14.0875 15.1344C14.2938 14.7019 14.3181 14.2806 14.1613 13.8119C14.0656 13.525 13.87 13.1744 13.4756 12.5831C13.0169 11.8956 12.9044 11.7119 12.7912 11.4694ZM6.43687 14.0763C7.065 13.5463 7.84562 13.17 8.5575 13.0544C8.86375 13.0044 9.375 13.0244 9.65875 13.0969C10.1137 13.2131 10.5213 13.4744 10.7331 13.785C10.9394 14.0887 11.0287 14.3537 11.1206 14.9425C11.1581 15.175 11.1975 15.4081 11.2094 15.4612C11.2781 15.7662 11.4138 16.0106 11.5813 16.1331C11.8469 16.3275 12.305 16.3394 12.755 16.1644C12.802 16.1428 12.8516 16.1273 12.9025 16.1181C12.9188 16.1344 12.6925 16.2862 12.5325 16.3662C12.3437 16.4673 12.1322 16.5185 11.9181 16.515C11.5056 16.515 11.1631 16.3056 10.8775 15.8775C10.8212 15.7931 10.695 15.5412 10.5962 15.3169C10.295 14.6294 10.1462 14.4194 9.79625 14.19C9.49062 13.99 9.0975 13.9544 8.80188 14.0994C8.41313 14.29 8.305 14.7869 8.58312 15.1012C8.69375 15.2262 8.9 15.3344 9.06875 15.355C9.14236 15.3648 9.21721 15.3586 9.28824 15.3369C9.35927 15.3153 9.42482 15.2786 9.48045 15.2294C9.53609 15.1802 9.58052 15.1197 9.61074 15.0519C9.64096 14.984 9.65627 14.9105 9.65562 14.8363C9.65562 14.6287 9.57563 14.5112 9.37563 14.4206C9.1025 14.2975 8.80875 14.4412 8.81 14.6981C8.81062 14.8075 8.85813 14.8762 8.96812 14.9262C9.03875 14.9575 9.04 14.9606 8.9825 14.9488C8.73187 14.8962 8.67312 14.5944 8.875 14.3938C9.11687 14.1525 9.6175 14.2587 9.78937 14.5875C9.86188 14.7256 9.87 15.0013 9.80687 15.1675C9.66625 15.5394 9.255 15.7344 8.83812 15.6281C8.55438 15.5556 8.43875 15.4775 8.09687 15.125C7.5025 14.5125 7.27188 14.3937 6.41438 14.26L6.25 14.2344L6.43687 14.0763Z" fill="white"/>
<path fill-rule="evenodd" clip-rule="evenodd" d="M3.75 1.9775L3.81 2.05062C6.1275 4.88812 7.325 6.36062 7.40125 6.46562C7.52625 6.63937 7.47937 6.795 7.26437 6.9175C7.145 6.98562 6.89875 7.05437 6.77625 7.05437C6.63687 7.05437 6.48 6.9875 6.36562 6.87937C6.285 6.8025 5.95937 6.31625 5.2075 5.14938C4.85541 4.59787 4.49873 4.04931 4.1375 3.50375C4.10687 3.475 4.1075 3.47562 5.14875 5.33875C5.8025 6.50875 6.02375 6.92188 6.02375 6.9775C6.02375 7.09 5.9925 7.14875 5.85375 7.30375C5.6225 7.56187 5.51937 7.85187 5.44437 8.45187C5.36062 9.125 5.12563 9.6 4.47313 10.4131C4.09188 10.8894 4.02937 10.9769 3.9325 11.1687C3.81125 11.41 3.77812 11.5456 3.76437 11.8506C3.75 12.1731 3.77813 12.3819 3.87688 12.69C3.96313 12.96 4.05312 13.1387 4.28312 13.495C4.48187 13.8031 4.59625 14.0319 4.59625 14.1212C4.59625 14.1925 4.61 14.1925 4.91812 14.1231C5.655 13.9569 6.25312 13.6637 6.59 13.305C6.79812 13.0831 6.84687 12.9606 6.84875 12.6562C6.84938 12.4575 6.8425 12.4156 6.78875 12.3012C6.70125 12.115 6.54187 11.96 6.19062 11.72C5.73 11.405 5.53375 11.1513 5.47938 10.8031C5.43438 10.5175 5.48625 10.3156 5.74125 9.78187C6.00437 9.22937 6.07 8.99437 6.11437 8.4375C6.1425 8.0775 6.18187 7.93563 6.28562 7.82188C6.39313 7.70313 6.49063 7.6625 6.7575 7.62625C7.1925 7.56687 7.46937 7.45438 7.69687 7.245C7.89437 7.0625 7.97687 6.88688 7.98937 6.62313L7.99937 6.42313L7.88875 6.29437C7.73 6.10938 6.41687 4.66062 3.94875 1.94688L3.8825 1.875L3.75 1.9775ZM4.82125 12.2162C4.86485 12.139 4.87787 12.0483 4.85773 11.9619C4.83759 11.8756 4.78576 11.7999 4.7125 11.75C4.57 11.655 4.34812 11.7 4.34812 11.8238C4.34812 11.8612 4.36875 11.8887 4.41563 11.9131C4.495 11.9537 4.50062 12 4.43875 12.0931C4.37562 12.1881 4.38063 12.2719 4.45312 12.3287C4.56937 12.42 4.73375 12.3694 4.82125 12.2162ZM8.27375 7.73125C8.06938 7.79375 7.87125 8.01062 7.80937 8.2375C7.77187 8.37563 7.79312 8.61875 7.84937 8.69375C7.94 8.815 8.02812 8.84688 8.26562 8.845C8.73062 8.84188 9.13438 8.6425 9.18187 8.39312C9.22062 8.18875 9.0425 7.90562 8.79812 7.78062C8.67187 7.71688 8.40375 7.69125 8.27375 7.73125ZM8.8175 8.15625C8.88937 8.05438 8.8575 7.94375 8.73625 7.87C8.50375 7.72813 8.1525 7.845 8.1525 8.065C8.1525 8.17375 8.33562 8.29312 8.50312 8.29312C8.61562 8.29312 8.76812 8.22625 8.8175 8.15625Z" fill="white"/>
</svg>
