<svg width="50" height="50" viewBox="0 0 50 50" fill="none" xmlns="http://www.w3.org/2000/svg">
<path d="M48.8686 10.3851C48.306 12.4472 47.5475 14.2422 46.5973 15.8719L46.6369 15.7991C45.7035 17.6126 44.5887 19.7079 43.2926 22.085C42.1813 23.9617 41.593 24.9332 41.5278 24.9996C41.2402 25.4198 41.0402 25.9347 40.9714 26.5006L40.9693 26.5176C41.0256 27.0326 41.2298 27.4819 41.5278 27.8171L42.3612 28.9004C46.8203 34.2422 49.3284 37.9244 49.8854 39.9468C49.9583 40.1703 50 40.4277 50 40.6973C50 41.1685 49.8708 41.6033 49.652 41.9604L49.6562 41.9531C49.2895 42.3927 48.7769 42.6647 48.2101 42.6647C48.1476 42.6647 48.083 42.6623 48.0226 42.655H48.0309H42.5488C42.5467 42.655 42.5425 42.655 42.5383 42.655C41.8361 42.655 41.1902 42.3684 40.6839 41.8923L40.6901 41.8972C39.9525 41.1904 39.2961 40.4253 38.7085 39.5946L38.6898 39.5655C37.7299 38.3009 36.8784 37.2362 36.1352 36.3715C33.6598 33.6285 31.8331 32.257 30.6551 32.257C30.6114 32.2522 30.5613 32.2498 30.5093 32.2498C30.1654 32.2498 29.8446 32.3736 29.5799 32.5849L29.5862 32.5801C29.3695 32.8958 29.2382 33.3039 29.2382 33.7435C29.2382 33.831 29.2424 33.9135 29.2528 33.9985V33.9888C29.1965 34.7515 29.1632 35.638 29.1632 36.5343C29.1632 36.8233 29.1674 37.1099 29.1736 37.3965V37.3552V40.1703C29.1944 40.2844 29.207 40.4156 29.207 40.5492C29.207 41.137 28.9777 41.6616 28.6194 42.0089L28.6173 42.0114C27.8109 42.4413 26.8691 42.6939 25.8751 42.6939C25.6626 42.6939 25.4542 42.6817 25.248 42.6599L25.275 42.6623C21.9953 42.5894 18.9532 41.4697 16.3673 39.5825L16.4402 39.6311C13.2918 37.4014 10.683 34.4989 8.6952 31.0693L8.63894 30.9673C6.75113 28.0478 4.99042 24.7494 3.49016 21.2713L3.34431 20.8973C2.46708 18.9493 1.55859 16.5545 0.775129 14.0916L0.650108 13.6422C0.331305 12.5347 0.100017 11.2474 0.00416736 9.91394L0 9.85322C0 8.62584 0.619548 8.01214 1.85864 8.01214H7.33872C7.38873 8.00729 7.44707 8.00486 7.5075 8.00486C8.02425 8.00486 8.50142 8.21131 8.87856 8.55864L8.8744 8.55378C9.29113 9.0857 9.59952 9.73907 9.75163 10.4677L9.75788 10.4969C10.7664 13.8171 11.8353 16.6055 13.0647 19.2772L12.9251 18.9445C13.9294 21.3005 15.04 23.3286 16.3069 25.2012L16.259 25.1259C17.3703 26.716 18.2371 27.5111 18.8594 27.5111C18.8781 27.5135 18.9011 27.5135 18.9261 27.5135C19.2345 27.5135 19.5032 27.3192 19.6491 27.0277L19.6512 27.0229C19.8054 26.5614 19.895 26.0246 19.895 25.466C19.895 25.3469 19.8908 25.2279 19.8825 25.1113V25.1259V15.7044C19.8387 14.5944 19.6054 13.5572 19.2157 12.627L19.2324 12.6731C18.974 12.0319 18.6635 11.4781 18.2947 10.9851L18.301 10.9948C17.9592 10.5965 17.7259 10.0742 17.6529 9.49132L17.6509 9.47675C17.6509 9.06384 17.8134 8.69223 18.0676 8.44934L18.0697 8.44691C18.3218 8.17731 18.6594 8.01457 19.0282 8.01457H19.0448H27.6838C27.7296 8.00729 27.7817 8.00486 27.8359 8.00486C28.2422 8.00486 28.6068 8.2186 28.8486 8.55378L28.8506 8.55621C29.0653 9.01284 29.1924 9.55933 29.1924 10.1374C29.1924 10.2297 29.1882 10.3196 29.1819 10.4094V10.3973V22.9618C29.1778 23.0201 29.1757 23.0881 29.1757 23.1561C29.1757 23.603 29.282 24.0232 29.4653 24.3802L29.4612 24.3705C29.6133 24.6329 29.8675 24.8029 30.155 24.8029H30.1571C30.5238 24.7737 30.8572 24.6328 31.1385 24.4094L31.1323 24.4143C31.699 23.9601 32.1866 23.4427 32.6096 22.8574L32.6179 22.8452C33.8827 21.179 35.0496 19.3379 36.0664 17.3803L36.1477 17.2102C36.8645 15.8258 37.6396 14.1207 38.3418 12.3695L38.471 12.0125L39.4003 9.84593C39.7233 8.76266 40.5901 8 41.609 8C41.6486 8 41.6882 8 41.7278 8.00243H41.7215H47.2037C48.6845 8.00243 49.2402 8.79667 48.8706 10.3851H48.8686Z" fill="#161617"/>
</svg>
