<svg width="3721" height="1354" viewBox="0 0 3721 1354" fill="none" xmlns="http://www.w3.org/2000/svg">
<path d="M3719.93 990.249C3194.18 1384.28 2679.61 697.211 2283.89 693.136C1713.62 687.264 1599.58 1367.84 1305.48 1081.27C1011.4 794.73 735.771 545.823 495.449 1041.45C255.127 1537.08 6.62988 1294.07 6.62988 1294.07" stroke="white" stroke-opacity="0.1" stroke-width="0.6687" stroke-miterlimit="10"/>
<path d="M6.54004 1285.36C9.86412 1283.83 264.71 1532.85 505.691 1044.72C746.672 556.608 1015.95 787.75 1310.42 1070.3C1605.42 1352.92 1721.23 698.499 2294.23 703.202C2691.17 706.528 3199.27 1366.04 3718.16 975.03" stroke="white" stroke-opacity="0.1" stroke-width="0.6738" stroke-miterlimit="10"/>
<path d="M6.4502 1276.64C13.0984 1273.58 274.293 1528.57 515.933 1047.98C757.572 567.394 1020.5 780.769 1315.33 1059.34C1611.23 1337.99 1728.77 709.764 2304.53 713.269C2702.7 715.846 3204.3 1347.76 3716.39 959.78" stroke="white" stroke-opacity="0.1" stroke-width="0.679" stroke-miterlimit="10"/>
<path d="M6.36035 1267.92C16.3326 1263.33 283.906 1524.32 526.175 1051.25C768.443 578.18 1025.06 773.788 1320.24 1048.37C1617.04 1323.1 1736.35 721.029 2314.86 723.336C2714.26 725.133 3209.4 1329.46 3714.63 944.56" stroke="white" stroke-opacity="0.1" stroke-width="0.6841" stroke-miterlimit="10"/>
<path d="M6.27051 1259.17C19.5668 1253.09 293.489 1520 536.416 1054.48C779.344 588.965 1029.61 766.778 1325.15 1037.41C1622.88 1308.21 1743.9 732.264 2325.16 733.432C2725.82 734.481 3214.43 1311.21 3712.83 929.371" stroke="white" stroke-opacity="0.1" stroke-width="0.6893" stroke-miterlimit="10"/>
<path d="M6.18066 1250.45C22.8011 1242.84 303.072 1515.75 546.658 1057.75C790.244 599.751 1033.62 760.426 1330.06 1026.44C1628.12 1293.92 1751.44 743.529 2335.46 743.499C2737.35 743.798 3219.49 1292.94 3711.06 914.151" stroke="white" stroke-opacity="0.1" stroke-width="0.6944" stroke-miterlimit="10"/>
<path d="M6.09082 1241.73C26.0652 1232.6 312.655 1511.49 556.9 1061.01C801.145 610.536 1038.08 753.565 1335 1015.48C1633.87 1279.12 1759.05 754.794 2345.79 753.565C2748.91 753.116 3224.55 1274.66 3709.3 898.901" stroke="white" stroke-opacity="0.1" stroke-width="0.6996" stroke-miterlimit="10"/>
<path d="M6.00098 1233.02C29.2995 1222.35 322.268 1507.21 567.142 1064.28C812.015 621.352 1042.54 746.704 1339.92 1004.51C1639.59 1264.35 1766.6 766.029 2356.1 763.632C2760.44 762.404 3229.61 1256.38 3707.53 883.682" stroke="white" stroke-opacity="0.1" stroke-width="0.7047" stroke-miterlimit="10"/>
<path d="M5.91113 1224.3C32.5337 1212.1 331.851 1502.95 577.383 1067.55C822.916 632.137 1047.04 739.844 1344.83 993.545C1645.34 1249.58 1774.17 777.294 2366.43 773.728C2772.02 771.751 3234.7 1238.14 3705.76 868.492" stroke="white" stroke-opacity="0.1" stroke-width="0.7099" stroke-miterlimit="10"/>
<path d="M5.85156 1215.58C35.7982 1201.86 341.464 1498.7 587.655 1070.81C833.847 642.923 1051.53 732.983 1349.77 982.609C1651.09 1234.81 1781.75 788.589 2376.73 783.825C2783.55 781.099 3239.73 1219.89 3704 853.272" stroke="white" stroke-opacity="0.1" stroke-width="0.715" stroke-miterlimit="10"/>
<path d="M5.76172 1206.83C39.0325 1191.58 351.077 1494.39 597.897 1074.05C844.748 653.709 1056.02 726.092 1354.68 971.614C1656.84 1220.01 1789.33 799.794 2387.06 793.861C2795.11 790.386 3244.82 1201.59 3702.23 838.022" stroke="white" stroke-opacity="0.1" stroke-width="0.7201" stroke-miterlimit="10"/>
<path d="M5.67188 1198.11C42.2667 1181.33 360.66 1490.13 608.139 1077.31C855.618 664.494 1060.51 719.231 1359.59 960.649C1662.56 1205.21 1796.87 811.059 2397.36 803.958C2806.64 799.734 3249.85 1183.34 3700.46 822.833" stroke="white" stroke-opacity="0.1" stroke-width="0.7253" stroke-miterlimit="10"/>
<path d="M5.58203 1189.39C45.5009 1171.12 370.243 1485.85 618.381 1080.58C866.519 675.28 1064.98 712.34 1364.53 949.683C1668.34 1190.41 1804.45 822.323 2407.69 814.025C2818.2 809.021 3254.95 1165.04 3698.69 807.613" stroke="white" stroke-opacity="0.1" stroke-width="0.7304" stroke-miterlimit="10"/>
<path d="M5.49219 1180.68C48.7352 1160.87 379.855 1481.59 628.622 1083.84C877.389 686.095 1069.5 705.479 1369.44 938.748C1674.09 1175.67 1812.02 833.588 2418 824.121C2829.76 818.369 3259.98 1146.79 3696.9 792.393" stroke="white" stroke-opacity="0.1" stroke-width="0.7356" stroke-miterlimit="10"/>
<path d="M5.40234 1171.96C51.9694 1150.63 389.438 1477.34 638.864 1087.11C888.29 696.881 1073.99 698.619 1374.35 927.783C1679.87 1160.87 1819.57 844.853 2428.3 834.188C2841.29 827.686 3265.04 1128.51 3695.13 777.174" stroke="white" stroke-opacity="0.1" stroke-width="0.7407" stroke-miterlimit="10"/>
<path d="M5.3125 1163.21C55.2036 1140.35 399.021 1473.02 649.106 1090.35C899.191 707.667 1078.48 691.698 1379.27 916.787C1685.62 1146.04 1827.15 856.088 2438.6 844.254C2852.82 837.004 3270.1 1110.24 3693.33 761.954" stroke="white" stroke-opacity="0.1" stroke-width="0.7459" stroke-miterlimit="10"/>
<path d="M5.22266 1154.49C58.4379 1130.1 408.604 1468.77 659.348 1093.61C910.091 718.452 1083 684.807 1384.18 905.822C1691.37 1131.24 1834.69 867.323 2448.93 854.321C2864.38 846.291 3275.16 1091.96 3691.6 746.734" stroke="white" stroke-opacity="0.1" stroke-width="0.751" stroke-miterlimit="10"/>
<path d="M5.13281 1145.77C61.6721 1119.86 418.217 1464.52 669.589 1096.88C920.962 729.238 1087.5 677.946 1389.09 894.857C1697.15 1116.44 1842.24 878.588 2459.23 864.387C2875.94 855.609 3280.22 1073.69 3689.8 731.485" stroke="white" stroke-opacity="0.1" stroke-width="0.7562" stroke-miterlimit="10"/>
<path d="M5.04297 1137.05C64.9064 1109.61 427.8 1460.23 679.831 1100.14C931.862 740.053 1092.02 671.055 1394.03 883.921C1702.96 1101.67 1849.85 889.883 2469.56 874.484C2887.5 864.956 3285.28 1055.44 3688.06 716.295" stroke="white" stroke-opacity="0.1" stroke-width="0.7613" stroke-miterlimit="10"/>
<path d="M4.9834 1128.33C68.2008 1099.39 437.413 1455.98 690.103 1103.41C942.793 750.839 1096.57 664.165 1398.97 872.956C1708.77 1086.87 1857.42 901.148 2479.9 884.58C2899.06 874.304 3290.37 1037.2 3686.3 701.105" stroke="white" stroke-opacity="0.1" stroke-width="0.7664" stroke-miterlimit="10"/>
<path d="M4.89355 1119.62C71.435 1089.15 447.026 1451.69 700.345 1106.67C953.694 761.625 1101.12 657.274 1403.88 861.99C1714.55 1072.04 1865 912.383 2490.2 894.647C2910.59 883.592 3295.4 1018.92 3684.53 685.886" stroke="white" stroke-opacity="0.1" stroke-width="0.7716" stroke-miterlimit="10"/>
<path d="M4.80273 1110.87C74.6683 1078.87 456.608 1447.41 710.586 1109.91C964.563 772.41 1105.64 650.353 1408.79 850.995C1720.36 1057.21 1872.55 923.618 2500.5 904.684C2922.15 892.879 3300.46 1000.59 3682.73 670.606" stroke="white" stroke-opacity="0.1" stroke-width="0.7767" stroke-miterlimit="10"/>
<path d="M4.71289 1102.15C77.9025 1068.62 466.191 1443.15 720.828 1113.18C975.464 783.196 1110.19 643.462 1413.7 840.06C1726.14 1042.41 1880.09 934.913 2510.83 914.78C2933.71 902.227 3305.55 982.34 3680.97 655.416" stroke="white" stroke-opacity="0.1" stroke-width="0.7819" stroke-miterlimit="10"/>
<path d="M4.62305 1093.43C81.1368 1058.38 475.804 1438.87 731.069 1116.44C986.335 794.011 1114.72 636.541 1418.61 829.094C1731.95 1027.61 1887.67 946.148 2521.13 924.877C2945.24 911.574 3310.59 964.094 3679.2 640.227" stroke="white" stroke-opacity="0.1" stroke-width="0.787" stroke-miterlimit="10"/>
<path d="M4.5332 1084.71C84.371 1048.13 485.387 1434.62 741.311 1119.71C997.235 804.797 1119.27 629.621 1423.56 818.099C1737.79 1012.75 1895.25 957.383 2531.46 934.913C2956.8 920.832 3315.68 945.789 3677.43 624.947" stroke="white" stroke-opacity="0.1" stroke-width="0.7922" stroke-miterlimit="10"/>
<path d="M4.44336 1075.99C87.6053 1037.89 494.97 1430.36 751.553 1122.97C1008.14 815.582 1123.82 622.73 1428.47 807.164C1743.57 997.949 1902.82 968.678 2541.76 945.01C2968.35 930.179 3320.71 927.543 3675.66 609.757" stroke="white" stroke-opacity="0.1" stroke-width="0.7973" stroke-miterlimit="10"/>
<path d="M4.35449 1067.25C90.8405 1027.64 504.554 1426.05 761.795 1126.21C1019.04 826.338 1128.37 615.779 1433.38 796.168C1749.41 983.089 1910.37 979.883 2552.07 955.046C2979.89 939.467 3325.77 909.237 3673.87 594.508" stroke="white" stroke-opacity="0.1" stroke-width="0.8024" stroke-miterlimit="10"/>
<path d="M4.26465 1058.53C94.0747 1017.39 514.167 1421.79 772.037 1129.47C1029.91 837.154 1132.92 608.858 1438.29 785.233C1755.22 968.259 1917.95 991.178 2562.37 965.173C2991.41 948.845 3330.8 891.022 3672.1 579.348" stroke="white" stroke-opacity="0.1" stroke-width="0.8076" stroke-miterlimit="10"/>
<path d="M4.2041 1049.81C97.3382 1007.15 523.779 1417.51 782.308 1132.74C1040.84 847.939 1137.54 601.938 1443.23 774.268C1761.06 953.428 1925.52 1002.44 2572.7 975.239C3002.97 958.162 3335.89 872.746 3670.34 564.098" stroke="white" stroke-opacity="0.1" stroke-width="0.8127" stroke-miterlimit="10"/>
<path d="M4.11426 1041.09C100.572 996.9 533.362 1413.25 792.55 1136C1051.74 858.755 1142.09 595.017 1448.14 763.302C1766.89 938.568 1933.07 1013.68 2583.03 985.306C3014.56 967.45 3340.98 854.441 3668.6 548.878" stroke="white" stroke-opacity="0.1" stroke-width="0.8179" stroke-miterlimit="10"/>
<path d="M4.02441 1032.37C103.807 986.654 542.975 1409 802.792 1139.27C1062.61 869.54 1146.67 588.036 1453.08 752.337C1772.73 923.738 1940.68 1024.94 2593.36 995.402C3026.12 976.797 3346.04 836.195 3666.83 533.689" stroke="white" stroke-opacity="0.1" stroke-width="0.823" stroke-miterlimit="10"/>
<path d="M3.93457 1023.65C107.071 976.408 552.557 1404.72 813.034 1142.54C1073.51 880.326 1151.25 581.115 1457.99 741.401C1778.57 908.908 1948.22 1036.24 2603.66 1005.5C3037.65 986.145 3351.1 817.949 3665.03 518.499" stroke="white" stroke-opacity="0.1" stroke-width="0.8282" stroke-miterlimit="10"/>
<path d="M3.84473 1014.91C110.305 966.131 562.14 1400.43 823.275 1145.77C1084.41 891.112 1155.83 574.165 1462.91 730.406C1784.41 893.988 1955.8 1047.44 2613.97 1015.54C3049.18 995.432 3356.13 799.644 3663.27 503.219" stroke="white" stroke-opacity="0.1" stroke-width="0.8333" stroke-miterlimit="10"/>
<path d="M3.75488 1006.19C113.539 955.915 571.723 1396.18 833.517 1149.04C1095.31 901.897 1160.41 567.214 1467.82 719.441C1790.25 879.128 1963.34 1058.71 2624.27 1025.6C3060.74 1004.72 3361.2 781.368 3661.47 488" stroke="white" stroke-opacity="0.1" stroke-width="0.8385" stroke-miterlimit="10"/>
<path d="M3.66504 997.47C116.774 945.669 581.336 1391.89 843.759 1152.3C1106.18 912.683 1165 560.233 1472.73 708.475C1796.09 864.238 1970.89 1069.97 2634.57 1035.7C3072.27 1014.07 3366.23 763.123 3659.7 472.81" stroke="white" stroke-opacity="0.1" stroke-width="0.8436" stroke-miterlimit="10"/>
<path d="M3.5752 988.751C120.008 935.422 590.919 1387.64 854.001 1155.57C1117.08 923.498 1169.58 553.283 1477.64 697.51C1801.96 849.377 1978.47 1081.24 2644.9 1045.77C3083.83 1023.39 3371.32 744.847 3657.94 457.59" stroke="white" stroke-opacity="0.1" stroke-width="0.8487" stroke-miterlimit="10"/>
<path d="M3.48535 980.033C123.242 925.176 600.502 1383.35 864.242 1158.83C1127.98 934.284 1174.19 546.302 1482.58 686.575C1807.83 834.517 1986.04 1092.5 2655.23 1055.86C3095.39 1032.73 3376.41 726.601 3656.2 442.371" stroke="white" stroke-opacity="0.1" stroke-width="0.8539" stroke-miterlimit="10"/>
<path d="M3.42578 971.285C126.507 914.9 610.145 1379.07 874.514 1162.04C1138.88 945.01 1178.8 539.261 1487.52 675.549C1813.7 819.567 1993.62 1103.74 2665.53 1065.9C3106.92 1041.99 3381.44 708.296 3654.4 427.121" stroke="white" stroke-opacity="0.1" stroke-width="0.859" stroke-miterlimit="10"/>
<path d="M3.33594 962.566C129.741 904.654 619.728 1374.82 884.756 1165.31C1149.78 955.795 1183.41 532.281 1492.43 664.584C1819.57 804.647 2001.2 1114.97 2675.87 1075.96C3118.51 1051.31 3386.53 689.99 3652.64 411.901" stroke="white" stroke-opacity="0.1" stroke-width="0.8642" stroke-miterlimit="10"/>
<path d="M3.24609 953.848C132.975 894.407 629.311 1370.53 894.998 1168.57C1160.68 966.611 1188 525.3 1497.35 653.619C1825.44 789.727 2008.77 1126.21 2686.17 1086.03C3130.04 1060.63 3391.56 671.714 3650.87 396.652" stroke="white" stroke-opacity="0.1" stroke-width="0.8693" stroke-miterlimit="10"/>
<path d="M3.15625 945.129C136.209 884.161 638.924 1366.28 905.24 1171.84C1171.59 977.426 1192.61 518.289 1502.26 642.683C1831.31 774.837 2016.32 1137.5 2696.47 1096.13C3141.57 1069.97 3396.62 653.469 3649.07 381.462" stroke="white" stroke-opacity="0.1" stroke-width="0.8745" stroke-miterlimit="10"/>
<path d="M3.06641 936.411C139.444 873.945 648.507 1362.02 915.481 1175.1C1182.46 988.212 1197.22 511.279 1507.2 631.718C1837.18 759.917 2023.9 1148.77 2706.83 1106.19C3153.16 1079.29 3401.71 635.193 3647.37 366.242" stroke="white" stroke-opacity="0.1" stroke-width="0.8796" stroke-miterlimit="10"/>
<path d="M2.97656 927.663C142.678 863.668 658.09 1357.71 925.723 1178.34C1193.36 998.968 1201.83 504.238 1512.11 620.723C1843.05 744.967 2031.47 1160 2717.13 1116.26C3164.72 1088.58 3406.77 616.918 3645.57 351.023" stroke="white" stroke-opacity="0.1" stroke-width="0.8847" stroke-miterlimit="10"/>
<path d="M2.88672 918.944C145.942 853.422 667.673 1353.45 935.965 1181.6C1204.26 1009.78 1206.44 497.227 1517.02 609.757C1848.92 730.017 2039.02 1171.24 2727.43 1126.33C3176.25 1097.9 3411.84 598.642 3643.8 335.773" stroke="white" stroke-opacity="0.1" stroke-width="0.8899" stroke-miterlimit="10"/>
<path d="M2.79688 910.226C149.176 843.176 677.286 1349.17 946.207 1184.87C1215.13 1020.57 1211.06 490.217 1521.93 598.792C1854.79 715.067 2046.6 1182.5 2737.74 1136.39C3187.77 1107.21 3416.87 580.366 3642.01 320.553" stroke="white" stroke-opacity="0.1" stroke-width="0.895" stroke-miterlimit="10"/>
<path d="M2.70703 901.508C152.41 832.929 686.869 1344.92 956.449 1188.13C1226.03 1031.35 1215.67 483.176 1526.84 587.856C1860.66 700.147 2054.14 1193.77 2748.04 1146.49C3199.3 1116.56 3421.93 562.121 3640.24 305.364" stroke="white" stroke-opacity="0.1" stroke-width="0.9002" stroke-miterlimit="10"/>
<path d="M2.61719 892.789C155.645 822.683 696.452 1340.66 966.69 1191.4C1236.93 1042.17 1220.28 476.136 1531.75 576.891C1866.53 685.167 2061.69 1205.03 2758.34 1156.59C3210.86 1125.88 3426.96 543.875 3638.44 290.174" stroke="white" stroke-opacity="0.1" stroke-width="0.9053" stroke-miterlimit="10"/>
<path d="M2.55762 884.071C158.909 812.437 706.095 1336.38 976.962 1194.67C1247.83 1052.96 1224.92 469.095 1536.73 565.926C1872.46 670.187 2069.33 1216.3 2768.73 1166.65C3222.48 1135.2 3432.11 525.57 3636.74 274.924" stroke="white" stroke-opacity="0.1" stroke-width="0.9105" stroke-miterlimit="10"/>
<path d="M2.46777 875.323C162.143 802.19 715.678 1332.09 987.204 1197.9C1258.73 1063.71 1229.53 461.995 1541.64 554.93C1878.33 655.177 2076.87 1227.5 2779.03 1176.69C3234.01 1144.48 3437.14 507.264 3634.97 259.675" stroke="white" stroke-opacity="0.1" stroke-width="0.9156" stroke-miterlimit="10"/>
<path d="M2.37793 866.604C165.378 791.944 725.261 1327.84 997.446 1201.17C1269.63 1074.53 1234.14 454.954 1546.55 543.995C1884.23 640.227 2084.45 1238.8 2789.33 1186.82C3245.54 1153.86 3442.2 489.048 3633.17 244.515" stroke="white" stroke-opacity="0.1" stroke-width="0.9208" stroke-miterlimit="10"/>
<path d="M2.28809 857.886C168.612 781.698 734.873 1323.55 1007.69 1204.43C1280.53 1085.31 1238.76 447.883 1551.46 533.03C1890.1 625.247 2092 1250.06 2799.64 1196.88C3257.1 1163.15 3447.26 470.773 3631.4 229.265" stroke="white" stroke-opacity="0.1" stroke-width="0.9259" stroke-miterlimit="10"/>
<path d="M2.19824 849.168C171.846 771.451 744.456 1319.3 1017.93 1207.7C1291.4 1096.1 1243.37 440.813 1556.37 522.064C1895.97 610.237 2099.54 1261.3 2809.94 1206.95C3268.63 1172.47 3452.29 452.497 3629.61 214.046" stroke="white" stroke-opacity="0.1" stroke-width="0.931" stroke-miterlimit="10"/>
<path d="M2.1084 840.449C175.08 761.205 754.039 1315.02 1028.17 1210.96C1302.3 1106.91 1247.98 433.712 1561.28 511.099C1901.84 595.227 2107.12 1272.56 2820.24 1217.02C3280.16 1181.78 3457.35 434.222 3627.84 198.826" stroke="white" stroke-opacity="0.1" stroke-width="0.9362" stroke-miterlimit="10"/>
<path d="M2.01855 831.701C178.345 750.959 763.652 1310.73 1038.41 1214.23C1313.2 1117.7 1252.59 426.612 1566.22 500.134C1907.73 580.187 2114.7 1283.83 2830.57 1227.11C3291.72 1191.13 3462.42 415.976 3626.07 183.636" stroke="white" stroke-opacity="0.1" stroke-width="0.9413" stroke-miterlimit="10"/>
<path d="M1.92871 822.983C181.549 740.682 773.235 1306.48 1048.65 1217.47C1324.07 1128.48 1257.17 419.481 1571.13 489.168C1913.6 565.147 2122.27 1295.09 2840.9 1237.18C3303.31 1200.42 3467.51 397.7 3624.34 168.387" stroke="white" stroke-opacity="0.1" stroke-width="0.9465" stroke-miterlimit="10"/>
<path d="M1.83887 814.264C184.783 730.466 782.818 1302.19 1058.9 1220.73C1334.97 1139.27 1261.78 412.381 1576.05 478.203C1919.47 550.107 2129.82 1306.33 2851.2 1247.25C3314.84 1209.74 3472.54 379.425 3622.54 153.167" stroke="white" stroke-opacity="0.1" stroke-width="0.9516" stroke-miterlimit="10"/>
<path d="M1.77832 805.546C188.077 720.22 792.43 1297.94 1069.17 1224C1345.87 1150.06 1266.43 405.28 1580.99 467.237C1925.37 535.067 2137.42 1317.59 2861.54 1257.31C3326.4 1219.05 3477.63 361.119 3620.77 137.947" stroke="white" stroke-opacity="0.1" stroke-width="0.9568" stroke-miterlimit="10"/>
<path d="M1.68848 796.827C191.311 709.973 802.043 1293.68 1079.41 1227.26C1356.78 1160.87 1271.04 398.15 1585.9 456.272C1931.21 520.027 2144.97 1328.86 2871.84 1267.41C3337.93 1228.4 3482.69 342.874 3619.01 122.757" stroke="white" stroke-opacity="0.1" stroke-width="0.9619" stroke-miterlimit="10"/>
<path d="M1.59863 788.079C194.545 699.697 811.626 1289.37 1089.65 1230.5C1367.68 1171.63 1275.62 390.989 1590.81 445.277C1937.08 504.927 2152.52 1340.06 2882.14 1277.45C3349.49 1237.69 3487.72 324.568 3617.21 107.478" stroke="white" stroke-opacity="0.1" stroke-width="0.967" stroke-miterlimit="10"/>
<path d="M1.50879 779.361C197.779 689.451 821.209 1285.12 1099.89 1233.76C1378.58 1182.41 1280.23 383.859 1595.75 434.341C1942.95 489.887 2160.09 1351.36 2892.47 1287.54C3361.05 1247.01 3492.81 306.322 3615.47 92.2881" stroke="white" stroke-opacity="0.1" stroke-width="0.9722" stroke-miterlimit="10"/>
<path d="M1.41895 770.642C201.013 679.205 830.822 1280.83 1110.13 1237.03C1389.48 1193.23 1284.81 376.728 1600.66 423.376C1948.82 474.787 2167.67 1362.62 2902.8 1297.61C3372.61 1256.32 3497.87 288.047 3613.71 77.0685" stroke="white" stroke-opacity="0.1" stroke-width="0.9773" stroke-miterlimit="10"/>
<path d="M1.3291 761.924C204.248 668.958 840.405 1276.58 1120.38 1240.3C1400.35 1204.01 1289.43 369.568 1605.57 412.411C1954.69 459.718 2175.25 1373.86 2913.1 1307.71C3384.13 1265.67 3502.93 269.801 3611.94 61.8488" stroke="white" stroke-opacity="0.1" stroke-width="0.9825" stroke-miterlimit="10"/>
<path d="M1.23926 753.206C207.482 658.712 849.988 1272.32 1130.62 1243.56C1411.25 1214.8 1294.07 361.868 1610.48 401.445C1960.62 443.989 2182.79 1385.12 2923.41 1317.77C3395.66 1274.99 3507.96 251.526 3610.14 46.6291" stroke="white" stroke-opacity="0.1" stroke-width="0.9876" stroke-miterlimit="10"/>
<path d="M1.14941 744.487C210.716 648.495 859.571 1268.04 1140.86 1246.83C1422.15 1225.61 1298.62 354.888 1615.39 390.51C1966.46 429.098 2190.37 1396.39 2933.74 1327.84C3407.25 1284.28 3513.05 233.25 3608.41 31.4094" stroke="white" stroke-opacity="0.1" stroke-width="0.9928" stroke-miterlimit="10"/>
<path d="M1.05957 735.739C213.95 638.219 869.184 1263.75 1151.1 1250.06C1433.02 1236.37 1303.17 347.877 1620.31 379.515C1972.24 414.178 2197.92 1407.62 2944.01 1337.9C3418.75 1293.59 3518.06 214.974 3606.58 16.1897" stroke="white" stroke-opacity="0.1" stroke-width="0.9979" stroke-miterlimit="10"/>
<path d="M1 727.021C217.215 627.973 878.797 1259.5 1161.37 1253.33C1443.95 1247.16 1307.78 340.896 1625.28 368.549C1978.11 399.288 2205.52 1418.89 2954.37 1348C3430.34 1302.94 3523.18 196.699 3604.84 1" stroke="white" stroke-opacity="0.1" stroke-width="1.0031" stroke-miterlimit="10"/>
</svg>
