<svg width="3280" height="2099" viewBox="0 0 3280 2099" fill="none" xmlns="http://www.w3.org/2000/svg">
<path d="M194.114 1208.27C628.916 1498.03 1007.46 929.715 1321.56 909.026C1774.22 879.224 1894.62 1414.65 2115.63 1174.14C2336.63 933.634 2544.6 723.805 2757.21 1106.82C2969.82 1489.84 3156.53 1285.9 3156.53 1285.9" stroke="white" stroke-opacity="0.1" stroke-width="0.6482" stroke-miterlimit="10"/>
<path d="M3156.11 1276.07C3152.28 1274.57 2958.83 1485.62 2745.95 1111.09C2533.06 736.564 2331.1 926.051 2109.47 1162.11C1887.21 1398.27 1766.43 892.301 1310.64 920.943C995.086 940.877 622.113 1477.86 195.138 1191.08" stroke="white" stroke-opacity="0.1" stroke-width="0.6553" stroke-miterlimit="10"/>
<path d="M3155.65 1266.3C3147.99 1263.29 2947.77 1481.44 2734.63 1115.41C2521.5 749.38 2325.55 918.525 2103.26 1150.13C1879.75 1381.93 1758.62 905.407 1299.68 932.907C982.701 952.068 615.29 1457.65 196.19 1173.91" stroke="white" stroke-opacity="0.1" stroke-width="0.6623" stroke-miterlimit="10"/>
<path d="M3155.23 1256.5C3143.73 1252 2936.77 1477.25 2723.36 1119.71C2509.94 762.167 2320.01 910.97 2097.05 1138.15C1872.26 1365.59 1750.82 918.541 1288.72 944.872C970.326 963.231 608.488 1437.48 197.223 1156.7" stroke="white" stroke-opacity="0.1" stroke-width="0.6694" stroke-miterlimit="10"/>
<path d="M3154.78 1246.69C3139.48 1240.7 2925.72 1473.03 2712.06 1123.99C2498.39 774.955 2314.97 903.941 2090.85 1126.14C1865.31 1349.73 1743.05 931.627 1277.76 956.837C957.941 974.422 601.658 1417.3 198.275 1139.52" stroke="white" stroke-opacity="0.1" stroke-width="0.6764" stroke-miterlimit="10"/>
<path d="M3154.32 1236.91C3135.19 1229.39 2914.69 1468.86 2700.74 1128.31C2486.84 787.743 2309.52 896.507 2084.64 1114.16C1857.97 1333.52 1735.24 944.761 1266.81 968.773C945.565 985.584 594.864 1397.1 199.328 1122.35" stroke="white" stroke-opacity="0.1" stroke-width="0.6835" stroke-miterlimit="10"/>
<path d="M3153.9 1227.12C3130.94 1218.09 2903.66 1464.66 2689.47 1132.61C2475.29 800.53 2304.09 889.081 2078.44 1102.15C1850.61 1317.28 1727.45 957.838 1255.86 980.71C933.181 996.775 588.033 1376.92 200.36 1105.13" stroke="white" stroke-opacity="0.1" stroke-width="0.6905" stroke-miterlimit="10"/>
<path d="M3153.44 1217.31C3126.65 1206.79 2892.64 1460.46 2678.18 1136.87C2463.72 813.281 2298.64 881.648 2072.25 1090.14C1843.25 1301.04 1719.65 970.944 1244.91 992.646C920.797 1007.97 581.24 1356.72 201.413 1087.96" stroke="white" stroke-opacity="0.1" stroke-width="0.6976" stroke-miterlimit="10"/>
<path d="M3152.99 1207.51C3122.37 1195.48 2881.58 1456.25 2666.87 1141.16C2452.15 826.097 2293.16 874.205 2066.04 1078.16C1835.88 1284.83 1711.85 984.05 1233.95 1004.61C908.392 1019.12 574.409 1336.54 202.437 1070.77" stroke="white" stroke-opacity="0.1" stroke-width="0.7046" stroke-miterlimit="10"/>
<path d="M3152.56 1197.74C3118.1 1184.21 2870.58 1452.08 2655.59 1145.48C2440.6 838.885 2287.7 866.799 2059.84 1066.15C1828.51 1268.59 1704.06 997.127 1223 1016.55C896.007 1030.31 567.615 1316.34 203.497 1053.57" stroke="white" stroke-opacity="0.1" stroke-width="0.7117" stroke-miterlimit="10"/>
<path d="M3152.11 1187.93C3113.82 1172.91 2859.52 1447.87 2644.29 1149.77C2429.05 851.672 2282.22 859.356 2053.64 1054.14C1821.12 1252.34 1696.25 1010.23 1212.07 1028.52C883.66 1041.48 560.813 1296.17 204.551 1036.39" stroke="white" stroke-opacity="0.1" stroke-width="0.7187" stroke-miterlimit="10"/>
<path d="M3151.66 1178.13C3109.57 1161.61 2848.5 1443.67 2632.98 1154.06C2417.5 864.46 2276.74 851.914 2047.43 1042.16C1813.73 1236.09 1688.48 1023.35 1201.11 1040.46C871.247 1052.66 553.982 1275.99 205.574 1019.21" stroke="white" stroke-opacity="0.1" stroke-width="0.7257" stroke-miterlimit="10"/>
<path d="M3151.24 1168.33C3105.31 1150.31 2837.47 1439.47 2621.71 1158.36C2405.94 877.247 2271.23 844.462 2041.23 1030.15C1806.31 1219.84 1680.65 1036.44 1190.13 1052.38C858.871 1063.83 547.189 1255.79 206.635 1002" stroke="white" stroke-opacity="0.1" stroke-width="0.7328" stroke-miterlimit="10"/>
<path d="M3150.78 1158.55C3101.03 1139.01 2826.44 1435.29 2610.4 1162.67C2394.35 890.055 2265.72 837.011 2035.03 1018.17C1798.91 1203.61 1672.85 1049.55 1179.17 1064.35C846.486 1075.02 540.358 1235.61 207.659 984.82" stroke="white" stroke-opacity="0.1" stroke-width="0.7398" stroke-miterlimit="10"/>
<path d="M3150.35 1148.75C3096.77 1127.71 2815.41 1431.09 2599.12 1166.97C2382.81 902.814 2260.21 829.56 2028.86 1006.17C1791.53 1187.34 1665.11 1062.67 1168.25 1076.29C834.111 1086.18 533.564 1215.41 208.711 967.644" stroke="white" stroke-opacity="0.1" stroke-width="0.7469" stroke-miterlimit="10"/>
<path d="M3149.9 1138.95C3092.49 1116.4 2804.38 1426.92 2587.82 1171.26C2371.26 915.602 2254.71 822.08 2022.66 994.164C1784.08 1171.07 1657.28 1075.77 1157.29 1088.26C821.726 1097.37 526.733 1195.23 209.772 950.44" stroke="white" stroke-opacity="0.1" stroke-width="0.7539" stroke-miterlimit="10"/>
<path d="M3149.44 1129.17C3088.19 1105.12 2793.32 1422.73 2576.52 1175.55C2359.71 928.361 2249.17 814.62 2016.45 982.183C1776.66 1154.81 1649.51 1088.88 1146.37 1100.2C809.35 1108.53 519.968 1175.04 210.824 933.264" stroke="white" stroke-opacity="0.1" stroke-width="0.761" stroke-miterlimit="10"/>
<path d="M3149.02 1119.37C3083.94 1093.83 2782.29 1418.53 2565.24 1179.84C2348.15 941.177 2243.67 807.14 2010.25 970.174C1769.21 1138.55 1641.71 1101.96 1135.42 1112.14C796.937 1119.72 513.108 1154.85 211.848 916.08" stroke="white" stroke-opacity="0.1" stroke-width="0.768" stroke-miterlimit="10"/>
<path d="M3148.57 1109.57C3079.65 1082.52 2771.27 1414.33 2553.94 1184.13C2336.6 953.965 2238.1 799.671 2004.05 958.165C1761.77 1122.25 1633.91 1115.07 1124.46 1124.08C784.59 1130.89 506.316 1134.65 212.91 898.876" stroke="white" stroke-opacity="0.1" stroke-width="0.7751" stroke-miterlimit="10"/>
<path d="M3148.12 1099.76C3075.4 1071.22 2760.21 1410.12 2542.63 1188.42C2325.03 966.715 2232.55 792.174 1997.85 946.156C1754.31 1105.95 1626.12 1128.14 1113.51 1136.01C772.186 1142.04 499.522 1114.46 213.943 881.663" stroke="white" stroke-opacity="0.1" stroke-width="0.7821" stroke-miterlimit="10"/>
<path d="M3147.69 1089.99C3071.14 1059.95 2749.21 1405.95 2531.35 1192.75C2313.47 979.531 2226.99 784.676 1991.64 934.175C1746.83 1089.67 1618.31 1141.28 1102.54 1148.01C759.792 1153.26 492.682 1094.3 214.986 864.516" stroke="white" stroke-opacity="0.1" stroke-width="0.7892" stroke-miterlimit="10"/>
<path d="M3147.23 1080.19C3066.86 1048.62 2738.15 1401.74 2520.05 1197.04C2301.91 992.319 2221.43 777.179 1985.44 922.195C1739.36 1073.37 1610.51 1154.38 1091.59 1159.94C747.416 1164.42 485.86 1074.1 216.01 847.331" stroke="white" stroke-opacity="0.1" stroke-width="0.7962" stroke-miterlimit="10"/>
<path d="M3146.78 1070.38C3062.6 1037.35 2727.13 1397.54 2508.74 1201.32C2290.36 1005.11 2215.87 769.682 1979.24 910.185C1731.89 1057.06 1602.72 1167.46 1080.64 1171.88C735.04 1175.58 479.057 1053.92 217.07 830.127" stroke="white" stroke-opacity="0.1" stroke-width="0.8033" stroke-miterlimit="10"/>
<path d="M3146.35 1060.61C3058.31 1026.04 2716.09 1393.37 2497.43 1205.64C2278.78 1017.89 2210.29 762.147 1973.04 898.176C1724.4 1040.72 1594.92 1180.57 1069.69 1183.81C722.636 1186.74 472.235 1033.72 218.103 812.914" stroke="white" stroke-opacity="0.1" stroke-width="0.8103" stroke-miterlimit="10"/>
<path d="M3145.9 1050.81C3054.03 1014.74 2705.07 1389.17 2486.13 1209.93C2267.23 1030.67 2204.7 754.641 1966.83 886.196C1716.91 1024.41 1587.14 1193.68 1058.73 1195.78C710.242 1197.96 465.433 1013.55 219.155 795.739" stroke="white" stroke-opacity="0.1" stroke-width="0.8173" stroke-miterlimit="10"/>
<path d="M3145.48 1041.01C3049.77 1003.44 2694.04 1384.96 2474.86 1214.2C2255.68 1043.46 2199.13 747.106 1960.63 874.187C1709.42 1008.07 1579.34 1206.79 1047.78 1207.72C697.867 1209.12 458.631 993.375 220.208 778.563" stroke="white" stroke-opacity="0.1" stroke-width="0.8244" stroke-miterlimit="10"/>
<path d="M3145.03 1031.2C3045.49 992.133 2683.02 1380.76 2463.55 1218.51C2244.12 1056.25 2193.53 739.534 1954.42 862.206C1701.92 991.757 1571.54 1219.89 1036.82 1219.68C685.482 1220.31 451.8 973.195 221.232 761.379" stroke="white" stroke-opacity="0.1" stroke-width="0.8314" stroke-miterlimit="10"/>
<path d="M3144.57 1021.43C3041.22 980.864 2671.96 1376.58 2452.25 1222.8C2232.57 1069.04 2187.92 731.991 1948.23 850.197C1694.41 975.379 1563.74 1233 1025.87 1231.62C673.077 1231.46 444.977 952.986 222.264 744.166" stroke="white" stroke-opacity="0.1" stroke-width="0.8385" stroke-miterlimit="10"/>
<path d="M3144.14 1011.63C3036.98 969.538 2660.93 1372.38 2440.98 1227.1C2221.02 1081.82 2182.32 724.419 1942.06 838.197C1686.93 959.009 1555.98 1246.08 1014.94 1243.56C660.722 1242.66 438.176 932.815 223.346 726.999" stroke="white" stroke-opacity="0.1" stroke-width="0.8455" stroke-miterlimit="10"/>
<path d="M3143.69 1001.82C3032.69 958.26 2649.91 1368.17 2429.67 1231.39C2209.44 1094.6 2176.73 716.847 1935.85 826.216C1679.43 942.631 1548.17 1259.22 1003.98 1255.53C648.346 1253.83 431.382 912.616 224.37 709.815" stroke="white" stroke-opacity="0.1" stroke-width="0.8526" stroke-miterlimit="10"/>
<path d="M3143.24 992.018C3028.41 946.925 2638.88 1363.97 2418.37 1235.68C2197.89 1107.39 2171.11 709.238 1929.62 814.198C1671.86 926.235 1540.35 1272.29 993.003 1267.45C635.962 1265.02 424.552 892.436 225.422 692.639" stroke="white" stroke-opacity="0.1" stroke-width="0.8596" stroke-miterlimit="10"/>
<path d="M3142.81 982.25C3024.15 935.656 2627.85 1359.8 2407.09 1239.97C2186.33 1120.18 2165.52 701.637 1923.45 802.198C1664.36 909.828 1532.57 1285.4 982.071 1279.43C623.585 1276.18 417.758 872.236 226.454 675.426" stroke="white" stroke-opacity="0.1" stroke-width="0.8667" stroke-miterlimit="10"/>
<path d="M3142.36 972.444C3019.86 924.35 2616.79 1355.59 2395.78 1244.29C2174.78 1132.97 2159.89 694.056 1917.24 790.217C1656.83 893.412 1524.77 1298.51 971.12 1291.36C611.173 1287.36 410.927 852.057 227.507 658.25" stroke="white" stroke-opacity="0.1" stroke-width="0.8737" stroke-miterlimit="10"/>
<path d="M3141.91 962.638C3015.61 913.052 2605.77 1351.39 2384.48 1248.58C2163.23 1145.75 2154.28 686.418 1911.04 778.208C1649.3 876.996 1516.97 1311.61 960.159 1303.33C598.787 1298.55 404.133 831.857 228.559 641.075" stroke="white" stroke-opacity="0.1" stroke-width="0.8808" stroke-miterlimit="10"/>
<path d="M3141.48 952.869C3011.34 901.783 2594.73 1347.21 2373.2 1252.88C2151.65 1158.53 2148.67 678.78 1904.84 766.228C1641.78 860.552 1509.17 1324.72 949.208 1315.27C586.412 1309.72 397.302 811.677 229.592 623.862" stroke="white" stroke-opacity="0.1" stroke-width="0.8878" stroke-miterlimit="10"/>
<path d="M3141.02 943.063C3007.06 890.477 2583.71 1343.01 2361.9 1257.16C2140.1 1171.32 2143.03 671.134 1898.64 754.218C1634.24 844.07 1501.41 1337.8 938.285 1327.21C574.028 1320.91 390.5 791.506 230.644 606.686" stroke="white" stroke-opacity="0.1" stroke-width="0.8949" stroke-miterlimit="10"/>
<path d="M3140.57 933.257C3002.77 879.17 2572.65 1338.8 2350.6 1261.45C2128.54 1184.11 2137.42 663.496 1892.44 742.209C1626.73 827.597 1493.61 1350.91 927.334 1339.15C561.651 1332.07 383.678 771.298 231.668 589.502" stroke="white" stroke-opacity="0.1" stroke-width="0.9019" stroke-miterlimit="10"/>
<path d="M3140.15 923.46C2998.52 867.873 2561.66 1334.61 2339.32 1265.75C2116.99 1196.9 2131.8 655.791 1886.24 730.2C1619.19 811.115 1485.81 1363.99 916.382 1351.08C549.267 1343.26 376.876 751.127 232.729 572.298" stroke="white" stroke-opacity="0.1" stroke-width="0.9089" stroke-miterlimit="10"/>
<path d="M3139.69 913.683C2994.23 856.566 2550.59 1330.42 2328.01 1270.07C2105.43 1209.71 2126.19 648.154 1880.03 718.22C1611.65 794.633 1478 1377.12 905.422 1363.05C536.891 1354.42 370.082 730.927 233.781 555.122" stroke="white" stroke-opacity="0.1" stroke-width="0.916" stroke-miterlimit="10"/>
<path d="M3139.27 903.886C2989.98 845.269 2539.57 1326.22 2316.71 1274.36C2093.85 1222.49 2120.57 640.449 1873.82 706.239C1604.11 778.151 1470.2 1390.23 894.461 1375.01C524.506 1365.61 363.251 710.748 234.805 537.938" stroke="white" stroke-opacity="0.1" stroke-width="0.923" stroke-miterlimit="10"/>
<path d="M3138.82 894.08C2985.72 833.971 2528.54 1322.02 2305.43 1278.65C2082.32 1235.29 2114.98 632.754 1867.65 694.238C1596.62 761.621 1462.43 1403.34 883.539 1386.96C512.102 1376.77 356.449 690.577 235.866 520.733" stroke="white" stroke-opacity="0.1" stroke-width="0.9301" stroke-miterlimit="10"/>
<path d="M3138.36 884.274C2981.44 822.665 2517.52 1317.82 2294.13 1282.94C2070.74 1248.07 2109.37 625.021 1861.42 682.221C1589.08 745.044 1454.61 1416.41 872.559 1398.88C499.718 1387.96 349.627 670.368 236.89 503.549" stroke="white" stroke-opacity="0.1" stroke-width="0.9371" stroke-miterlimit="10"/>
<path d="M3137.93 874.505C2977.18 811.396 2506.49 1313.64 2282.85 1287.27C2059.19 1260.85 2103.76 617.289 1855.22 670.24C1581.55 728.534 1446.81 1429.51 861.599 1410.85C487.342 1399.12 342.825 650.197 237.943 486.374" stroke="white" stroke-opacity="0.1" stroke-width="0.9442" stroke-miterlimit="10"/>
<path d="M3137.48 864.7C2972.89 800.089 2495.46 1309.44 2271.55 1291.53C2047.64 1273.64 2098.14 609.556 1849.05 658.24C1574.06 711.975 1439.04 1442.63 850.676 1422.79C474.957 1410.31 336.002 629.989 239.004 469.169" stroke="white" stroke-opacity="0.1" stroke-width="0.9512" stroke-miterlimit="10"/>
<path d="M3137.03 854.894C2968.64 788.792 2484.43 1305.24 2260.24 1295.84C2036.09 1286.43 2092.47 601.398 1842.84 646.259C1566.47 694.945 1431.24 1455.73 839.715 1434.76C462.572 1421.5 329.2 609.818 240.027 451.985" stroke="white" stroke-opacity="0.1" stroke-width="0.9583" stroke-miterlimit="10"/>
<path d="M3136.6 845.125C2964.35 777.486 2473.4 1301.07 2248.97 1300.14C2024.53 1299.22 2086.93 593.844 1836.64 634.25C1559.02 678.555 1423.46 1468.85 828.764 1446.7C450.196 1432.66 322.369 589.638 241.08 434.809" stroke="white" stroke-opacity="0.1" stroke-width="0.9653" stroke-miterlimit="10"/>
<path d="M3136.15 835.319C2960.07 766.179 2462.35 1296.85 2237.66 1304.43C2012.98 1312 2081.39 586.289 1830.44 622.241C1551.57 662.194 1415.67 1481.93 817.813 1458.63C437.812 1443.85 315.575 569.439 242.112 417.596" stroke="white" stroke-opacity="0.1" stroke-width="0.9724" stroke-miterlimit="10"/>
</svg>
